# This file uses meters as units for non-parametric coordinates.

mtllib Stone_1.mtl
g default
v 555.918640 -19.315536 283.449646
v 472.938416 -9.252666 176.480423
v 614.848022 -0.144547 280.358093
v 456.630890 -13.413219 214.364319
v 469.617096 140.835602 194.667160
v 465.701141 56.428921 169.008347
v 571.192505 9.610434 138.610870
v 711.193237 -2.879944 189.275818
v 690.746094 93.317749 193.575607
v 574.416443 129.074387 204.374268
v 427.366272 87.126480 263.815338
v 702.939331 -25.531448 230.779205
v 603.805054 46.213287 148.678986
v 665.996155 147.960480 305.551819
v 680.795898 142.155884 225.848862
v 728.966064 17.888485 250.139755
v 706.841492 8.440582 278.216675
v 506.571442 -34.018219 222.219330
v 671.708191 74.721092 335.805908
v 579.124695 15.831917 324.764038
v 561.345398 63.349960 354.438568
v 491.022217 76.801849 342.164612
v 568.043762 113.467499 352.069824
v 519.341003 -14.541168 307.036011
v 530.929077 164.575363 269.480042
v 614.222778 167.074493 293.971680
v 623.445190 160.169434 235.833252
vt 0.391033 0.179631
vt 0.383686 0.146408
vt 0.393385 0.150240
vt 0.404807 0.222093
vt 0.400850 0.221420
vt 0.397368 0.280655
vt 0.398672 0.150907
vt 0.385096 0.220276
vt 0.386145 0.260317
vt 0.383144 0.168781
vt 0.400974 0.140169
vt 0.401391 0.189671
vt 0.401225 0.256842
vt 0.384835 0.134072
vt 0.391658 0.158610
vt 0.385084 0.164719
vt 0.395512 0.249081
vt 0.396050 0.212664
vt 0.388140 0.219274
vt 0.393665 0.248611
vt 0.402445 0.141399
vt 0.398914 0.126766
vt 0.391648 0.284283
vt 0.390389 0.274796
vt 0.388117 0.270879
vt 0.395891 0.144769
vt 0.394591 0.175058
vn 0.336744 -0.041283 -0.940691
vn 0.336744 -0.041283 -0.940691
vn 0.336744 -0.041283 -0.940691
vn -0.529959 0.670693 0.518955
vn -0.529959 0.670693 0.518955
vn -0.529959 0.670693 0.518955
vn -0.727328 -0.430911 0.534143
vn -0.727328 -0.430911 0.534143
vn -0.727328 -0.430911 0.534143
vn 0.926245 0.320160 -0.198917
vn 0.926245 0.320160 -0.198917
vn 0.926245 0.320160 -0.198917
vn -0.331994 -0.142656 -0.932432
vn -0.331994 -0.142656 -0.932432
vn -0.331994 -0.142656 -0.932432
vn -0.141922 0.293926 -0.945233
vn -0.141922 0.293926 -0.945233
vn -0.141922 0.293926 -0.945233
vn -0.268366 -0.963178 0.016366
vn -0.268366 -0.963178 0.016366
vn -0.268366 -0.963178 0.016366
vn 0.916882 0.210058 -0.339415
vn 0.916882 0.210058 -0.339415
vn 0.916882 0.210058 -0.339415
vn 0.871407 -0.482253 -0.089901
vn 0.871407 -0.482253 -0.089901
vn 0.871407 -0.482253 -0.089901
vn 0.717331 -0.593046 0.365696
vn 0.717331 -0.593046 0.365696
vn 0.717331 -0.593046 0.365696
vn 0.163950 0.024697 0.986159
vn 0.163950 0.024697 0.986160
vn 0.163950 0.024697 0.986160
vn 0.138767 0.905483 -0.401054
vn 0.138767 0.905483 -0.401054
vn 0.138767 0.905483 -0.401054
vn -0.933289 -0.102344 -0.344234
vn -0.933289 -0.102344 -0.344234
vn -0.933289 -0.102344 -0.344234
vn -0.902836 -0.145511 -0.404616
vn -0.902836 -0.145511 -0.404616
vn -0.902836 -0.145511 -0.404616
vn 0.044477 -0.346552 0.936976
vn 0.044477 -0.346552 0.936976
vn 0.044477 -0.346552 0.936976
vn -0.403008 -0.876881 0.262039
vn -0.403008 -0.876881 0.262039
vn -0.403008 -0.876881 0.262039
vn -0.336651 -0.909259 -0.244774
vn -0.336651 -0.909259 -0.244774
vn -0.336651 -0.909259 -0.244774
vn 0.400577 0.125711 -0.907598
vn 0.400577 0.125711 -0.907598
vn 0.400577 0.125711 -0.907598
vn 0.098019 0.899791 -0.425168
vn 0.098019 0.899791 -0.425168
vn 0.098019 0.899791 -0.425168
vn -0.085736 0.334531 -0.938477
vn -0.085736 0.334531 -0.938477
vn -0.085736 0.334531 -0.938477
vn 0.139698 0.586030 -0.798156
vn 0.139698 0.586030 -0.798156
vn 0.139698 0.586030 -0.798156
vn -0.444857 0.878360 -0.174889
vn -0.444857 0.878360 -0.174889
vn -0.444857 0.878360 -0.174889
vn 0.140289 0.586124 -0.797983
vn 0.140289 0.586124 -0.797983
vn 0.140289 0.586124 -0.797983
vn 0.089867 0.595223 -0.798519
vn 0.089867 0.595223 -0.798519
vn 0.089867 0.595223 -0.798519
vn -0.589924 0.771373 0.238691
vn -0.589924 0.771373 0.238691
vn -0.589924 0.771373 0.238691
vn -0.738738 -0.458163 0.494321
vn -0.738738 -0.458163 0.494321
vn -0.738738 -0.458163 0.494321
vn 0.913324 0.381752 0.141790
vn 0.913324 0.381752 0.141790
vn 0.913324 0.381752 0.141790
vn 0.873204 0.242687 0.422633
vn 0.873204 0.242687 0.422633
vn 0.873204 0.242687 0.422633
vn 0.797216 -0.095369 0.596114
vn 0.797216 -0.095369 0.596114
vn 0.797216 -0.095369 0.596114
vn 0.076814 -0.630431 0.772436
vn 0.076814 -0.630431 0.772436
vn 0.076814 -0.630431 0.772436
vn 0.089280 -0.813233 0.575048
vn 0.089280 -0.813233 0.575048
vn 0.089280 -0.813233 0.575048
vn 0.015598 -0.975024 0.221553
vn 0.015598 -0.975024 0.221553
vn 0.015598 -0.975024 0.221553
vn -0.011492 -0.882826 -0.469560
vn -0.011492 -0.882826 -0.469560
vn -0.011492 -0.882826 -0.469560
vn -0.404165 0.685367 0.605742
vn -0.404165 0.685367 0.605742
vn -0.404165 0.685367 0.605742
vn 0.190002 -0.673427 0.714419
vn 0.190002 -0.673427 0.714419
vn 0.190002 -0.673427 0.714419
vn 0.750841 -0.124175 0.648705
vn 0.750841 -0.124175 0.648705
vn 0.750841 -0.124175 0.648705
vn 0.308345 -0.951061 -0.020133
vn 0.308345 -0.951061 -0.020133
vn 0.308345 -0.951061 -0.020133
vn -0.380235 -0.588068 0.713861
vn -0.380235 -0.588068 0.713861
vn -0.380235 -0.588068 0.713861
vn 0.281787 0.385013 0.878841
vn 0.281787 0.385013 0.878841
vn 0.281787 0.385013 0.878841
vn 0.095724 0.692492 0.715046
vn 0.095724 0.692492 0.715046
vn 0.095724 0.692492 0.715046
vn 0.366497 -0.619892 0.693840
vn 0.366497 -0.619892 0.693840
vn 0.366497 -0.619892 0.693840
vn 0.029717 0.555283 -0.831131
vn 0.029717 0.555283 -0.831131
vn 0.029717 0.555283 -0.831131
vn 0.089065 -0.881631 -0.463459
vn 0.089065 -0.881631 -0.463459
vn 0.089065 -0.881631 -0.463459
vn 0.380248 -0.907290 -0.179548
vn 0.380248 -0.907289 -0.179548
vn 0.380248 -0.907290 -0.179548
vn 0.297362 0.954658 -0.014310
vn 0.297362 0.954658 -0.014310
vn 0.297362 0.954657 -0.014310
vn -0.193660 0.792936 0.577709
vn -0.193660 0.792936 0.577709
vn -0.193660 0.792936 0.577709
vn -0.893843 0.167861 -0.415774
vn -0.893843 0.167861 -0.415774
vn -0.893843 0.167861 -0.415774
vn 0.288630 -0.803171 0.521162
vn 0.288630 -0.803171 0.521162
vn 0.288630 -0.803171 0.521162
vn -0.842440 0.137219 0.521024
vn -0.842440 0.137219 0.521024
vn -0.842440 0.137219 0.521024
vn 0.356480 0.932728 -0.054231
vn 0.356480 0.932728 -0.054231
vn 0.356480 0.932728 -0.054231
s off
g BigStone_3
usemtl pPlatonic2SG
f 13/1/1 8/2/2 7/3/3
f 11/4/4 22/5/5 25/6/6
f 24/7/7 22/5/8 11/4/9
f 9/8/10 15/9/11 16/10/12
f 2/11/13 6/12/14 7/3/15
f 6/12/16 5/13/17 7/3/18
f 7/3/19 12/14/20 3/15/21
f 9/8/22 16/10/23 8/2/24
f 16/10/25 12/14/26 8/2/27
f 16/10/28 17/16/29 12/14/30
f 23/17/31 21/18/32 19/19/33
f 5/13/34 25/6/35 10/20/36
f 6/12/37 4/21/38 11/4/39
f 2/11/40 4/21/41 6/12/42
f 22/5/43 24/7/44 23/17/45
f 24/7/46 4/21/47 18/22/48
f 18/22/49 4/21/50 2/11/51
f 13/1/52 9/8/53 8/2/54
f 26/23/55 10/20/56 25/6/57
f 13/1/58 7/3/59 5/13/60
f 13/1/61 5/13/62 10/20/63
f 26/23/64 27/24/65 10/20/66
f 13/1/67 10/20/68 27/24/69
f 9/8/70 13/1/71 27/24/72
f 5/13/73 11/4/74 25/6/75
f 11/4/76 4/21/77 24/7/78
f 16/10/79 15/9/80 14/25/81
f 14/25/82 19/19/83 16/10/84
f 16/10/85 19/19/86 17/16/87
f 3/15/88 17/16/89 19/19/90
f 17/16/91 3/15/92 12/14/93
f 24/7/94 18/22/95 1/26/96
f 2/11/97 7/3/98 18/22/99
f 25/6/100 22/5/101 23/17/102
f 21/18/103 3/15/104 19/19/105
f 20/27/106 3/15/107 21/18/108
f 18/22/109 3/15/110 1/26/111
f 21/18/112 1/26/113 20/27/114
f 19/19/115 14/25/116 23/17/117
f 26/23/118 23/17/119 14/25/120
f 24/7/121 1/26/122 21/18/123
f 9/8/124 27/24/125 15/9/126
f 8/2/127 12/14/128 7/3/129
f 7/3/130 3/15/131 18/22/132
f 15/9/133 27/24/134 14/25/135
f 23/17/136 26/23/137 25/6/138
f 6/12/139 11/4/140 5/13/141
f 20/27/142 1/26/143 3/15/144
f 23/17/145 24/7/146 21/18/147
f 14/25/148 27/24/149 26/23/150
