# This file uses meters as units for non-parametric coordinates.

mtllib Stone_big_2.mtl
g default
v 985.128235 69.193306 421.668182
v 1190.282471 38.709892 194.798340
v 898.120422 189.216919 194.798340
v 916.228760 -27.664413 194.798340
v 1190.282471 38.709892 346.044861
v 1074.438599 136.879318 156.089951
v 851.724060 196.110855 346.044861
v 1121.552002 172.585434 270.421600
v 1051.024048 -20.699881 156.089951
v 830.046265 92.236588 156.089951
v 985.128235 69.193306 119.175072
v 866.981934 -20.346914 346.044861
v 791.749390 97.927032 270.421600
v 1091.824707 -27.480127 270.421600
vt 0.402347 0.258356
vt 0.396547 0.195569
vt 0.385304 0.174295
vt 0.387598 0.241488
vt 0.383144 0.163153
vt 0.388578 0.214868
vt 0.398350 0.246380
vt 0.390062 0.127266
vt 0.392971 0.174423
vt 0.397671 0.126766
vt 0.401662 0.190033
vt 0.401814 0.143041
vt 0.404807 0.200988
vt 0.389438 0.133117
vn 0.298081 0.641151 0.707159
vn 0.298081 0.641151 0.707159
vn 0.298081 0.641151 0.707159
vn 0.298081 0.641151 0.707159
vn 0.813236 0.540013 -0.216871
vn 0.813236 0.540013 -0.216871
vn 0.813236 0.540013 -0.216871
vn 0.813236 0.540013 -0.216871
vn 0.126195 0.979431 -0.157446
vn 0.126195 0.979431 -0.157446
vn 0.126195 0.979431 -0.157446
vn 0.126195 0.979431 -0.157446
vn 0.338834 -0.050347 -0.939498
vn 0.338834 -0.050347 -0.939498
vn 0.338834 -0.050347 -0.939498
vn 0.338834 -0.050347 -0.939498
vn -0.246142 -0.481616 -0.841107
vn -0.246142 -0.481616 -0.841107
vn -0.246142 -0.481616 -0.841107
vn -0.246142 -0.481616 -0.841107
vn -0.088465 0.484295 -0.870421
vn -0.088465 0.484295 -0.870421
vn -0.088465 0.484295 -0.870421
vn -0.088465 0.484295 -0.870421
vn -0.619502 -0.043668 0.783779
vn -0.619502 -0.043668 0.783779
vn -0.619502 -0.043668 0.783779
vn -0.619502 -0.043668 0.783779
vn -0.729079 0.632108 -0.262457
vn -0.729079 0.632108 -0.262457
vn -0.729079 0.632108 -0.262457
vn -0.729079 0.632108 -0.262457
vn -0.755721 -0.617234 -0.218880
vn -0.755721 -0.617234 -0.218880
vn -0.755721 -0.617234 -0.218880
vn -0.755721 -0.617234 -0.218880
vn 0.143374 -0.784886 0.602824
vn 0.143374 -0.784886 0.602824
vn 0.143374 -0.784886 0.602825
vn 0.143374 -0.784886 0.602824
vn 0.000176 -0.999998 0.002029
vn 0.000176 -0.999998 0.002029
vn 0.000176 -0.999998 0.002029
vn 0.000176 -0.999998 0.002029
vn 0.501678 -0.859370 -0.099012
vn 0.501678 -0.859370 -0.099012
vn 0.501678 -0.859370 -0.099012
vn 0.501678 -0.859370 -0.099012
s off
g BigStone_2
usemtl pPlatonic2SG
f 7/1/1 1/2/2 5/3/3 8/4/4
f 5/3/5 2/5/6 6/6/7 8/4/8
f 6/6/9 3/7/10 7/1/11 8/4/12
f 6/6/13 2/5/14 9/8/15 11/9/16
f 9/8/17 4/10/18 10/11/19 11/9/20
f 10/11/21 3/7/22 6/6/23 11/9/24
f 12/12/25 1/2/26 7/1/27 13/13/28
f 7/1/29 3/7/30 10/11/31 13/13/32
f 10/11/33 4/10/34 12/12/35 13/13/36
f 5/3/37 1/2/38 12/12/39 14/14/40
f 12/12/41 4/10/42 9/8/43 14/14/44
f 9/8/45 2/5/46 5/3/47 14/14/48
