# This file uses meters as units for non-parametric coordinates.

mtllib Stone_big_1.mtl
g default
v 1286.488403 28.707352 321.802979
v 1439.263306 289.273499 264.772675
v 1479.515625 -10.236874 135.604980
v 1541.914673 37.242947 338.625824
v 1302.895020 248.787598 316.154175
v 1478.089111 175.514755 164.239685
v 1354.857056 -95.916718 182.453827
v 1349.760986 184.852814 167.556152
v 1534.355225 175.145706 313.281372
v 1565.081787 -51.264866 216.430542
v 1559.225342 109.679359 219.040039
v 1417.975464 -51.213684 385.196228
v 1471.662476 -119.173691 251.530060
v 1421.197510 184.384201 356.782410
vt 0.393921 0.133095
vt 0.399606 0.214132
vt 0.398268 0.335020
vt 0.393389 0.291090
vt 0.390075 0.355278
vt 0.386339 0.285520
vt 0.386110 0.177252
vt 0.386148 0.294064
vt 0.383154 0.251663
vt 0.386508 0.219978
vt 0.383144 0.161192
vt 0.393926 0.175738
vt 0.388937 0.126766
vt 0.392842 0.301587
vn -0.927138 0.005567 -0.374680
vn -0.927138 0.005567 -0.374680
vn -0.927138 0.005567 -0.374680
vn -0.927138 0.005567 -0.374680
vn -0.216332 0.758143 -0.615158
vn -0.216332 0.758143 -0.615158
vn -0.216332 0.758143 -0.615158
vn -0.216332 0.758143 -0.615158
vn -0.201984 0.026005 -0.979044
vn -0.201984 0.026005 -0.979044
vn -0.201984 0.026005 -0.979044
vn -0.201984 0.026005 -0.979044
vn 0.761564 0.581539 -0.286065
vn 0.761564 0.581539 -0.286065
vn 0.761564 0.581539 -0.286065
vn 0.761564 0.581539 -0.286065
vn 0.982507 0.057580 0.177101
vn 0.982507 0.057580 0.177101
vn 0.982507 0.057580 0.177101
vn 0.982507 0.057580 0.177101
vn 0.659813 0.081183 -0.747032
vn 0.659813 0.081183 -0.747032
vn 0.659813 0.081183 -0.747032
vn 0.659813 0.081183 -0.747032
vn -0.507893 -0.794342 0.333265
vn -0.507893 -0.794342 0.333265
vn -0.507893 -0.794342 0.333265
vn -0.507893 -0.794342 0.333265
vn 0.256882 -0.712900 -0.652523
vn 0.256882 -0.712900 -0.652523
vn 0.256882 -0.712900 -0.652522
vn 0.256882 -0.712900 -0.652522
vn 0.616175 -0.575908 0.537270
vn 0.616175 -0.575908 0.537270
vn 0.616175 -0.575908 0.537270
vn 0.616175 -0.575908 0.537270
vn -0.340967 0.084674 0.936254
vn -0.340967 0.084674 0.936254
vn -0.340967 0.084674 0.936254
vn -0.340967 0.084674 0.936254
vn 0.310779 0.138943 0.940272
vn 0.310779 0.138943 0.940272
vn 0.310779 0.138943 0.940272
vn 0.310779 0.138943 0.940272
vn 0.208042 0.624521 0.752789
vn 0.208042 0.624521 0.752789
vn 0.208042 0.624521 0.752789
vn 0.208042 0.624521 0.752790
s off
g BigStone_1
usemtl pPlatonic2SG
f 7/1/1 1/2/2 5/3/3 8/4/4
f 5/3/5 2/5/6 6/6/7 8/4/8
f 6/6/9 3/7/10 7/1/11 8/4/12
f 6/6/13 2/5/14 9/8/15 11/9/16
f 9/8/17 4/10/18 10/11/19 11/9/20
f 10/11/21 3/7/22 6/6/23 11/9/24
f 12/12/25 1/2/26 7/1/27 13/13/28
f 7/1/29 3/7/30 10/11/31 13/13/32
f 10/11/33 4/10/34 12/12/35 13/13/36
f 5/3/37 1/2/38 12/12/39 14/14/40
f 12/12/41 4/10/42 9/8/43 14/14/44
f 9/8/45 2/5/46 5/3/47 14/14/48
