# This file uses meters as units for non-parametric coordinates.

mtllib Stone_3.mtl
g default
v -409.535095 63.244324 230.158783
v -425.254242 -22.755608 297.639252
v -209.962234 -1.495033 380.218323
v -222.370331 19.260614 186.799530
v -182.812347 68.887657 173.820358
v -173.644043 -35.601097 211.784851
v -368.568359 2.437735 224.876358
v -332.094360 -30.599564 252.855545
v -89.028313 63.322182 261.137268
v -137.598816 149.952759 277.605591
v -283.787415 -11.801575 284.081482
v -151.474213 132.983032 363.210541
v -278.598145 47.798851 201.698441
v -241.450653 70.548370 405.206207
v -264.048248 99.085976 221.891998
v -317.931152 92.407097 392.893311
v -395.366180 -32.345665 326.866211
v -205.317825 156.736023 315.939667
v -113.162041 89.743324 352.582947
v -418.059875 67.791336 341.265015
v -164.888107 15.497654 317.199249
vt 0.390610 0.166756
vt 0.395741 0.150636
vt 0.388807 0.126766
vt 0.389578 0.195835
vt 0.383144 0.199645
vt 0.384560 0.225030
vt 0.399051 0.134660
vt 0.402664 0.141146
vt 0.404807 0.144641
vt 0.390598 0.267589
vt 0.386307 0.260361
vt 0.394814 0.221089
vt 0.401653 0.154471
vt 0.395856 0.183649
vt 0.404367 0.196985
vt 0.392160 0.162292
vt 0.392529 0.216415
vt 0.386991 0.254750
vt 0.387940 0.172220
vt 0.397416 0.229924
vt 0.404091 0.209513
vn -0.094888 -0.979468 0.177872
vn -0.094888 -0.979468 0.177872
vn -0.094888 -0.979468 0.177872
vn 0.660487 -0.204535 -0.722442
vn 0.660487 -0.204535 -0.722442
vn 0.660487 -0.204535 -0.722442
vn 0.610098 -0.703607 0.364304
vn 0.610098 -0.703607 0.364304
vn 0.610098 -0.703607 0.364304
vn -0.158091 -0.974678 -0.158148
vn -0.158091 -0.974678 -0.158147
vn -0.158091 -0.974678 -0.158147
vn -0.161040 0.883069 -0.440745
vn -0.161040 0.883069 -0.440745
vn -0.161040 0.883069 -0.440745
vn 0.087677 -0.585643 -0.805813
vn 0.087677 -0.585643 -0.805813
vn 0.087677 -0.585643 -0.805813
vn -0.338054 0.426270 -0.839055
vn -0.338054 0.426270 -0.839055
vn -0.338054 0.426270 -0.839055
vn -0.240930 0.887233 -0.393408
vn -0.240930 0.887233 -0.393408
vn -0.240930 0.887233 -0.393408
vn 0.107848 -0.331128 -0.937402
vn 0.107848 -0.331129 -0.937402
vn 0.107848 -0.331128 -0.937402
vn -0.272285 -0.034451 -0.961600
vn -0.272285 -0.034451 -0.961600
vn -0.272285 -0.034451 -0.961600
vn -0.223394 0.744845 0.628730
vn -0.223394 0.744845 0.628730
vn -0.223394 0.744845 0.628730
vn -0.657672 -0.386939 -0.646333
vn -0.657672 -0.386939 -0.646333
vn -0.657672 -0.386939 -0.646333
vn -0.057456 0.798775 -0.598880
vn -0.057456 0.798775 -0.598880
vn -0.057456 0.798775 -0.598880
vn -0.490051 -0.682312 -0.542494
vn -0.490051 -0.682312 -0.542494
vn -0.490051 -0.682312 -0.542494
vn 0.658715 -0.697067 0.283183
vn 0.658715 -0.697067 0.283183
vn 0.658715 -0.697067 0.283183
vn 0.080317 -0.903987 0.419948
vn 0.080317 -0.903987 0.419948
vn 0.080317 -0.903987 0.419948
vn 0.749229 0.662280 0.006381
vn 0.749229 0.662280 0.006381
vn 0.749229 0.662280 0.006381
vn 0.221905 0.948970 0.224085
vn 0.221905 0.948970 0.224085
vn 0.221905 0.948970 0.224085
vn 0.474852 -0.095883 0.874827
vn 0.474852 -0.095883 0.874827
vn 0.474852 -0.095883 0.874827
vn -0.240985 -0.409672 -0.879827
vn -0.240985 -0.409672 -0.879827
vn -0.240985 -0.409672 -0.879827
vn -0.404012 -0.219258 0.888088
vn -0.404012 -0.219258 0.888088
vn -0.404012 -0.219258 0.888088
vn -0.317377 -0.792038 -0.521487
vn -0.317377 -0.792038 -0.521486
vn -0.317377 -0.792038 -0.521487
vn -0.716607 -0.255709 0.648913
vn -0.716607 -0.255709 0.648913
vn -0.716607 -0.255709 0.648913
vn -0.989779 0.117548 -0.080753
vn -0.989778 0.117548 -0.080753
vn -0.989778 0.117548 -0.080753
vn 0.247496 -0.950243 0.189166
vn 0.247496 -0.950243 0.189166
vn 0.247496 -0.950243 0.189166
vn 0.617387 0.466549 -0.633376
vn 0.617387 0.466549 -0.633376
vn 0.617387 0.466549 -0.633376
vn 0.867093 0.442745 0.228311
vn 0.867093 0.442745 0.228311
vn 0.867093 0.442745 0.228311
vn 0.171362 -0.984865 -0.026008
vn 0.171362 -0.984865 -0.026008
vn 0.171362 -0.984865 -0.026008
vn 0.737241 -0.629977 0.244140
vn 0.737241 -0.629977 0.244140
vn 0.737241 -0.629977 0.244140
vn 0.271238 0.003762 0.962505
vn 0.271238 0.003762 0.962505
vn 0.271238 0.003762 0.962505
vn 0.696106 -0.640006 0.325314
vn 0.696106 -0.640006 0.325314
vn 0.696106 -0.640006 0.325314
vn -0.192576 -0.395633 0.897992
vn -0.192576 -0.395633 0.897992
vn -0.192575 -0.395633 0.897992
vn -0.241772 -0.332416 0.911617
vn -0.241772 -0.332416 0.911617
vn -0.241772 -0.332416 0.911617
vn 0.085579 0.699231 0.709755
vn 0.085579 0.699231 0.709755
vn 0.085579 0.699231 0.709755
vn -0.149634 0.398699 -0.904792
vn -0.149634 0.398699 -0.904792
vn -0.149634 0.398699 -0.904792
vn -0.219069 -0.063006 -0.973673
vn -0.219069 -0.063006 -0.973673
vn -0.219069 -0.063006 -0.973673
vn -0.348913 0.904438 0.245462
vn -0.348913 0.904438 0.245462
vn -0.348913 0.904438 0.245462
vn -0.391689 0.917611 -0.067606
vn -0.391689 0.917611 -0.067606
vn -0.391689 0.917611 -0.067606
s off
g BigStone_5
usemtl pPlatonic2SG
f 3/1/1 11/2/2 6/3/3
f 5/4/4 9/5/5 6/3/6
f 6/3/7 9/5/8 19/6/9
f 8/7/10 17/8/11 2/9/12
f 18/10/13 10/11/14 15/12/15
f 8/7/16 7/13/17 13/14/18
f 5/4/19 13/14/20 15/12/21
f 15/12/22 1/15/23 18/10/24
f 4/16/25 5/4/26 6/3/27
f 5/4/28 4/16/29 13/14/30
f 14/17/31 12/18/32 18/10/33
f 2/9/34 1/15/35 7/13/36
f 15/12/37 10/11/38 5/4/39
f 4/16/40 6/3/41 13/14/42
f 3/1/43 6/3/44 21/19/45
f 11/2/46 8/7/47 6/3/48
f 19/6/49 9/5/50 12/18/51
f 18/10/52 12/18/53 10/11/54
f 12/18/55 14/17/56 3/1/57
f 6/3/58 8/7/59 13/14/60
f 16/20/61 20/21/62 17/8/63
f 7/13/64 8/7/65 2/9/66
f 20/21/67 2/9/68 17/8/69
f 2/9/70 20/21/71 1/15/72
f 11/2/73 17/8/74 8/7/75
f 10/11/76 9/5/77 5/4/78
f 12/18/79 9/5/80 10/11/81
f 3/1/82 17/8/83 11/2/84
f 19/6/85 21/19/86 6/3/87
f 12/18/88 3/1/89 19/6/90
f 19/6/91 3/1/92 21/19/93
f 14/17/94 17/8/95 3/1/96
f 14/17/97 16/20/98 17/8/99
f 14/17/100 18/10/101 16/20/102
f 15/12/103 13/14/104 1/15/105
f 13/14/106 7/13/107 1/15/108
f 18/10/109 20/21/110 16/20/111
f 1/15/112 20/21/113 18/10/114
