# This file uses meters as units for non-parametric coordinates.

mtllib Stone_2.mtl
g default
v 162.902954 156.828674 279.042480
v 79.922737 93.348633 365.725616
v 221.832306 138.783813 271.868408
v 63.615204 116.342850 335.332092
v 76.601433 -26.190941 273.164581
v 72.685448 33.124737 338.467834
v 178.176788 57.738380 388.569214
v 318.177521 94.436951 351.472565
v 297.730377 14.047523 298.462891
v 181.400757 -11.116348 270.859863
v 34.350571 55.373253 241.330292
v 309.923645 135.162842 327.451233
v 210.789337 31.473404 361.159576
v 272.980469 24.539295 174.308044
v 287.780212 -11.338493 245.715591
v 335.950378 107.808807 288.568329
v 313.825775 130.314911 269.305664
v 113.555740 138.061035 339.151550
v 278.692505 102.931938 185.880203
v 186.109039 147.832382 225.551468
v 168.329742 122.247482 175.712189
v 98.006516 104.405388 179.353973
v 175.028091 78.002960 152.052032
v 126.325302 164.821548 256.343933
v 137.913422 -8.218979 196.760712
v 221.207123 2.191528 174.451340
v 230.429504 -21.685883 227.908112
vt 0.392308 0.180595
vt 0.384712 0.225939
vt 0.394632 0.202354
vt 0.404807 0.186707
vt 0.400183 0.218365
vt 0.397264 0.133439
vt 0.398137 0.271113
vt 0.385971 0.161375
vt 0.386480 0.136613
vt 0.383144 0.230533
vt 0.401469 0.226416
vt 0.401986 0.179637
vt 0.401732 0.128668
vt 0.385167 0.254153
vt 0.391268 0.252534
vt 0.384629 0.245898
vt 0.394443 0.195216
vt 0.394972 0.231857
vt 0.386845 0.217765
vt 0.394215 0.139647
vt 0.402630 0.240868
vt 0.399099 0.257260
vt 0.391091 0.138826
vt 0.390577 0.126766
vt 0.387257 0.156028
vt 0.395522 0.266740
vt 0.393749 0.255756
vn 0.336744 -0.446822 0.828827
vn 0.336744 -0.446822 0.828827
vn 0.336744 -0.446822 0.828827
vn -0.529960 -0.309792 -0.789412
vn -0.529960 -0.309792 -0.789412
vn -0.529960 -0.309792 -0.789412
vn -0.727328 0.643815 -0.237690
vn -0.727328 0.643815 -0.237690
vn -0.727328 0.643815 -0.237690
vn 0.926245 -0.376864 0.006650
vn 0.926245 -0.376864 0.006650
vn 0.926245 -0.376864 0.006650
vn -0.331995 -0.355550 0.873707
vn -0.331995 -0.355550 0.873707
vn -0.331995 -0.355550 0.873707
vn -0.141922 -0.736955 0.660874
vn -0.141922 -0.736955 0.660874
vn -0.141922 -0.736955 0.660874
vn -0.268366 0.835360 0.479744
vn -0.268366 0.835360 0.479744
vn -0.268366 0.835360 0.479744
vn 0.916882 -0.354362 0.183726
vn 0.916882 -0.354362 0.183726
vn 0.916882 -0.354362 0.183726
vn 0.871408 0.367963 0.324425
vn 0.871408 0.367963 0.324425
vn 0.871408 0.367963 0.324425
vn 0.717331 0.696662 -0.009945
vn 0.717331 0.696662 -0.009945
vn 0.717331 0.696662 -0.009945
vn 0.163950 0.484373 -0.859362
vn 0.163950 0.484373 -0.859362
vn 0.163950 0.484373 -0.859362
vn 0.138767 -0.983043 -0.119878
vn 0.138767 -0.983043 -0.119878
vn 0.138767 -0.983043 -0.119878
vn -0.933289 -0.088609 0.348023
vn -0.933289 -0.088609 0.348023
vn -0.933289 -0.088609 0.348023
vn -0.902836 -0.082502 0.421996
vn -0.902836 -0.082502 0.421996
vn -0.902836 -0.082502 0.421996
vn 0.044476 0.777907 -0.626804
vn 0.044476 0.777907 -0.626804
vn 0.044476 0.777907 -0.626804
vn -0.403009 0.887216 0.224570
vn -0.403008 0.887216 0.224570
vn -0.403008 0.887216 0.224570
vn -0.336652 0.655186 0.676311
vn -0.336652 0.655186 0.676310
vn -0.336652 0.655186 0.676311
vn 0.400576 -0.573235 0.714801
vn 0.400576 -0.573235 0.714801
vn 0.400576 -0.573235 0.714801
vn 0.098019 -0.990519 -0.096256
vn 0.098019 -0.990519 -0.096256
vn 0.098019 -0.990519 -0.096256
vn -0.085736 -0.768354 0.634256
vn -0.085736 -0.768354 0.634256
vn -0.085736 -0.768354 0.634256
vn 0.139698 -0.912349 0.384843
vn 0.139698 -0.912349 0.384843
vn 0.139698 -0.912349 0.384843
vn -0.444857 -0.843807 -0.300154
vn -0.444857 -0.843806 -0.300154
vn -0.444857 -0.843807 -0.300154
vn 0.140290 -0.912341 0.384646
vn 0.140290 -0.912341 0.384646
vn 0.140290 -0.912341 0.384646
vn 0.089867 -0.920429 0.380441
vn 0.089867 -0.920429 0.380441
vn 0.089867 -0.920429 0.380441
vn -0.589923 -0.539919 -0.600399
vn -0.589923 -0.539919 -0.600399
vn -0.589923 -0.539919 -0.600399
vn -0.738738 0.646796 -0.189528
vn -0.738738 0.646796 -0.189528
vn -0.738738 0.646796 -0.189528
vn 0.913325 -0.255073 -0.317452
vn 0.913325 -0.255073 -0.317452
vn 0.913325 -0.255073 -0.317452
vn 0.873204 0.008306 -0.487284
vn 0.873204 0.008306 -0.487284
vn 0.873204 0.008306 -0.487284
vn 0.797216 0.387493 -0.462922
vn 0.797216 0.387493 -0.462922
vn 0.797216 0.387493 -0.462922
vn 0.076815 0.937284 -0.339997
vn 0.076815 0.937284 -0.339997
vn 0.076815 0.937284 -0.339997
vn 0.089280 0.993041 -0.076804
vn 0.089280 0.993041 -0.076804
vn 0.089280 0.993041 -0.076804
vn 0.015597 0.950724 0.309646
vn 0.015597 0.950724 0.309646
vn 0.015597 0.950724 0.309646
vn -0.011493 0.517250 0.855757
vn -0.011493 0.517250 0.855757
vn -0.011493 0.517250 0.855757
vn -0.404165 -0.277898 -0.871449
vn -0.404165 -0.277898 -0.871449
vn -0.404165 -0.277898 -0.871449
vn 0.190002 0.944457 -0.268142
vn 0.190002 0.944457 -0.268142
vn 0.190002 0.944457 -0.268142
vn 0.750841 0.439190 -0.493306
vn 0.750841 0.439190 -0.493306
vn 0.750841 0.439190 -0.493306
vn 0.308345 0.806245 0.504870
vn 0.308345 0.806245 0.504870
vn 0.308345 0.806245 0.504870
vn -0.380233 0.870883 -0.311425
vn -0.380233 0.870883 -0.311425
vn -0.380233 0.870883 -0.311425
vn 0.281786 0.119992 -0.951945
vn 0.281786 0.119992 -0.951945
vn 0.281786 0.119992 -0.951945
vn 0.095724 -0.227978 -0.968949
vn 0.095724 -0.227978 -0.968949
vn 0.095724 -0.227978 -0.968949
vn 0.366495 0.887944 -0.277917
vn 0.366495 0.887944 -0.277917
vn 0.366495 0.887944 -0.277917
vn 0.029716 -0.902855 0.428917
vn 0.029716 -0.902855 0.428917
vn 0.029716 -0.902855 0.428917
vn 0.089065 0.519351 0.849907
vn 0.089065 0.519351 0.849907
vn 0.089065 0.519351 0.849907
vn 0.380248 0.686934 0.619300
vn 0.380248 0.686934 0.619300
vn 0.380248 0.686934 0.619300
vn 0.297361 -0.826990 -0.477141
vn 0.297361 -0.826990 -0.477141
vn 0.297361 -0.826990 -0.477141
vn -0.193660 -0.384626 -0.902529
vn -0.193660 -0.384626 -0.902529
vn -0.193660 -0.384626 -0.902529
vn -0.893843 -0.357278 0.270919
vn -0.893843 -0.357278 0.270919
vn -0.893843 -0.357278 0.270919
vn 0.288630 0.956775 -0.035697
vn 0.288630 0.956775 -0.035697
vn 0.288630 0.956775 -0.035697
vn -0.842438 0.149301 -0.517694
vn -0.842438 0.149301 -0.517694
vn -0.842438 0.149301 -0.517694
vn 0.356480 -0.828628 -0.431622
vn 0.356480 -0.828628 -0.431622
vn 0.356480 -0.828628 -0.431622
s off
g BigStone_4
usemtl pPlatonic2SG
f 13/1/1 8/2/2 7/3/3
f 11/4/4 22/5/5 25/6/6
f 24/7/7 22/5/8 11/4/9
f 9/8/10 15/9/11 16/10/12
f 2/11/13 6/12/14 7/3/15
f 6/12/16 5/13/17 7/3/18
f 7/3/19 12/14/20 3/15/21
f 9/8/22 16/10/23 8/2/24
f 16/10/25 12/14/26 8/2/27
f 16/10/28 17/16/29 12/14/30
f 23/17/31 21/18/32 19/19/33
f 5/13/34 25/6/35 10/20/36
f 6/12/37 4/21/38 11/4/39
f 2/11/40 4/21/41 6/12/42
f 22/5/43 24/7/44 23/17/45
f 24/7/46 4/21/47 18/22/48
f 18/22/49 4/21/50 2/11/51
f 13/1/52 9/8/53 8/2/54
f 26/23/55 10/20/56 25/6/57
f 13/1/58 7/3/59 5/13/60
f 13/1/61 5/13/62 10/20/63
f 26/23/64 27/24/65 10/20/66
f 13/1/67 10/20/68 27/24/69
f 9/8/70 13/1/71 27/24/72
f 5/13/73 11/4/74 25/6/75
f 11/4/76 4/21/77 24/7/78
f 16/10/79 15/9/80 14/25/81
f 14/25/82 19/19/83 16/10/84
f 16/10/85 19/19/86 17/16/87
f 3/15/88 17/16/89 19/19/90
f 17/16/91 3/15/92 12/14/93
f 24/7/94 18/22/95 1/26/96
f 2/11/97 7/3/98 18/22/99
f 25/6/100 22/5/101 23/17/102
f 21/18/103 3/15/104 19/19/105
f 20/27/106 3/15/107 21/18/108
f 18/22/109 3/15/110 1/26/111
f 21/18/112 1/26/113 20/27/114
f 19/19/115 14/25/116 23/17/117
f 26/23/118 23/17/119 14/25/120
f 24/7/121 1/26/122 21/18/123
f 9/8/124 27/24/125 15/9/126
f 8/2/127 12/14/128 7/3/129
f 7/3/130 3/15/131 18/22/132
f 15/9/133 27/24/134 14/25/135
f 23/17/136 26/23/137 25/6/138
f 6/12/139 11/4/140 5/13/141
f 20/27/142 1/26/143 3/15/144
f 23/17/145 24/7/146 21/18/147
f 14/25/148 27/24/149 26/23/150
