# This file uses meters as units for non-parametric coordinates.

mtllib Stone_4.mtl
g default
v -849.588562 -23.783363 337.226318
v -896.538025 53.089470 273.327942
v -688.642456 123.080841 199.147873
v -695.852112 87.380371 390.639587
v -640.212280 56.563828 402.914795
v -672.191589 158.372559 370.425232
v -836.025330 47.776482 347.168396
v -814.957886 94.113380 322.395325
v -554.435425 103.788658 320.072693
v -564.575195 6.225784 297.404907
v -762.519409 97.717049 292.408600
v -582.247070 21.571068 212.193832
v -735.958252 40.033962 371.990417
v -688.661560 46.127335 169.410141
v -701.957153 -0.097740 350.008026
v -750.570068 -4.692890 177.366516
v -872.253845 75.398659 245.904205
v -623.331177 -24.235252 255.917267
v -564.308533 75.641037 226.514923
v -853.336792 -24.533100 225.766312
v -641.830322 121.331779 263.158630
vt 0.392767 0.222337
vt 0.396285 0.212616
vt 0.389943 0.257035
vt 0.387587 0.194729
vt 0.383144 0.218553
vt 0.384538 0.192866
vt 0.399145 0.212547
vt 0.403722 0.194387
vt 0.404807 0.182054
vt 0.387872 0.129918
vt 0.383871 0.153655
vt 0.391787 0.154440
vt 0.400050 0.184755
vt 0.393660 0.181838
vt 0.400905 0.138216
vt 0.391091 0.213261
vt 0.393014 0.168253
vt 0.385750 0.155790
vt 0.389114 0.225867
vt 0.396819 0.134985
vt 0.402664 0.126766
vn -0.469592 0.872550 -0.134686
vn -0.469592 0.872550 -0.134686
vn -0.469592 0.872550 -0.134685
vn 0.511334 0.402864 0.759104
vn 0.511334 0.402864 0.759104
vn 0.511334 0.402864 0.759104
vn 0.290736 0.907338 -0.303661
vn 0.290736 0.907338 -0.303661
vn 0.290736 0.907338 -0.303661
vn -0.532707 0.822885 0.197695
vn -0.532707 0.822885 0.197695
vn -0.532707 0.822885 0.197695
vn 0.191023 -0.900507 0.390638
vn 0.191023 -0.900507 0.390638
vn 0.191023 -0.900507 0.390638
vn -0.166909 0.522810 0.835949
vn -0.166909 0.522810 0.835949
vn -0.166909 0.522810 0.835949
vn -0.159893 -0.574981 0.802391
vn -0.159893 -0.574981 0.802391
vn -0.159893 -0.574981 0.802391
vn 0.120238 -0.932792 0.339769
vn 0.120238 -0.932792 0.339769
vn 0.120238 -0.932792 0.339769
vn -0.050770 0.289118 0.955946
vn -0.050770 0.289118 0.955946
vn -0.050770 0.289118 0.955946
vn -0.283595 -0.133794 0.949565
vn -0.283595 -0.133794 0.949565
vn -0.283595 -0.133794 0.949565
vn 0.101312 -0.732962 -0.672683
vn 0.101312 -0.732962 -0.672683
vn 0.101312 -0.732962 -0.672683
vn -0.770127 0.057706 0.635275
vn -0.770127 0.057706 0.635275
vn -0.770127 0.057706 0.635275
vn 0.249708 -0.792134 0.556930
vn 0.249708 -0.792134 0.556930
vn 0.249708 -0.792134 0.556930
vn -0.730402 0.400890 0.552992
vn -0.730402 0.400890 0.552992
vn -0.730402 0.400890 0.552992
vn 0.336311 0.915469 -0.220935
vn 0.336311 0.915469 -0.220935
vn 0.336311 0.915469 -0.220935
vn -0.273866 0.886766 -0.372349
vn -0.273866 0.886766 -0.372349
vn -0.273866 0.886766 -0.372349
vn 0.949578 -0.313476 -0.005897
vn 0.949578 -0.313476 -0.005897
vn 0.949578 -0.313476 -0.005897
vn 0.582567 -0.770235 -0.259527
vn 0.582567 -0.770235 -0.259527
vn 0.582567 -0.770235 -0.259527
vn 0.416549 0.327608 -0.848033
vn 0.416549 0.327608 -0.848033
vn 0.416549 0.327608 -0.848033
vn -0.401049 0.227841 0.887270
vn -0.401049 0.227841 0.887270
vn -0.401049 0.227841 0.887270
vn -0.439313 0.096813 -0.893102
vn -0.439313 0.096813 -0.893102
vn -0.439313 0.096813 -0.893102
vn -0.614564 0.570628 0.544697
vn -0.614564 0.570628 0.544697
vn -0.614564 0.570628 0.544697
vn -0.745829 -0.006954 -0.666102
vn -0.745829 -0.006954 -0.666102
vn -0.745829 -0.006954 -0.666102
vn -0.864744 -0.501163 0.032451
vn -0.864744 -0.501163 0.032451
vn -0.864744 -0.501163 0.032451
vn -0.143255 0.980756 -0.132651
vn -0.143255 0.980756 -0.132651
vn -0.143255 0.980756 -0.132651
vn 0.738092 -0.224535 0.636242
vn 0.738092 -0.224535 0.636242
vn 0.738092 -0.224535 0.636242
vn 0.975917 -0.052218 -0.211799
vn 0.975917 -0.052218 -0.211799
vn 0.975917 -0.052218 -0.211799
vn -0.231293 0.969551 0.080465
vn -0.231293 0.969551 0.080465
vn -0.231293 0.969551 0.080465
vn 0.434096 0.882329 -0.181812
vn 0.434096 0.882329 -0.181812
vn 0.434096 0.882329 -0.181812
vn 0.270554 0.161605 -0.949044
vn 0.270554 0.161605 -0.949044
vn 0.270554 0.161605 -0.949044
vn 0.394026 0.880337 -0.264103
vn 0.394026 0.880337 -0.264103
vn 0.394026 0.880337 -0.264103
vn -0.314361 0.342254 -0.885460
vn -0.314361 0.342254 -0.885460
vn -0.314361 0.342254 -0.885460
vn -0.334364 0.265758 -0.904198
vn -0.334364 0.265758 -0.904198
vn -0.334364 0.265758 -0.904198
vn 0.368890 -0.564932 -0.738087
vn 0.368890 -0.564932 -0.738087
vn 0.368890 -0.564932 -0.738087
vn 0.001006 -0.479752 0.877404
vn 0.001006 -0.479752 0.877404
vn 0.001006 -0.479752 0.877404
vn -0.246204 -0.087443 0.965266
vn -0.246204 -0.087443 0.965266
vn -0.246204 -0.087443 0.965265
vn 0.040984 -0.952033 -0.303240
vn 0.040984 -0.952033 -0.303240
vn 0.040984 -0.952033 -0.303240
vn 0.000415 -0.999977 0.006712
vn 0.000415 -0.999977 0.006712
vn 0.000415 -0.999977 0.006712
s off
g BigStone_6
usemtl pPlatonic2SG
f 3/1/1 11/2/2 6/3/3
f 5/4/4 9/5/5 6/3/6
f 6/3/7 9/5/8 19/6/9
f 8/7/10 17/8/11 2/9/12
f 18/10/13 10/11/14 15/12/15
f 8/7/16 7/13/17 13/14/18
f 5/4/19 13/14/20 15/12/21
f 15/12/22 1/15/23 18/10/24
f 4/16/25 5/4/26 6/3/27
f 5/4/28 4/16/29 13/14/30
f 14/17/31 12/18/32 18/10/33
f 2/9/34 1/15/35 7/13/36
f 15/12/37 10/11/38 5/4/39
f 4/16/40 6/3/41 13/14/42
f 3/1/43 6/3/44 21/19/45
f 11/2/46 8/7/47 6/3/48
f 19/6/49 9/5/50 12/18/51
f 18/10/52 12/18/53 10/11/54
f 12/18/55 14/17/56 3/1/57
f 6/3/58 8/7/59 13/14/60
f 16/20/61 20/21/62 17/8/63
f 7/13/64 8/7/65 2/9/66
f 20/21/67 2/9/68 17/8/69
f 2/9/70 20/21/71 1/15/72
f 11/2/73 17/8/74 8/7/75
f 10/11/76 9/5/77 5/4/78
f 12/18/79 9/5/80 10/11/81
f 3/1/82 17/8/83 11/2/84
f 19/6/85 21/19/86 6/3/87
f 12/18/88 3/1/89 19/6/90
f 19/6/91 3/1/92 21/19/93
f 14/17/94 17/8/95 3/1/96
f 14/17/97 16/20/98 17/8/99
f 14/17/100 18/10/101 16/20/102
f 15/12/103 13/14/104 1/15/105
f 13/14/106 7/13/107 1/15/108
f 18/10/109 20/21/110 16/20/111
f 1/15/112 20/21/113 18/10/114
