<?xml version="1.0" encoding="UTF-8" ?>
<!DOCTYPE svg PUBLIC "-//W3C//DTD SVG 1.1//EN" "http://www.w3.org/Graphics/SVG/1.1/DTD/svg11.dtd">
<svg width="877pt" height="448pt" viewBox="0 0 877 448" version="1.1" xmlns="http://www.w3.org/2000/svg">
<path fill="#fefefe" d=" M 0.00 0.00 L 421.30 0.00 C 408.48 1.31 396.84 9.69 391.24 21.24 C 387.65 28.62 387.08 37.12 388.23 45.16 C 389.59 53.71 394.45 61.45 400.98 67.05 C 415.56 79.85 440.28 78.89 453.45 64.46 C 467.60 50.60 467.42 25.40 453.58 11.40 C 447.61 5.01 439.30 1.15 430.69 0.00 L 877.00 0.00 L 877.00 448.00 L 324.70 448.00 C 328.01 447.30 331.62 446.64 334.16 444.23 C 337.73 440.86 338.02 434.21 333.97 431.10 C 329.89 427.66 324.15 428.68 319.35 427.28 C 317.97 426.86 317.88 424.88 319.33 424.47 C 322.77 423.45 326.54 423.60 329.77 421.86 C 333.36 420.09 335.87 416.09 335.44 412.05 C 334.98 410.05 333.92 408.27 333.02 406.45 C 334.75 406.47 336.48 406.48 338.22 406.49 C 338.24 404.16 338.24 401.84 338.23 399.53 C 329.86 399.83 321.33 398.63 313.08 400.41 C 307.40 401.67 303.08 407.15 303.89 413.06 C 304.02 417.87 308.31 421.30 312.59 422.58 C 310.75 423.59 308.51 424.61 308.10 426.93 C 307.36 429.06 308.89 430.84 309.90 432.55 C 308.16 433.21 306.20 433.61 304.83 434.96 C 302.30 437.26 302.35 441.69 304.83 444.03 C 307.57 446.80 311.62 447.41 315.31 448.00 L 0.00 448.00 L 0.00 446.76 C 23.59 446.75 47.17 446.77 70.76 446.75 C 70.76 408.82 70.75 370.89 70.76 332.96 C 70.72 328.63 70.64 324.28 71.07 319.97 C 83.95 330.99 100.17 337.76 116.95 339.87 C 139.00 342.73 162.09 339.93 182.12 329.97 C 219.00 341.01 257.29 348.72 295.93 348.01 C 329.21 347.50 363.71 339.62 390.22 318.56 C 390.26 324.42 390.24 330.27 390.24 336.13 C 413.96 336.41 437.69 336.17 461.41 336.25 C 461.66 261.19 461.38 186.12 461.55 111.06 C 437.77 110.94 413.99 111.01 390.22 111.02 C 390.25 116.29 390.26 121.55 390.22 126.81 C 374.08 113.57 353.75 106.07 333.04 104.27 C 315.51 102.84 297.44 103.85 280.79 109.92 C 273.64 112.50 266.96 116.17 260.48 120.11 C 260.54 80.58 260.49 41.04 260.50 1.50 C 233.73 1.54 206.96 1.41 180.20 1.57 C 180.29 39.53 180.23 77.49 180.23 115.45 C 159.66 105.77 136.14 103.46 113.82 106.92 C 96.92 109.60 81.20 117.64 68.24 128.68 C 68.26 122.64 68.26 116.61 68.25 110.58 C 45.50 110.33 22.75 110.68 0.00 110.40 L 0.00 0.00 Z" />
<path fill="#262122" d=" M 421.30 0.00 L 430.69 0.00 C 439.30 1.15 447.61 5.01 453.58 11.40 C 467.42 25.40 467.60 50.60 453.45 64.46 C 440.28 78.89 415.56 79.85 400.98 67.05 C 394.45 61.45 389.59 53.71 388.23 45.16 C 387.08 37.12 387.65 28.62 391.24 21.24 C 396.84 9.69 408.48 1.31 421.30 0.00 Z" />
<path fill="#262122" d=" M 180.20 1.57 C 206.96 1.41 233.73 1.54 260.50 1.50 C 260.49 41.04 260.54 80.58 260.48 120.11 C 266.96 116.17 273.64 112.50 280.79 109.92 C 297.44 103.85 315.51 102.84 333.04 104.27 C 353.75 106.07 374.08 113.57 390.22 126.81 C 390.26 121.55 390.25 116.29 390.22 111.02 C 413.99 111.01 437.77 110.94 461.55 111.06 C 461.38 186.12 461.66 261.19 461.41 336.25 C 437.69 336.17 413.96 336.41 390.24 336.13 C 390.24 330.27 390.26 324.42 390.22 318.56 C 363.71 339.62 329.21 347.50 295.93 348.01 C 257.29 348.72 219.00 341.01 182.12 329.97 C 162.09 339.93 139.00 342.73 116.95 339.87 C 100.17 337.76 83.95 330.99 71.07 319.97 C 70.64 324.28 70.72 328.63 70.76 332.96 C 70.75 370.89 70.76 408.82 70.76 446.75 C 47.17 446.77 23.59 446.75 0.00 446.76 L 0.00 110.40 C 22.75 110.68 45.50 110.33 68.25 110.58 C 68.26 116.61 68.26 122.64 68.24 128.68 C 81.20 117.64 96.92 109.60 113.82 106.92 C 136.14 103.46 159.66 105.77 180.23 115.45 C 180.23 77.49 180.29 39.53 180.20 1.57 Z" />
<path fill="#fefefe" d=" M 190.00 11.00 C 210.33 11.00 230.67 11.00 251.00 11.00 C 251.00 54.05 251.00 97.10 251.00 140.15 C 257.65 134.72 264.12 128.94 271.70 124.81 C 290.73 113.87 313.57 111.75 335.04 114.20 C 353.89 116.25 372.40 123.61 386.45 136.53 C 404.96 153.00 415.52 176.86 418.92 201.11 C 422.35 225.68 421.57 251.66 411.72 274.75 C 402.15 297.34 383.06 315.12 360.86 325.10 C 335.94 336.36 308.05 339.22 280.98 338.20 C 251.41 337.11 222.22 331.24 193.77 323.33 C 196.08 320.76 199.07 318.97 201.59 316.65 C 222.18 298.82 234.66 272.83 238.09 246.01 C 241.29 220.53 239.66 193.90 229.93 169.92 C 221.91 150.08 207.80 132.88 190.10 120.90 C 189.86 84.28 190.07 47.63 190.00 11.00 Z" />
<path fill="#262122" d=" M 250.98 176.81 C 262.19 167.24 276.13 160.31 291.01 159.44 C 306.58 158.56 323.08 162.52 334.87 173.17 C 347.70 184.39 354.03 201.39 355.16 218.09 C 356.52 236.01 353.93 255.22 343.25 270.17 C 335.43 281.31 323.34 289.29 310.00 292.03 C 295.10 295.13 278.99 293.74 265.43 286.53 C 260.23 283.89 255.54 280.41 251.03 276.75 C 250.95 243.44 251.05 210.12 250.98 176.81 Z" />
<path fill="#fefefe" d=" M 98.62 161.74 C 112.24 159.03 127.27 160.22 139.20 167.83 C 153.45 176.73 162.16 192.74 164.36 209.15 C 166.29 223.85 165.68 239.33 159.93 253.18 C 154.59 266.12 143.85 276.95 130.51 281.49 C 114.98 286.71 97.28 285.85 82.68 278.23 C 78.61 276.08 74.39 273.96 70.99 270.81 C 70.64 269.23 70.76 267.60 70.73 266.00 C 70.90 235.43 70.52 204.84 70.92 174.29 C 79.17 168.31 88.63 163.87 98.62 161.74 Z" />
<path fill="#fefefe" d=" M 271.01 174.99 C 281.94 169.08 294.90 167.65 306.99 170.13 C 320.41 172.39 332.33 181.38 338.57 193.43 C 345.27 206.13 346.58 220.95 345.42 235.06 C 344.28 248.20 339.62 261.61 329.86 270.84 C 319.07 281.71 302.74 285.32 287.91 283.52 C 277.88 282.40 268.54 277.92 260.53 271.93 C 260.52 241.95 260.40 211.96 260.59 181.99 C 263.31 178.81 267.42 177.06 271.01 174.99 Z" />
<path fill="#262122" d=" M 247.09 387.22 C 250.20 385.94 254.08 388.59 253.80 391.98 C 253.85 395.58 249.03 398.28 246.12 395.85 C 242.79 393.90 243.61 388.54 247.09 387.22 Z" />
<path fill="#262122" d=" M 574.70 389.70 C 578.90 386.28 584.68 386.80 589.71 387.39 C 589.75 390.18 589.75 392.98 589.80 395.78 C 587.62 395.65 585.20 394.64 583.22 395.98 C 581.43 397.11 581.70 399.41 581.34 401.21 C 583.39 401.23 585.45 401.25 587.51 401.28 C 587.50 403.81 587.51 406.34 587.58 408.88 C 585.55 408.95 583.52 408.99 581.51 409.05 C 581.47 416.87 581.56 424.70 581.46 432.52 C 577.57 432.50 573.68 432.52 569.79 432.47 C 569.71 424.67 569.74 416.87 569.78 409.07 C 567.99 409.00 566.21 408.97 564.43 408.89 C 564.48 406.34 564.49 403.79 564.49 401.25 C 566.17 401.25 567.85 401.26 569.55 401.29 C 570.11 397.09 570.88 392.24 574.70 389.70 Z" />
<path fill="#262122" d=" M 199.54 432.52 C 199.47 417.51 199.48 402.50 199.53 387.48 C 203.42 387.50 207.31 387.48 211.20 387.53 C 211.33 396.17 211.18 404.82 211.28 413.46 C 215.65 409.21 218.65 403.74 223.12 399.61 C 227.60 399.31 232.10 399.57 236.58 399.51 C 232.66 404.87 227.92 409.58 224.04 414.95 C 228.71 420.91 233.87 426.49 238.54 432.47 C 233.71 432.53 228.88 432.49 224.05 432.51 C 219.68 427.38 215.59 422.03 211.24 416.89 C 211.23 422.08 211.30 427.28 211.20 432.47 C 207.31 432.52 203.43 432.50 199.54 432.52 Z" />
<path fill="#262122" d=" M 106.38 403.88 C 110.66 399.82 116.82 397.64 122.59 399.59 C 125.46 400.27 127.10 402.84 128.95 404.88 C 132.42 401.98 136.15 398.64 141.03 398.96 C 146.71 398.19 152.50 402.22 153.17 408.03 C 153.94 416.14 153.30 424.35 153.50 432.50 C 149.66 432.50 145.83 432.50 142.00 432.50 C 141.96 426.64 142.07 420.79 141.96 414.94 C 141.87 412.43 141.43 409.40 138.96 408.11 C 135.19 407.00 131.70 409.75 130.17 412.99 C 129.72 419.50 130.23 426.06 129.90 432.58 C 126.02 432.47 122.14 432.48 118.27 432.53 C 118.18 426.37 118.30 420.22 118.23 414.07 C 118.19 411.97 117.86 409.25 115.65 408.33 C 111.82 406.75 107.82 409.97 106.58 413.43 C 106.35 419.78 106.59 426.14 106.50 432.50 C 102.60 432.50 98.71 432.51 94.81 432.48 C 94.71 421.49 94.72 410.51 94.81 399.52 C 98.72 399.48 102.63 399.49 106.54 399.50 C 106.49 400.96 106.44 402.42 106.38 403.88 Z" />
<path fill="#262122" d=" M 160.27 403.14 C 166.73 399.23 174.61 398.01 181.98 399.56 C 185.62 400.43 189.17 403.01 189.87 406.89 C 190.73 412.57 189.90 418.33 190.36 424.03 C 190.37 426.65 193.29 425.07 194.83 425.10 C 194.78 427.02 194.75 428.95 194.75 430.89 C 189.79 432.62 182.38 435.40 178.86 429.90 C 174.61 433.06 168.79 434.04 163.81 432.17 C 158.53 430.24 157.34 422.20 161.73 418.74 C 166.29 414.59 172.76 413.73 178.41 411.76 C 178.31 409.84 178.28 407.14 175.90 406.67 C 170.02 405.16 164.52 408.52 160.13 412.05 C 160.25 409.08 160.26 406.11 160.27 403.14 Z" />
<path fill="#262122" d=" M 274.46 403.96 C 277.84 400.79 282.25 398.40 287.03 398.96 C 292.60 398.75 297.23 403.48 297.67 408.90 C 298.35 416.75 297.91 424.68 297.91 432.57 C 294.03 432.47 290.15 432.48 286.27 432.53 C 286.18 426.37 286.31 420.20 286.23 414.04 C 286.17 411.98 285.88 409.29 283.71 408.37 C 279.93 406.77 275.77 409.82 274.59 413.35 C 274.34 419.72 274.59 426.11 274.50 432.50 C 270.60 432.50 266.70 432.51 262.81 432.48 C 262.71 421.50 262.73 410.51 262.79 399.54 C 266.70 399.48 270.62 399.48 274.53 399.52 C 274.50 400.98 274.47 402.47 274.46 403.96 Z" />
<path fill="#262122" d=" M 366.76 400.79 C 372.77 397.52 379.93 399.11 386.06 401.18 C 386.26 403.86 386.27 406.55 386.24 409.25 C 382.74 407.59 378.86 405.60 374.90 406.59 C 372.97 407.02 372.64 409.62 374.44 410.44 C 378.32 412.60 382.97 413.57 386.08 416.97 C 389.84 421.46 388.11 429.34 382.58 431.56 C 376.07 434.51 368.61 432.73 362.11 430.65 C 361.97 427.82 361.99 425.00 362.00 422.18 C 366.11 424.65 371.22 426.98 375.97 424.85 C 376.67 423.42 376.32 421.81 374.82 421.13 C 370.73 418.68 365.42 417.57 362.79 413.24 C 359.95 408.97 362.37 402.91 366.76 400.79 Z" />
<path fill="#262122" d=" M 394.28 399.46 C 398.07 399.51 401.87 399.51 405.67 399.46 C 405.71 400.16 405.79 401.56 405.83 402.26 C 411.67 397.31 421.31 397.89 426.29 403.78 C 431.77 409.65 431.59 419.27 427.81 426.00 C 423.58 433.62 412.59 435.14 405.64 430.48 C 405.87 435.97 405.71 441.47 405.76 446.97 C 401.91 447.05 398.07 447.08 394.23 446.98 C 394.28 431.14 394.18 415.30 394.28 399.46 Z" />
<path fill="#262122" d=" M 436.26 403.15 C 442.70 399.23 450.57 398.01 457.93 399.55 C 461.59 400.41 465.17 403.00 465.88 406.90 C 466.87 413.14 465.58 419.51 466.71 425.74 C 468.07 425.50 469.44 425.27 470.81 425.03 C 470.77 426.98 470.75 428.94 470.75 430.90 C 465.79 432.61 458.39 435.41 454.87 429.90 C 451.96 431.84 448.65 433.34 445.07 433.05 C 441.00 433.39 436.25 431.33 435.34 426.98 C 433.82 422.38 437.24 418.05 441.25 416.24 C 445.50 414.39 449.96 413.04 454.41 411.77 C 454.31 409.84 454.29 407.15 451.91 406.67 C 446.02 405.16 440.52 408.52 436.12 412.05 C 436.25 409.08 436.26 406.12 436.26 403.15 Z" />
<path fill="#262122" d=" M 479.02 402.79 C 485.57 397.75 494.82 398.14 502.26 400.81 C 502.24 403.82 502.24 406.83 502.28 409.84 C 498.06 408.87 493.34 407.16 489.16 409.14 C 483.67 411.80 484.28 420.95 489.88 423.12 C 494.14 424.76 498.59 422.82 502.76 421.87 C 502.75 424.90 502.75 427.94 502.78 430.98 C 495.18 433.79 485.71 434.39 479.02 429.10 C 471.29 422.60 471.11 409.21 479.02 402.79 Z" />
<path fill="#262122" d=" M 514.58 401.66 C 521.99 397.58 532.86 397.55 538.63 404.49 C 542.00 408.38 542.64 413.82 542.10 418.77 C 534.40 418.75 526.70 418.76 519.01 418.76 C 519.95 421.95 522.47 424.61 525.78 425.29 C 531.19 426.43 536.61 424.45 541.54 422.38 C 541.50 424.84 541.49 427.31 541.42 429.78 C 533.64 433.33 524.23 434.53 516.22 431.11 C 504.78 426.24 503.89 407.81 514.58 401.66 Z" />
<path fill="#262122" d=" M 603.49 399.60 C 610.06 398.28 617.63 398.59 623.06 402.97 C 629.99 408.78 630.43 420.16 624.91 427.06 C 621.06 431.62 614.75 433.26 608.99 433.04 C 603.74 433.05 598.19 431.29 594.73 427.17 C 590.90 422.84 590.17 416.53 591.44 411.07 C 592.91 405.36 597.75 400.85 603.49 399.60 Z" />
<path fill="#262122" d=" M 634.99 399.44 C 638.67 399.52 642.35 399.51 646.04 399.44 C 646.24 402.00 646.28 404.56 646.21 407.13 C 648.18 404.19 650.06 400.78 653.57 399.47 C 657.06 398.14 660.88 399.31 663.81 401.40 C 662.22 405.09 660.81 408.85 659.70 412.72 C 657.66 411.62 655.54 410.07 653.08 410.52 C 649.36 411.02 647.49 414.85 646.47 418.04 C 645.88 422.85 646.58 427.73 646.03 432.56 C 642.34 432.48 638.64 432.48 634.96 432.55 C 634.63 421.53 634.57 410.46 634.99 399.44 Z" />
<path fill="#262122" d=" M 687.28 399.47 C 691.06 399.51 694.85 399.52 698.64 399.46 C 698.69 400.16 698.79 401.58 698.84 402.28 C 704.63 397.30 714.27 397.90 719.25 403.74 C 724.62 409.40 724.56 418.67 721.17 425.33 C 718.62 430.56 712.68 433.51 706.96 433.04 C 704.03 433.40 701.55 431.52 698.77 431.16 C 698.67 436.43 698.83 441.70 698.73 446.98 C 694.89 447.04 691.06 447.10 687.24 447.00 C 687.27 431.15 687.19 415.31 687.28 399.47 Z" />
<path fill="#262122" d=" M 735.61 401.64 C 743.00 397.60 753.80 397.56 759.57 404.43 C 762.99 408.32 763.65 413.80 763.09 418.78 C 755.40 418.74 747.70 418.76 740.02 418.76 C 740.94 421.95 743.49 424.62 746.81 425.30 C 752.21 426.43 757.62 424.44 762.54 422.38 C 762.50 424.84 762.49 427.30 762.43 429.77 C 754.66 433.33 745.24 434.53 737.23 431.11 C 725.77 426.25 724.89 407.77 735.61 401.64 Z" />
<path fill="#262122" d=" M 769.03 403.16 C 775.61 399.22 783.71 397.84 791.18 399.74 C 795.41 400.69 798.84 404.50 798.92 408.91 C 799.12 414.36 798.95 419.81 798.98 425.27 C 800.49 425.57 802.01 425.39 803.52 425.06 C 803.48 426.97 803.48 428.90 803.49 430.83 C 798.54 432.56 791.25 435.41 787.65 429.94 C 783.51 432.69 778.33 433.96 773.48 432.51 C 770.64 431.60 768.10 429.17 767.96 426.06 C 767.23 422.50 769.24 418.96 772.28 417.18 C 776.53 414.71 781.44 413.79 785.96 411.96 C 788.41 411.36 786.73 408.36 785.81 407.04 C 779.76 404.83 773.43 408.08 769.00 412.11 C 768.99 409.12 768.98 406.14 769.03 403.16 Z" />
<path fill="#262122" d=" M 811.34 403.22 C 817.76 397.66 827.23 398.26 834.87 400.60 C 835.03 403.71 835.01 406.83 834.99 409.95 C 830.45 408.72 825.09 406.86 820.81 409.79 C 816.35 413.12 817.54 421.32 822.85 423.19 C 827.06 424.71 831.40 422.77 835.54 421.94 C 835.49 424.93 835.49 427.93 835.56 430.92 C 828.41 433.70 819.65 434.27 812.97 430.00 C 804.34 424.14 803.41 410.06 811.34 403.22 Z" />
<path fill="#262122" d=" M 845.03 403.13 C 851.27 398.31 860.71 397.41 867.59 401.40 C 873.40 405.07 875.39 412.21 874.78 418.75 C 866.99 418.80 859.20 418.69 851.42 418.81 C 852.63 421.92 855.06 424.69 858.48 425.32 C 863.79 426.33 869.18 424.48 874.01 422.37 C 873.99 424.86 873.99 427.35 873.93 429.84 C 865.88 433.30 856.22 434.64 848.07 430.80 C 838.07 425.84 836.65 410.21 845.03 403.13 Z" />
<path fill="#262122" d=" M 243.00 399.52 C 246.94 399.46 250.87 399.46 254.81 399.58 C 254.60 410.58 254.97 421.59 254.62 432.58 C 250.75 432.48 246.87 432.50 243.00 432.50 C 243.00 421.50 243.00 410.51 243.00 399.52 Z" />
<path fill="#262122" d=" M 303.89 413.06 C 303.08 407.15 307.40 401.67 313.08 400.41 C 321.33 398.63 329.86 399.83 338.23 399.53 C 338.24 401.84 338.24 404.16 338.22 406.49 C 336.48 406.48 334.75 406.47 333.02 406.45 C 333.92 408.27 334.98 410.05 335.44 412.05 C 335.87 416.09 333.36 420.09 329.77 421.86 C 326.54 423.60 322.77 423.45 319.33 424.47 C 317.88 424.88 317.97 426.86 319.35 427.28 C 324.15 428.68 329.89 427.66 333.97 431.10 C 338.02 434.21 337.73 440.86 334.16 444.23 C 331.62 446.64 328.01 447.30 324.70 448.00 L 315.31 448.00 C 311.62 447.41 307.57 446.80 304.83 444.03 C 302.35 441.69 302.30 437.26 304.83 434.96 C 306.20 433.61 308.16 433.21 309.90 432.55 C 308.89 430.84 307.36 429.06 308.10 426.93 C 308.51 424.61 310.75 423.59 312.59 422.58 C 308.31 421.30 304.02 417.87 303.89 413.06 Z" />
<path fill="#fefefe" d=" M 518.55 412.98 C 518.55 408.66 522.60 404.82 526.96 406.29 C 530.18 406.78 531.14 410.22 531.53 412.97 C 527.20 413.01 522.87 413.01 518.55 412.98 Z" />
<path fill="#fefefe" d=" M 739.57 412.98 C 739.82 409.93 741.45 406.58 744.82 406.18 C 749.11 404.98 752.57 408.89 752.51 412.98 C 748.19 413.01 743.88 413.00 739.57 412.98 Z" />
<path fill="#fefefe" d=" M 855.44 406.47 C 857.60 405.49 859.84 406.43 861.96 407.02 C 862.90 408.93 863.67 410.92 864.23 412.99 C 859.79 412.99 855.36 413.07 850.93 412.88 C 851.54 410.28 852.60 407.32 855.44 406.47 Z" />
<path fill="#fefefe" d=" M 317.14 407.12 C 320.63 405.48 325.47 407.91 325.29 412.03 C 325.52 416.70 319.19 419.18 315.82 416.29 C 312.71 413.94 313.81 408.70 317.14 407.12 Z" />
<path fill="#fefefe" d=" M 405.91 409.97 C 408.76 407.05 414.37 406.70 416.84 410.27 C 419.03 414.49 418.90 420.78 414.84 423.84 C 411.97 425.78 408.60 424.09 405.84 422.85 C 405.79 418.56 405.54 414.25 405.91 409.97 Z" />
<path fill="#fefefe" d=" M 604.10 411.08 C 605.28 407.60 609.74 406.98 612.81 408.13 C 616.46 410.38 616.78 415.20 616.05 419.02 C 615.56 421.51 613.67 424.21 610.91 424.27 C 608.83 424.71 606.91 423.69 605.04 422.96 C 603.18 419.32 602.19 414.91 604.10 411.08 Z" />
<path fill="#fefefe" d=" M 698.96 409.92 C 701.81 407.06 707.33 406.72 709.81 410.23 C 712.03 414.46 711.92 420.80 707.82 423.86 C 704.94 425.78 701.60 424.07 698.84 422.85 C 698.82 418.54 698.48 414.21 698.96 409.92 Z" />
<path fill="#fefefe" d=" M 170.52 423.95 C 170.14 419.49 175.33 418.20 178.45 416.60 C 178.48 419.07 178.63 421.56 178.41 424.03 C 177.24 427.09 170.80 428.20 170.52 423.95 Z" />
<path fill="#fefefe" d=" M 446.51 423.92 C 446.17 419.49 451.33 418.20 454.44 416.60 C 454.48 419.06 454.64 421.53 454.40 424.00 C 453.34 427.08 446.74 428.22 446.51 423.92 Z" />
<path fill="#fefefe" d=" M 780.42 420.43 C 782.31 418.60 784.88 417.76 787.22 416.65 C 787.24 419.39 787.24 422.14 787.17 424.88 C 785.18 425.80 783.00 427.56 780.74 426.38 C 778.70 425.06 778.84 422.05 780.42 420.43 Z" />
<path fill="#fefefe" d=" M 316.47 435.53 C 319.60 435.04 322.93 434.98 325.92 436.13 C 328.36 436.85 327.96 440.93 325.65 441.56 C 322.15 442.91 317.88 442.97 314.46 441.44 C 311.50 439.91 313.25 435.15 316.47 435.53 Z" />
</svg>
