# This file uses meters as units for non-parametric coordinates.

mtllib Brief_01.mtl
g default
v 3.241577 22.791346 0.000000
v 0.375681 8.938061 23.136549
v -0.939529 10.253269 21.821341
v 0.272665 22.791346 23.136549
v -1.164955 22.629173 21.956375
v 0.287904 36.644630 23.136549
v -1.169819 35.539433 21.930914
v 0.192738 36.644630 0.000000
v -1.334976 35.583664 0.000000
v 0.287904 36.644630 -23.136549
v -1.169819 35.539433 -21.930914
v 0.272665 22.791346 -23.136549
v -1.164955 22.629173 -21.956375
v 0.375681 8.938061 -23.136549
v -0.939529 10.253269 -21.821341
v 0.178457 8.938061 0.000000
v -1.367638 9.972057 0.000000
v -4.960358 21.127378 2.086509
v -4.960358 21.127378 -2.086509
v -6.705841 21.127378 2.086509
v -6.510223 21.698563 0.000000
v -6.705841 21.127378 -2.086509
v 2.574692 10.037457 22.037153
v 1.475296 8.938061 23.136549
v 2.605927 22.791346 22.053095
v 1.490799 22.791346 23.136549
v 2.574692 35.545235 22.037153
v 1.475296 36.644630 23.136549
v 2.626328 35.571991 0.000000
v 1.500809 36.644630 0.000000
v 2.574692 35.545235 -22.037153
v 1.475296 36.644630 -23.136549
v 2.605927 22.791346 -22.053095
v 1.490799 22.791346 -23.136549
v 2.574692 10.037457 -22.037153
v 1.475296 8.938061 -23.136549
v 2.626328 10.010696 0.000000
v 1.500809 8.938061 0.000000
v 2.626328 34.319756 -10.316525
v 3.241577 28.327507 -10.316525
v 2.605927 28.327507 -20.329567
v 2.574692 34.307213 -20.322323
vt 0.489308 0.002489
vt 0.690566 0.114115
vt 0.690336 0.115119
vt 0.467491 0.002323
vt 0.489217 0.241261
vt 0.685439 0.114760
vt 0.489101 0.478530
vt 0.488288 0.462313
vt 0.467399 0.481752
vt 0.467597 0.466173
vt 0.445378 0.484671
vt 0.446596 0.467959
vt 0.445355 0.244202
vt 0.685449 0.113976
vt 0.445327 0.002190
vt 0.690532 0.125233
vt 0.466317 0.219444
vt 0.468324 0.229326
vt 0.470385 0.219200
vt 0.690343 0.125199
vt 0.690494 0.136002
vt 0.487813 0.021510
vt 0.489075 0.002584
vt 0.467323 0.002439
vt 0.467178 0.021031
vt 0.487722 0.239353
vt 0.488960 0.240226
vt 0.487615 0.456014
vt 0.488852 0.476422
vt 0.467097 0.459119
vt 0.467234 0.479398
vt 0.446330 0.461522
vt 0.445331 0.482506
vt 0.446294 0.242106
vt 0.445307 0.243139
vt 0.446291 0.021472
vt 0.445283 0.002287
vt 0.457408 0.439005
vt 0.457360 0.335641
vt 0.447939 0.337325
vt 0.447954 0.440075
vt 0.467061 0.240182
vt 0.892453 0.341750
vt 0.892453 0.122115
vt 0.892453 0.125319
vt 0.892453 0.341646
vt 0.665178 0.325843
vt 0.696170 0.316692
vt 0.702532 0.316958
vt 0.707349 0.315001
vt 0.701063 0.314742
vt 0.708425 0.308958
vt 0.690306 0.135416
vt 0.680523 0.136149
vt 0.680347 0.136790
vt 0.680213 0.125514
vt 0.680395 0.125468
vt 0.680084 0.113854
vt 0.680321 0.114917
vt 0.685937 0.124287
vt 0.684949 0.124309
vn -0.755594 -0.567901 0.326445
vn -0.955186 -0.209694 0.208919
vn -0.895700 -0.444659 -0.000000
vn -0.638306 -0.769783 -0.000000
vn -0.654176 -0.005175 0.756325
vn -0.970074 -0.009583 0.242619
vn -0.723369 0.588152 0.361682
vn -0.951070 0.243653 0.189997
vn -0.588382 0.808583 0.000000
vn -0.895775 0.444508 0.000000
vn -0.723369 0.588152 -0.361682
vn -0.951070 0.243653 -0.189997
vn -0.654176 -0.005175 -0.756325
vn -0.970074 -0.009583 -0.242619
vn -0.755594 -0.567901 -0.326445
vn -0.955186 -0.209694 -0.208919
vn -0.937010 0.349217 -0.007754
vn -0.937074 0.349131 0.000000
vn -0.937010 0.349217 0.007754
vn 0.000000 -0.809129 -0.587631
vn 0.000000 -0.885375 -0.464878
vn 0.000000 -0.898882 -0.438190
vn 0.000000 -0.898882 0.438190
vn 0.000000 -0.885375 0.464878
vn 0.000000 -0.809129 0.587631
vn -0.983754 -0.131406 0.122310
vn 0.991149 -0.132009 0.014042
vn 0.698960 -0.715159 0.001617
vn 0.698961 -0.715160 -0.000000
vn 0.994496 -0.104775 -0.000000
vn 0.702413 -0.001660 0.711768
vn 0.702413 -0.001660 0.711768
vn 0.997922 -0.000000 0.064438
vn 0.702414 -0.000000 0.711769
vn 0.989557 0.124012 0.073478
vn 0.702413 0.001660 0.711768
vn 0.698961 0.715158 0.001617
vn 0.988850 0.148332 0.013147
vn 0.698961 0.715159 0.000000
vn 0.870343 0.424582 -0.249467
vn 0.698961 0.715158 -0.001617
vn 0.702413 0.001660 -0.711768
vn 0.995209 -0.024086 -0.094756
vn 0.702414 0.000000 -0.711769
vn 0.989557 -0.124012 -0.073478
vn 0.702413 -0.001660 -0.711768
vn 0.698960 -0.715159 -0.001617
vn 0.997957 0.053910 -0.034296
vn 0.997957 0.053910 -0.034296
vn 0.997957 0.053910 -0.034296
vn 0.997957 0.053910 -0.034296
vn 0.999983 -0.003860 0.004465
vn 0.000000 0.000000 1.000000
vn 0.000000 0.000000 1.000000
vn 0.000000 0.000000 1.000000
vn 0.000000 0.000000 1.000000
vn 0.000000 1.000000 0.000000
vn 0.000000 1.000000 0.000000
vn 0.000000 1.000000 -0.000000
vn 0.000000 1.000000 -0.000000
vn 0.000000 0.000000 -1.000000
vn 0.000000 0.000000 -1.000000
vn 0.000000 0.000000 -1.000000
vn 0.000000 0.000000 -1.000000
vn 0.000000 -1.000000 0.000000
vn 0.000000 -1.000000 0.000000
vn 0.000000 -1.000000 0.000000
vn 0.000000 -1.000000 0.000000
vn 0.000000 1.000000 0.000000
vn 0.000000 1.000000 0.000000
vn 0.000000 -1.000000 -0.000000
vn 0.000000 -1.000000 -0.000000
vn 0.000000 0.000000 1.000000
vn 0.000000 0.000000 1.000000
vn 0.000000 0.000000 -1.000000
vn 0.000000 0.000000 -1.000000
vn 0.999794 0.013475 -0.015178
vn 0.998663 0.050894 0.009078
vn 0.999215 -0.023396 -0.031973
vn 0.999962 0.007934 -0.003625
vn -0.983754 -0.131406 -0.122310
s 1
g Brief
usemtl lambert3SG
f 2/2/1 3/3/2 17/6/3 16/14/4
f 3/3/2 2/2/1 4/16/5 5/20/6
f 5/20/6 4/16/5 6/21/7 7/53/8
f 7/8/8 6/7/7 8/9/9 9/10/10
f 9/10/10 8/9/9 10/11/11 11/12/12
f 11/54/12 10/55/11 12/56/13 13/57/14
f 13/57/14 12/56/13 14/58/15 15/59/16
f 15/59/16 14/58/15 16/14/4 17/6/3
f 11/12/12 22/17/17 21/18/18 9/10/10
f 9/10/10 21/18/18 20/19/19 7/8/8
s 2
f 11/47/20 19/48/21 22/49/22
f 20/50/23 18/51/24 7/52/25
f 19/48/21 18/51/24 20/50/23 22/49/22
s 1
f 18/60/26 3/3/2 5/20/6 7/53/8
f 20/19/19 21/18/18 22/17/17
s 3
f 23/22/27 24/23/28 38/24/29 37/25/30
f 24/23/31 23/22/32 25/26/33 26/27/34
f 26/27/34 25/26/33 27/28/35 28/29/36
f 28/29/37 27/28/35 29/30/38 30/31/39
f 30/31/39 29/30/38 31/32/40 32/33/41
f 32/33/42 31/32/40 33/34/43 34/35/44
f 34/35/44 33/34/43 35/36/45 36/37/46
f 36/37/47 35/36/45 37/25/30 38/24/29
s off
f 39/43/48 40/44/49 41/45/50 42/46/51
s 3
f 25/26/33 1/42/52 29/30/38 27/28/35
f 23/22/27 37/25/30 1/42/52 25/26/33
f 33/34/43 1/42/52 37/25/30 35/36/45
s 6
f 4/5/53 26/27/54 28/29/55 6/7/56
s 7
f 8/9/57 30/31/58 32/33/59 10/11/60
s 8
f 10/11/61 32/33/62 34/35/63 12/13/64
s 9
f 14/15/65 36/37/66 38/24/67 16/4/68
s 7
f 6/7/69 28/29/70 30/31/58 8/9/57
s 9
f 16/4/68 38/24/67 24/23/71 2/1/72
s 6
f 2/1/73 24/23/74 26/27/54 4/5/53
s 8
f 12/13/64 34/35/63 36/37/75 14/15/76
s 3
f 29/30/38 1/42/52 40/39/77 39/38/78
f 1/42/52 33/34/43 41/40/79 40/39/77
f 33/34/43 31/32/40 42/41/80 41/40/79
f 31/32/40 29/30/38 39/38/78 42/41/80
s 1
f 15/59/16 19/61/81 11/54/12 13/57/14
f 18/60/26 17/6/3 3/3/2
f 17/6/3 19/61/81 15/59/16
f 18/60/26 19/61/81 17/6/3
