# This file uses meters as units for non-parametric coordinates.

mtllib CaveEntrance.mtl
g default
v -83.263115 4.829185 50.000000
v 147.455963 4.829185 87.989914
v -83.263115 6.340012 50.000000
v 83.263115 104.829185 50.000000
v -83.263115 6.340012 -50.000000
v 83.263115 104.829185 -50.000000
v -83.263115 4.829185 -50.000000
v 147.455963 4.829185 -87.989914
vt 0.552864 0.077690
vt 0.555986 0.348959
vt 0.552638 0.452102
vt 0.552865 0.079813
vt 0.542719 0.450816
vt 0.542607 0.078261
vt 0.539817 0.346765
vt 0.542615 0.076139
vn -0.155295 0.258607 0.953418
vn -0.155295 0.258607 0.953418
vn -0.155295 0.258607 0.953418
vn -0.155295 0.258607 0.953418
vn -0.509064 0.860729 0.000000
vn -0.509064 0.860729 0.000000
vn -0.509064 0.860729 0.000000
vn -0.509064 0.860729 0.000000
vn -0.155295 0.258607 -0.953418
vn -0.155295 0.258607 -0.953418
vn -0.155295 0.258607 -0.953418
vn -0.155295 0.258607 -0.953418
vn 0.000000 -1.000000 0.000000
vn 0.000000 -1.000000 0.000000
vn 0.000000 -1.000000 0.000000
vn 0.000000 -1.000000 0.000000
vn 0.841534 0.540205 0.000000
vn 0.841534 0.540205 0.000000
vn 0.841534 0.540205 0.000000
vn 0.841534 0.540205 0.000000
vn -1.000000 0.000000 0.000000
vn -1.000000 0.000000 0.000000
vn -1.000000 0.000000 0.000000
vn -1.000000 0.000000 0.000000
s off
g Cave1
usemtl lambert3SG
f 1/1/1 2/2/2 4/3/3 3/4/4
f 3/4/5 4/3/6 6/5/7 5/6/8
f 5/6/9 6/5/10 8/7/11 7/8/12
f 7/8/13 8/7/14 2/2/15 1/1/16
f 2/2/17 8/7/18 6/5/19 4/3/20
f 7/8/21 1/1/22 3/4/23 5/6/24
