# This file uses meters as units for non-parametric coordinates.

mtllib Crate.mtl
g default
v 50.000004 14.376476 38.592812
v 49.999996 91.562103 -38.592812
v -50.000004 14.376480 -38.592812
v -50.000000 91.562103 38.592812
v -38.220024 14.749268 50.000000
v 38.220024 91.189316 50.000000
v -38.220024 91.189316 -50.000000
v 38.220024 14.749268 -50.000004
v -38.369671 102.969299 38.369671
v 38.369671 102.969299 -38.369671
v 49.999996 14.376480 -30.874247
v 50.000004 83.843536 38.592812
v 50.000004 91.562103 30.874247
v 49.999996 22.095041 -38.592812
v 30.576019 91.189316 -50.000000
v -38.220024 22.393274 -50.000004
v 38.220024 83.545319 -50.000000
v -30.576019 14.749268 -50.000004
v -50.000000 83.843536 -38.592808
v -49.999996 14.376480 30.874247
v -50.000000 91.562103 -30.874247
v -49.999996 22.095045 38.592808
v -30.576019 91.189316 50.000000
v 38.220024 22.393272 50.000000
v -38.220024 83.545319 50.000000
v 30.576019 14.749268 50.000000
v -30.695736 102.969299 -38.369671
v 38.369671 102.969299 30.695736
v -38.369671 102.969299 -30.695736
v 30.695736 102.969299 38.369671
v -38.369671 110.984772 -30.695736
v 30.695736 110.984772 38.369671
v 38.369671 110.984772 38.369671
v -38.369671 110.984772 -38.369671
v -54.627735 -1.658440 -54.627743
v 54.627735 -1.658443 -54.627743
v 54.627739 -1.658447 54.627739
v -54.627739 -1.658447 54.627739
v 58.015472 14.376476 -38.592812
v 58.015476 14.376480 -30.874247
v 58.015484 14.376476 38.592812
v 54.627739 107.597031 -54.627739
v 58.015476 91.562103 -38.592812
v 58.015476 22.095043 -38.592812
v 54.627739 107.597031 54.627739
v 58.015480 91.562103 38.592812
v 58.015484 91.562103 30.874247
v 58.015484 83.843536 38.592812
v -58.015472 14.376480 38.592812
v -58.015476 14.376480 30.874247
v -58.015484 14.376480 -38.592812
v -54.627739 107.597031 54.627739
v -58.015480 91.562103 38.592812
v -58.015476 22.095045 38.592808
v -54.627739 107.597031 -54.627739
v -58.015476 91.562103 -38.592812
v -58.015480 91.562103 -30.874247
v -58.015480 83.843536 -38.592808
v 38.220024 14.749268 58.015476
v 30.576021 14.749268 58.015480
v -38.220028 14.749268 58.015480
v 38.220028 91.189316 58.015480
v 38.220028 22.393272 58.015480
v -38.220024 91.189316 58.015476
v -30.576021 91.189316 58.015480
v -38.220024 83.545319 58.015480
v 38.220024 91.189316 -58.015476
v 30.576021 91.189316 -58.015480
v -38.220024 91.189316 -58.015480
v 38.220024 14.749268 -58.015484
v 38.220024 83.545319 -58.015480
v -38.220024 14.749268 -58.015480
v -30.576021 14.749268 -58.015484
v -38.220024 22.393274 -58.015484
v -38.369671 110.984772 38.369671
v 38.369671 110.984772 -38.369671
v 38.369671 110.984772 30.695734
v -30.695736 110.984772 -38.369671
vt 0.482837 0.770853
vt 0.480506 0.624995
vt 0.546691 0.711456
vt 0.529006 0.661387
vt 0.526761 0.661188
vt 0.546502 0.715425
vt 0.480750 0.752221
vt 0.464680 0.773953
vt 0.466524 0.754123
vt 0.465072 0.607202
vt 0.553996 0.939708
vt 0.532842 0.940783
vt 0.529458 0.980259
vt 0.561363 0.978013
vt 0.530985 0.913293
vt 0.530765 0.914580
vt 0.528109 0.930098
vt 0.527426 0.728952
vt 0.526914 0.755551
vt 0.530589 0.897960
vt 0.520847 0.654939
vt 0.522467 0.717021
vt 0.478739 0.613188
vt 0.469657 0.613039
vt 0.478916 0.736312
vt 0.523049 0.722064
vt 0.467976 0.779438
vt 0.523053 0.739155
vt 0.481079 0.603090
vt 0.559926 0.928654
vt 0.481447 0.779140
vt 0.559261 0.926555
vt 0.554779 0.912411
vt 0.554991 0.658055
vt 0.555731 0.719033
vt 0.559522 0.908465
vt 0.477891 0.750529
vt 0.468628 0.626331
vt 0.468459 0.750676
vt 0.465344 0.592300
vt 0.466707 0.737820
vt 0.466940 0.611163
vt 0.466840 0.584211
vt 0.479624 0.584505
vt 0.466512 0.758991
vt 0.482674 0.589963
vt 0.480653 0.609699
vt 0.483092 0.754365
vt 0.486379 0.512848
vt 0.441553 0.560213
vt 0.442415 0.511651
vt 0.489802 0.566857
vt 0.446294 0.565684
vt 0.491115 0.518420
vt 0.549541 0.730162
vt 0.551509 0.756571
vt 0.551830 0.753715
vt 0.551845 0.772596
vt 0.533038 0.934932
vt 0.535352 0.934821
vt 0.555946 0.933834
vt 0.527154 0.704195
vt 0.532473 0.912793
vt 0.551194 0.705806
vt 0.548816 0.705647
vt 0.551689 0.729555
vt 0.531683 0.763148
vt 0.533213 0.763206
vt 0.546885 0.763722
vt 0.535328 0.909499
vt 0.532057 0.778172
vt 0.550070 0.908979
vt 0.548605 0.909031
vt 0.549759 0.894827
vt 0.548991 0.663154
vt 0.530085 0.714407
vt 0.527196 0.668156
vt 0.544872 0.715324
vt 0.547069 0.728876
vt 0.529589 0.684755
vt 0.532470 0.914515
vt 0.530340 0.929996
vt 0.528633 0.755622
vt 0.532257 0.897911
vt 0.525302 0.722194
vt 0.525376 0.739269
vt 0.557165 0.926648
vt 0.553153 0.912472
vt 0.553469 0.718897
vt 0.557347 0.908541
vt 0.550106 0.753641
vt 0.550171 0.772540
vt 0.535504 0.932192
vt 0.555339 0.931267
vt 0.527631 0.710398
vt 0.532733 0.910971
vt 0.548455 0.711730
vt 0.551221 0.734691
vt 0.533051 0.760572
vt 0.547079 0.761121
vt 0.535224 0.910655
vt 0.531865 0.775934
vt 0.548837 0.910167
vt 0.550021 0.895607
vt 0.549479 0.686282
vt 0.530512 0.731505
vt 0.527767 0.690720
vt 0.545247 0.732294
vn 0.000000 0.000000 1.000000
vn 0.000000 0.000000 1.000000
vn 0.000000 0.000000 1.000000
vn 0.000000 1.000000 0.000000
vn 0.000000 1.000000 0.000000
vn 0.000000 1.000000 0.000000
vn 0.000000 1.000000 0.000000
vn 0.000000 0.000000 -1.000000
vn 0.000000 0.000000 -1.000000
vn 0.000000 0.000000 -1.000000
vn -0.000000 -1.000000 -0.000000
vn -0.000000 -1.000000 -0.000000
vn -0.000000 -1.000000 -0.000000
vn -0.000000 -1.000000 -0.000000
vn 1.000000 0.000000 -0.000000
vn 1.000000 0.000000 -0.000000
vn 1.000000 0.000000 -0.000000
vn -1.000000 0.000000 0.000000
vn -1.000000 0.000000 0.000000
vn -1.000000 0.000000 0.000000
vn 0.978402 -0.206710 -0.000000
vn 0.978402 -0.206710 -0.000000
vn 0.978402 -0.206710 -0.000000
vn 0.978402 -0.206710 -0.000000
vn 0.978402 -0.206710 -0.000000
vn 0.978402 -0.000000 -0.206709
vn 0.978402 -0.000000 -0.206709
vn 0.978402 -0.000000 -0.206709
vn 0.978402 -0.000000 -0.206709
vn 0.978402 -0.000000 -0.206709
vn 0.978402 0.206709 -0.000000
vn 0.978402 0.206709 -0.000000
vn 0.978402 0.206709 -0.000000
vn 0.978402 0.206709 -0.000000
vn 0.978402 0.206709 -0.000000
vn 0.978402 0.000000 0.206710
vn 0.978402 0.000000 0.206710
vn 0.978402 0.000000 0.206710
vn 0.978402 0.000000 0.206710
vn 0.978402 0.000000 0.206710
vn -0.978402 -0.206710 0.000000
vn -0.978402 -0.206710 0.000000
vn -0.978402 -0.206710 0.000000
vn -0.978402 -0.206710 0.000000
vn -0.978402 -0.206710 0.000000
vn -0.978402 -0.000000 0.206709
vn -0.978402 -0.000000 0.206709
vn -0.978402 -0.000000 0.206709
vn -0.978402 -0.000000 0.206709
vn -0.978402 -0.000000 0.206709
vn -0.978402 0.206709 -0.000000
vn -0.978402 0.206709 -0.000000
vn -0.978402 0.206709 -0.000000
vn -0.978402 0.206709 -0.000000
vn -0.978402 0.206709 -0.000000
vn -0.978402 0.000000 -0.206710
vn -0.978402 0.000000 -0.206710
vn -0.978402 0.000000 -0.206710
vn -0.978402 0.000000 -0.206710
vn -0.978402 0.000000 -0.206710
vn 0.000000 -0.202207 0.979343
vn 0.000000 -0.202207 0.979343
vn 0.000000 -0.202207 0.979343
vn 0.000000 -0.202207 0.979343
vn 0.000000 -0.202207 0.979343
vn 0.202207 -0.000000 0.979343
vn 0.202207 -0.000000 0.979343
vn 0.202207 -0.000000 0.979343
vn 0.202207 -0.000000 0.979343
vn 0.202207 -0.000000 0.979343
vn 0.000000 0.202207 0.979343
vn 0.000000 0.202207 0.979343
vn 0.000000 0.202207 0.979343
vn 0.000000 0.202207 0.979343
vn 0.000000 0.202207 0.979343
vn -0.202207 0.000000 0.979343
vn -0.202207 0.000000 0.979343
vn -0.202207 0.000000 0.979343
vn -0.202207 0.000000 0.979343
vn -0.202207 0.000000 0.979343
vn 0.000000 0.202207 -0.979343
vn 0.000000 0.202207 -0.979343
vn 0.000000 0.202207 -0.979343
vn 0.000000 0.202207 -0.979343
vn 0.000000 0.202207 -0.979343
vn 0.202207 0.000000 -0.979343
vn 0.202207 0.000000 -0.979343
vn 0.202207 0.000000 -0.979343
vn 0.202207 0.000000 -0.979343
vn 0.202207 0.000000 -0.979343
vn -0.000000 -0.202207 -0.979343
vn -0.000000 -0.202207 -0.979343
vn -0.000000 -0.202207 -0.979343
vn -0.000000 -0.202207 -0.979343
vn -0.000000 -0.202207 -0.979343
vn -0.202207 0.000000 -0.979343
vn -0.202207 0.000000 -0.979343
vn -0.202207 0.000000 -0.979343
vn -0.202207 0.000000 -0.979343
vn -0.202207 0.000000 -0.979343
vn 0.000000 0.978973 0.203991
vn 0.000000 0.978973 0.203991
vn 0.000000 0.978973 0.203991
vn 0.000000 0.978973 0.203991
vn 0.000000 0.978973 0.203991
vn 0.203991 0.978973 0.000000
vn 0.203991 0.978973 0.000000
vn 0.203991 0.978973 0.000000
vn 0.203991 0.978973 0.000000
vn 0.203991 0.978973 0.000000
vn 0.000000 0.978973 -0.203991
vn 0.000000 0.978973 -0.203991
vn 0.000000 0.978973 -0.203991
vn 0.000000 0.978973 -0.203991
vn 0.000000 0.978973 -0.203991
vn -0.203991 0.978973 0.000000
vn -0.203991 0.978973 0.000000
vn -0.203991 0.978973 0.000000
vn -0.203991 0.978973 0.000000
vn -0.203991 0.978973 0.000000
vn 1.000000 0.000000 -0.000000
vn 1.000000 0.000000 -0.000000
vn 1.000000 0.000000 -0.000000
vn 1.000000 0.000000 -0.000000
vn 1.000000 0.000000 -0.000000
vn 1.000000 -0.000001 0.000000
vn 1.000000 -0.000001 0.000000
vn 0.000000 -0.000000 -1.000000
vn 0.000000 -0.000000 -1.000000
vn 0.000000 0.000000 -1.000000
vn 0.000000 0.000000 -1.000000
vn 0.000000 0.000000 -1.000000
vn 0.000000 0.000000 -1.000000
vn 0.000000 0.000000 -1.000000
vn 0.000000 0.000001 -1.000000
vn 0.000000 0.000001 -1.000000
vn -1.000000 0.000001 0.000001
vn -1.000000 0.000001 0.000001
vn -1.000000 0.000000 0.000000
vn -1.000000 0.000000 0.000000
vn -1.000000 -0.000000 0.000000
vn -1.000000 -0.000000 0.000000
vn -1.000000 -0.000000 0.000000
vn -1.000000 -0.000001 -0.000000
vn -1.000000 -0.000001 -0.000000
vn 0.000001 0.000000 1.000000
vn 0.000001 0.000000 1.000000
vn -0.000000 -0.000000 1.000000
vn -0.000000 0.000000 1.000000
vn -0.000001 -0.000000 1.000000
vn -0.000001 -0.000000 1.000000
vn 0.000000 0.000000 1.000000
vn 0.000000 0.000000 1.000000
vn 0.000000 0.000000 1.000000
vn 1.000000 0.000001 -0.000001
vn 1.000000 0.000001 -0.000001
vn 0.000000 1.000000 0.000000
vn 0.000000 1.000000 0.000000
vn 0.000000 1.000000 0.000000
vn 0.000000 1.000000 0.000000
vn 0.000000 1.000000 0.000000
vn 0.000000 1.000000 0.000000
vn 0.000000 1.000000 0.000000
vn 0.000000 1.000000 0.000000
vn -0.707107 0.000000 0.707107
vn -0.707107 0.000000 0.707107
vn -0.707107 0.000000 0.707107
vn -0.707107 0.000000 0.707107
vn 0.000000 1.000000 0.000000
vn 0.000000 1.000000 0.000000
vn 0.000000 1.000000 0.000000
vn 0.000000 1.000000 0.000000
vn -0.000000 0.000000 1.000000
vn -0.000000 0.000000 1.000000
vn -0.000000 0.000000 1.000000
vn -0.000000 0.000000 1.000000
vn 0.000000 -1.000000 0.000000
vn 0.000000 -1.000000 0.000000
vn 0.000000 -1.000000 0.000000
vn 0.000000 -1.000000 0.000000
vn 0.000000 0.000000 -1.000000
vn 0.000000 0.000000 -1.000000
vn 0.000000 0.000000 -1.000000
vn 0.000000 0.000000 -1.000000
vn 0.000000 1.000000 0.000000
vn 0.000000 1.000000 0.000000
vn 0.000000 1.000000 0.000000
vn 0.000000 1.000000 0.000000
vn 0.000000 0.000000 -1.000000
vn 0.000000 0.000000 -1.000000
vn 0.000000 0.000000 -1.000000
vn 0.000000 0.000000 -1.000000
vn 0.000000 -1.000000 0.000000
vn 0.000000 -1.000000 0.000000
vn 0.000000 -1.000000 0.000000
vn 0.000000 -1.000000 0.000000
vn 0.000000 -0.000000 1.000000
vn 0.000000 -0.000000 1.000000
vn 0.000000 -0.000000 1.000000
vn 0.000000 -0.000000 1.000000
vn 0.000000 1.000000 -0.000000
vn 0.000000 1.000000 -0.000000
vn 0.000000 1.000000 -0.000000
vn 0.000000 1.000000 -0.000000
vn -1.000000 0.000000 0.000000
vn -1.000000 0.000000 0.000000
vn -1.000000 0.000000 0.000000
vn -1.000000 0.000000 0.000000
vn 0.000000 -1.000000 -0.000000
vn 0.000000 -1.000000 -0.000000
vn 0.000000 -1.000000 -0.000000
vn 0.000000 -1.000000 -0.000000
vn 1.000000 0.000000 0.000000
vn 1.000000 0.000000 0.000000
vn 1.000000 0.000000 0.000000
vn 1.000000 0.000000 0.000000
vn 0.000000 -1.000000 0.000000
vn 0.000000 -1.000000 0.000000
vn 0.000000 -1.000000 0.000000
vn 0.000000 -1.000000 0.000000
vn -1.000000 0.000000 0.000000
vn -1.000000 0.000000 0.000000
vn -1.000000 0.000000 0.000000
vn -1.000000 0.000000 0.000000
vn 0.000000 1.000000 -0.000000
vn 0.000000 1.000000 -0.000000
vn 0.000000 1.000000 -0.000000
vn 0.000000 1.000000 -0.000000
vn 1.000000 0.000000 0.000000
vn 1.000000 0.000000 0.000000
vn 1.000000 0.000000 0.000000
vn 1.000000 0.000000 0.000000
vn 0.000000 0.000000 -1.000000
vn 0.000000 0.000000 -1.000000
vn 0.000000 0.000000 -1.000000
vn 0.000000 0.000000 -1.000000
vn -1.000000 0.000000 0.000000
vn -1.000000 0.000000 0.000000
vn -1.000000 0.000000 0.000000
vn -1.000000 0.000000 0.000000
vn 0.000000 0.000000 1.000000
vn 0.000000 0.000000 1.000000
vn 0.000000 0.000000 1.000000
vn 0.000000 0.000000 1.000000
vn 1.000000 0.000000 0.000000
vn 1.000000 0.000000 0.000000
vn 1.000000 0.000000 0.000000
vn 1.000000 0.000000 0.000000
vn -0.000000 0.707107 -0.707107
vn -0.000000 0.707107 -0.707107
vn -0.000000 0.707107 -0.707107
vn -0.000000 0.707107 -0.707107
vn -0.707107 0.707107 -0.000000
vn -0.707107 0.707107 -0.000000
vn -0.707107 0.707107 -0.000000
vn -0.707107 0.707107 -0.000000
vn 0.707107 -0.707107 0.000000
vn 0.707107 -0.707107 0.000000
vn 0.707107 -0.707107 0.000000
vn 0.707107 -0.707107 0.000000
vn 0.000000 -0.707107 -0.707107
vn 0.000000 -0.707107 -0.707107
vn 0.000000 -0.707107 -0.707107
vn 0.000000 -0.707107 -0.707107
vn 0.000000 0.707107 0.707107
vn 0.000000 0.707107 0.707107
vn 0.000000 0.707107 0.707107
vn 0.000000 0.707107 0.707107
vn -0.707107 -0.707107 0.000000
vn -0.707107 -0.707107 0.000000
vn -0.707107 -0.707107 0.000000
vn -0.707107 -0.707107 0.000000
vn 0.707107 0.707107 -0.000000
vn 0.707107 0.707107 -0.000000
vn 0.707107 0.707107 -0.000000
vn 0.707107 0.707107 -0.000000
vn 0.000000 -0.707107 0.707107
vn 0.000000 -0.707107 0.707107
vn 0.000000 -0.707107 0.707107
vn 0.000000 -0.707107 0.707107
vn 0.707107 -0.000000 -0.707107
vn 0.707107 -0.000000 -0.707107
vn 0.707107 -0.000000 -0.707107
vn 0.707107 -0.000000 -0.707107
s off
g Crate
usemtl lambert3SG
f 23/1/1 24/2/2 6/7/3
s 1
f 31/3/4 32/4/5 33/5/6 34/6/7
s off
f 7/8/8 15/9/9 16/10/10
f 35/11/11 36/12/12 37/13/13 38/14/14
f 1/23/15 11/24/16 12/25/17
f 21/27/18 22/29/19 4/31/20
f 37/13/21 36/12/22 39/15/23 40/16/24 41/17/25
f 36/12/26 42/18/27 43/19/28 44/20/29 39/15/30
f 42/18/31 45/21/32 46/22/33 47/26/34 43/19/35
f 45/21/36 37/13/37 41/17/38 48/28/39 46/22/40
f 35/11/41 38/14/42 49/30/43 50/32/44 51/33/45
f 38/14/46 52/34/47 53/35/48 54/36/49 49/30/50
f 52/34/51 55/55/52 56/56/53 57/57/54 53/35/55
f 55/55/56 35/11/57 51/33/58 58/58/59 56/56/60
f 38/14/61 37/13/62 59/59/63 60/60/64 61/61/65
f 37/13/66 45/21/67 62/62/68 63/63/69 59/59/70
f 45/21/71 52/34/72 64/64/73 65/65/74 62/62/75
f 52/34/76 38/14/77 61/61/78 66/66/79 64/64/80
f 55/55/81 42/18/82 67/67/83 68/68/84 69/69/85
f 42/18/86 36/12/87 70/70/88 71/71/89 67/67/90
f 36/12/91 35/11/92 72/72/93 73/73/94 70/70/95
f 35/11/96 55/55/97 69/69/98 74/74/99 72/72/100
f 52/34/101 45/21/102 33/5/103 32/4/104 75/75/105
f 45/21/106 42/18/107 76/76/108 77/77/109 33/5/110
f 42/18/111 55/55/112 34/6/113 78/78/114 76/76/115
f 55/55/116 52/34/117 75/75/118 31/3/119 34/6/120
f 13/37/121 14/38/122 2/39/123
s 2
f 46/22/124 39/15/125 44/20/126 47/26/127
s 3
f 74/74/128 68/68/129 67/67/130 72/72/131
s off
f 18/40/132 17/41/133 8/42/134
s 3
f 72/72/131 67/67/130 71/71/135 73/73/136
s 4
f 58/58/137 50/32/138 49/30/139 56/56/140
s off
f 3/43/141 20/44/142 19/45/143
s 4
f 56/56/140 49/30/139 54/36/144 57/57/145
s 5
f 66/66/146 60/60/147 59/59/148 64/64/149
f 64/64/149 59/59/148 63/63/150 65/65/151
s off
f 5/46/152 26/47/153 25/48/154
s 2
f 48/28/155 40/16/156 39/15/125 46/22/124
s off
f 27/49/157 28/50/158 10/51/159
s 1
f 34/6/7 33/5/6 77/77/160 78/78/161
s off
f 9/52/162 30/53/163 29/54/164
f 29/79/165 30/80/166 32/4/167 31/3/168
f 11/81/169 1/82/170 41/17/171 40/16/172
f 2/83/173 14/84/174 44/20/175 43/19/176
f 13/85/177 2/83/178 43/19/179 47/26/180
f 1/82/181 12/86/182 48/28/183 41/17/184
f 20/87/185 3/88/186 51/33/187 50/32/188
f 4/89/189 22/90/190 54/36/191 53/35/192
f 21/91/193 4/89/194 53/35/195 57/57/196
f 3/88/197 19/92/198 58/58/199 51/33/200
f 26/93/201 5/94/202 61/61/203 60/60/204
f 6/95/205 24/96/206 63/63/207 62/62/208
f 23/97/209 6/95/210 62/62/211 65/65/212
f 5/94/213 25/98/214 66/66/215 61/61/216
f 15/99/217 7/100/218 69/69/219 68/68/220
f 8/101/221 17/102/222 71/71/223 70/70/224
f 18/103/225 8/101/226 70/70/227 73/73/228
f 7/100/229 16/104/230 74/74/231 69/69/232
f 30/80/233 9/105/234 75/75/235 32/4/236
f 10/106/237 28/107/238 77/77/239 76/76/240
f 27/108/241 10/106/242 76/76/243 78/78/244
f 9/105/245 29/79/246 31/3/247 75/75/248
f 14/84/249 13/85/250 47/26/251 44/20/252
f 16/104/253 15/99/254 68/68/255 74/74/256
f 17/102/257 18/103/258 73/73/259 71/71/260
f 19/92/261 20/87/262 50/32/263 58/58/264
f 22/90/265 21/91/266 57/57/267 54/36/268
f 25/98/269 26/93/270 60/60/271 66/66/272
f 24/96/273 23/97/274 65/65/275 63/63/276
f 12/86/277 11/81/278 40/16/279 48/28/280
f 28/107/281 27/108/282 78/78/283 77/77/284
