# This file uses meters as units for non-parametric coordinates.

mtllib Fence_2.mtl
g default
v 0.000000 6.081657 39.157547
v -3.209732 6.081657 42.367271
v -0.000000 6.081657 45.576996
v 3.209732 6.081657 42.367271
v 0.000000 72.770226 39.157547
v -3.209732 72.770226 42.367271
v -0.000000 72.770226 45.576996
v 3.209732 72.770226 42.367271
v 0.000000 6.081657 42.367271
v 0.000000 72.770226 42.367271
v -7.178612 27.988647 211.786011
v -1.360477 27.988647 211.786011
v -7.178612 44.569798 211.786011
v -1.360477 44.569798 211.786011
v -7.178612 44.569798 9.143623
v -1.360477 44.569798 9.143623
v -7.178612 27.988647 9.143623
v -1.360477 27.988647 9.143623
v -7.178612 52.670410 211.786011
v -1.360477 52.670410 211.786011
v -7.178612 69.251556 211.786011
v -1.360477 69.251556 211.786011
v -7.178612 69.251556 9.143623
v -1.360477 69.251556 9.143623
v -7.178612 52.670410 9.143623
v -1.360477 52.670410 9.143623
v 0.000000 6.081657 172.535843
v -3.209732 6.081657 175.745560
v -0.000000 6.081657 178.955307
v 3.209732 6.081657 175.745575
v 0.000000 72.770226 172.535843
v -3.209732 72.770226 175.745560
v -0.000000 72.770226 178.955307
v 3.209732 72.770226 175.745575
v 0.000000 6.081657 175.745575
v 0.000000 72.770226 175.745575
vt 0.484680 0.918475
vt 0.484688 0.920674
vt 0.474197 0.595774
vt 0.474263 0.595852
vt 0.484522 0.918306
vt 0.474109 0.595863
vt 0.484516 0.916141
vt 0.474176 0.595940
vt 0.484601 0.918391
vt 0.474186 0.595858
vt 0.477202 0.813743
vt 0.477144 0.811037
vt 0.474576 0.731862
vt 0.474599 0.733523
vt 0.479450 0.733937
vt 0.479540 0.735656
vt 0.482050 0.814518
vt 0.482175 0.817320
vt 0.473322 0.694155
vt 0.473315 0.693010
vt 0.470724 0.613131
vt 0.470696 0.613212
vt 0.475552 0.613082
vt 0.475589 0.613164
vt 0.478175 0.694392
vt 0.478247 0.695577
vt 0.481433 0.914998
vt 0.481417 0.917147
vt 0.471009 0.596009
vt 0.471098 0.596085
vt 0.481278 0.914833
vt 0.470947 0.596096
vt 0.481294 0.912716
vt 0.471036 0.596170
vt 0.481355 0.914915
vt 0.471023 0.596090
vn -0.707106 0.000000 -0.707108
vn -0.707106 0.000000 -0.707108
vn -0.707106 0.000000 -0.707108
vn -0.707106 0.000000 -0.707108
vn -0.707106 0.000000 0.707107
vn -0.707106 0.000000 0.707107
vn -0.707106 0.000000 0.707107
vn -0.707106 0.000000 0.707107
vn 0.707106 0.000000 0.707107
vn 0.707106 0.000000 0.707107
vn 0.707106 0.000000 0.707107
vn 0.707106 0.000000 0.707107
vn 0.707106 0.000000 -0.707108
vn 0.707106 0.000000 -0.707108
vn 0.707106 0.000000 -0.707108
vn 0.707106 0.000000 -0.707108
vn 0.000000 -1.000000 -0.000000
vn 0.000000 -1.000000 -0.000000
vn 0.000000 -1.000000 -0.000000
vn 0.000000 -1.000000 0.000000
vn 0.000000 -1.000000 0.000000
vn 0.000000 1.000000 0.000001
vn 0.000000 1.000000 0.000001
vn 0.000000 1.000000 0.000000
vn 0.000000 1.000000 -0.000000
vn 0.000000 1.000000 -0.000000
vn 0.000000 0.000000 1.000000
vn 0.000000 0.000000 1.000000
vn 0.000000 0.000000 1.000000
vn 0.000000 0.000000 1.000000
vn 0.000000 1.000000 0.000000
vn 0.000000 1.000000 0.000000
vn 0.000000 1.000000 0.000000
vn 0.000000 1.000000 0.000000
vn 0.000000 0.000000 -1.000000
vn 0.000000 0.000000 -1.000000
vn 0.000000 0.000000 -1.000000
vn 0.000000 0.000000 -1.000000
vn 0.000000 -1.000000 0.000000
vn 0.000000 -1.000000 0.000000
vn 0.000000 -1.000000 0.000000
vn 0.000000 -1.000000 0.000000
vn 1.000000 0.000000 0.000000
vn 1.000000 0.000000 0.000000
vn 1.000000 0.000000 0.000000
vn 1.000000 0.000000 0.000000
vn -1.000000 0.000000 0.000000
vn -1.000000 0.000000 0.000000
vn -1.000000 0.000000 0.000000
vn -1.000000 0.000000 0.000000
vn 0.000000 0.000000 1.000000
vn 0.000000 0.000000 1.000000
vn 0.000000 0.000000 1.000000
vn 0.000000 0.000000 1.000000
vn 0.000000 1.000000 0.000000
vn 0.000000 1.000000 0.000000
vn 0.000000 1.000000 0.000000
vn 0.000000 1.000000 0.000000
vn 0.000000 0.000000 -1.000000
vn 0.000000 0.000000 -1.000000
vn 0.000000 0.000000 -1.000000
vn 0.000000 0.000000 -1.000000
vn 0.000000 -1.000000 0.000000
vn 0.000000 -1.000000 0.000000
vn 0.000000 -1.000000 0.000000
vn 0.000000 -1.000000 0.000000
vn 1.000000 0.000000 0.000000
vn 1.000000 0.000000 0.000000
vn 1.000000 0.000000 0.000000
vn 1.000000 0.000000 0.000000
vn -1.000000 0.000000 0.000000
vn -1.000000 0.000000 0.000000
vn -1.000000 0.000000 0.000000
vn -1.000000 0.000000 0.000000
vn -0.707106 0.000000 -0.707108
vn -0.707106 0.000000 -0.707108
vn -0.707106 0.000000 -0.707108
vn -0.707106 0.000000 -0.707108
vn -0.707109 0.000000 0.707105
vn -0.707109 0.000000 0.707105
vn -0.707109 0.000000 0.707105
vn -0.707109 0.000000 0.707105
vn 0.707107 0.000000 0.707106
vn 0.707107 0.000000 0.707106
vn 0.707107 0.000000 0.707106
vn 0.707107 0.000000 0.707106
vn 0.707107 0.000000 -0.707106
vn 0.707107 0.000000 -0.707106
vn 0.707107 0.000000 -0.707106
vn 0.707107 0.000000 -0.707106
vn 0.000000 -1.000000 -0.000000
vn 0.000000 -1.000000 -0.000000
vn 0.000000 -1.000000 -0.000000
vn 0.000000 -1.000000 0.000000
vn 0.000000 -1.000000 0.000000
vn 0.000000 1.000000 0.000001
vn 0.000000 1.000000 0.000001
vn 0.000000 1.000000 0.000000
vn 0.000000 1.000000 -0.000000
vn 0.000000 1.000000 -0.000000
s off
g Fance_2
usemtl lambert3SG
f 1/1/1 2/2/2 6/3/3 5/4/4
f 2/2/5 3/5/6 7/6/7 6/3/8
f 3/5/9 4/7/10 8/8/11 7/6/12
f 4/7/13 1/1/14 5/4/15 8/8/16
s 1
f 2/2/17 1/1/18 9/9/19
f 3/5/20 2/2/17 9/9/19
f 4/7/21 3/5/20 9/9/19
f 1/1/18 4/7/21 9/9/19
s 2
f 5/4/22 6/3/23 10/10/24
f 6/3/23 7/6/25 10/10/24
f 7/6/25 8/8/26 10/10/24
f 8/8/26 5/4/22 10/10/24
s off
f 11/11/27 12/12/28 14/13/29 13/14/30
f 13/14/31 14/13/32 16/15/33 15/16/34
f 15/16/35 16/15/36 18/17/37 17/18/38
f 17/18/39 18/17/40 12/12/41 11/11/42
f 12/12/43 18/17/44 16/15/45 14/13/46
f 17/18/47 11/11/48 13/14/49 15/16/50
f 19/19/51 20/20/52 22/21/53 21/22/54
f 21/22/55 22/21/56 24/23/57 23/24/58
f 23/24/59 24/23/60 26/25/61 25/26/62
f 25/26/63 26/25/64 20/20/65 19/19/66
f 20/20/67 26/25/68 24/23/69 22/21/70
f 25/26/71 19/19/72 21/22/73 23/24/74
f 27/27/75 28/28/76 32/29/77 31/30/78
f 28/28/79 29/31/80 33/32/81 32/29/82
f 29/31/83 30/33/84 34/34/85 33/32/86
f 30/33/87 27/27/88 31/30/89 34/34/90
s 3
f 28/28/91 27/27/92 35/35/93
f 29/31/94 28/28/91 35/35/93
f 30/33/95 29/31/94 35/35/93
f 27/27/92 30/33/95 35/35/93
s 4
f 31/30/96 32/29/97 36/36/98
f 32/29/97 33/32/99 36/36/98
f 33/32/99 34/34/100 36/36/98
f 34/34/100 31/30/96 36/36/98
