# This file uses meters as units for non-parametric coordinates.

mtllib Fence_1.mtl
g default
v 0.000000 6.081657 -194.944153
v -3.209732 6.081657 -191.734436
v -0.000000 6.081657 -188.524704
v 3.209732 6.081657 -191.734436
v 0.000000 72.770226 -194.944153
v -3.209732 72.770226 -191.734436
v -0.000000 72.770226 -188.524704
v 3.209732 72.770226 -191.734436
v 0.000000 6.081657 -191.734436
v 0.000000 72.770226 -191.734436
v -7.178612 27.988647 -22.315689
v -1.360477 27.988647 -22.315689
v -7.178612 44.569798 -22.315689
v -1.360477 44.569798 -22.315689
v -7.178612 44.569798 -224.958069
v -1.360477 44.569798 -224.958069
v -7.178612 27.988647 -224.958069
v -1.360477 27.988647 -224.958069
v -7.178612 52.670410 -22.315689
v -1.360477 52.670410 -22.315689
v -7.178612 69.251556 -22.315689
v -1.360477 69.251556 -22.315689
v -7.178612 69.251556 -224.958069
v -1.360477 69.251556 -224.958069
v -7.178612 52.670410 -224.958069
v -1.360477 52.670410 -224.958069
v 0.000000 6.081657 -61.565857
v -3.209732 6.081657 -58.356140
v -0.000000 6.081657 -55.146393
v 3.209732 6.081657 -58.356125
v 0.000000 72.770226 -61.565857
v -3.209732 72.770226 -58.356140
v -0.000000 72.770226 -55.146393
v 3.209732 72.770226 -58.356125
v 0.000000 6.081657 -58.356125
v 0.000000 72.770226 -58.356125
vt 0.396789 0.534617
vt 0.397000 0.532330
vt 0.396917 0.969532
vt 0.396704 0.968684
vt 0.397290 0.534799
vt 0.397211 0.968617
vt 0.397079 0.537051
vt 0.396998 0.967782
vt 0.397040 0.534708
vt 0.396958 0.968650
vt 0.410216 0.675803
vt 0.410111 0.678162
vt 0.410131 0.784654
vt 0.410237 0.783735
vt 0.394349 0.783418
vt 0.394238 0.782465
vt 0.394377 0.674991
vt 0.394268 0.672544
vt 0.410247 0.836706
vt 0.410140 0.836916
vt 0.410160 0.944375
vt 0.410267 0.945632
vt 0.394306 0.946064
vt 0.394194 0.947368
vt 0.394335 0.836634
vt 0.394224 0.836417
vt 0.407079 0.538343
vt 0.407360 0.536110
vt 0.407407 0.968131
vt 0.407121 0.967303
vt 0.407568 0.538520
vt 0.407616 0.967237
vt 0.407287 0.540720
vt 0.407332 0.966422
vt 0.407324 0.538432
vt 0.407369 0.967270
vn -0.707106 0.000000 -0.707108
vn -0.707106 0.000000 -0.707108
vn -0.707106 0.000000 -0.707108
vn -0.707106 0.000000 -0.707108
vn -0.707107 0.000000 0.707106
vn -0.707107 0.000000 0.707106
vn -0.707107 0.000000 0.707106
vn -0.707107 0.000000 0.707106
vn 0.707107 0.000000 0.707106
vn 0.707107 0.000000 0.707106
vn 0.707107 0.000000 0.707106
vn 0.707107 0.000000 0.707106
vn 0.707106 0.000000 -0.707108
vn 0.707106 0.000000 -0.707108
vn 0.707106 0.000000 -0.707108
vn 0.707106 0.000000 -0.707108
vn 0.000000 -1.000000 -0.000000
vn 0.000000 -1.000000 -0.000000
vn 0.000000 -1.000000 -0.000000
vn 0.000000 -1.000000 0.000000
vn 0.000000 -1.000000 0.000000
vn 0.000000 1.000000 0.000001
vn 0.000000 1.000000 0.000001
vn 0.000000 1.000000 0.000000
vn 0.000000 1.000000 -0.000000
vn 0.000000 1.000000 -0.000000
vn 0.000000 0.000000 1.000000
vn 0.000000 0.000000 1.000000
vn 0.000000 0.000000 1.000000
vn 0.000000 0.000000 1.000000
vn 0.000000 1.000000 0.000000
vn 0.000000 1.000000 0.000000
vn 0.000000 1.000000 0.000000
vn 0.000000 1.000000 0.000000
vn 0.000000 0.000000 -1.000000
vn 0.000000 0.000000 -1.000000
vn 0.000000 0.000000 -1.000000
vn 0.000000 0.000000 -1.000000
vn 0.000000 -1.000000 0.000000
vn 0.000000 -1.000000 0.000000
vn 0.000000 -1.000000 0.000000
vn 0.000000 -1.000000 0.000000
vn 1.000000 0.000000 0.000000
vn 1.000000 0.000000 0.000000
vn 1.000000 0.000000 0.000000
vn 1.000000 0.000000 0.000000
vn -1.000000 0.000000 0.000000
vn -1.000000 0.000000 0.000000
vn -1.000000 0.000000 0.000000
vn -1.000000 0.000000 0.000000
vn 0.000000 0.000000 1.000000
vn 0.000000 0.000000 1.000000
vn 0.000000 0.000000 1.000000
vn 0.000000 0.000000 1.000000
vn 0.000000 1.000000 0.000000
vn 0.000000 1.000000 0.000000
vn 0.000000 1.000000 0.000000
vn 0.000000 1.000000 0.000000
vn 0.000000 0.000000 -1.000000
vn 0.000000 0.000000 -1.000000
vn 0.000000 0.000000 -1.000000
vn 0.000000 0.000000 -1.000000
vn 0.000000 -1.000000 0.000000
vn 0.000000 -1.000000 0.000000
vn 0.000000 -1.000000 0.000000
vn 0.000000 -1.000000 0.000000
vn 1.000000 0.000000 0.000000
vn 1.000000 0.000000 0.000000
vn 1.000000 0.000000 0.000000
vn 1.000000 0.000000 0.000000
vn -1.000000 0.000000 0.000000
vn -1.000000 0.000000 0.000000
vn -1.000000 0.000000 0.000000
vn -1.000000 0.000000 0.000000
vn -0.707105 0.000000 -0.707109
vn -0.707105 0.000000 -0.707109
vn -0.707105 0.000000 -0.707109
vn -0.707105 0.000000 -0.707109
vn -0.707109 0.000000 0.707105
vn -0.707109 0.000000 0.707105
vn -0.707109 0.000000 0.707105
vn -0.707109 0.000000 0.707105
vn 0.707107 0.000000 0.707107
vn 0.707107 0.000000 0.707107
vn 0.707107 0.000000 0.707107
vn 0.707107 0.000000 0.707107
vn 0.707107 0.000000 -0.707107
vn 0.707107 0.000000 -0.707107
vn 0.707107 0.000000 -0.707107
vn 0.707107 0.000000 -0.707107
vn 0.000000 -1.000000 -0.000000
vn 0.000000 -1.000000 -0.000000
vn 0.000000 -1.000000 -0.000000
vn 0.000000 -1.000000 0.000000
vn 0.000000 -1.000000 0.000000
vn 0.000000 1.000000 0.000001
vn 0.000000 1.000000 0.000001
vn 0.000000 1.000000 0.000000
vn 0.000000 1.000000 -0.000000
vn 0.000000 1.000000 -0.000000
s off
g Fance_1
usemtl lambert3SG
f 1/1/1 2/2/2 6/3/3 5/4/4
f 2/2/5 3/5/6 7/6/7 6/3/8
f 3/5/9 4/7/10 8/8/11 7/6/12
f 4/7/13 1/1/14 5/4/15 8/8/16
s 1
f 2/2/17 1/1/18 9/9/19
f 3/5/20 2/2/17 9/9/19
f 4/7/21 3/5/20 9/9/19
f 1/1/18 4/7/21 9/9/19
s 2
f 5/4/22 6/3/23 10/10/24
f 6/3/23 7/6/25 10/10/24
f 7/6/25 8/8/26 10/10/24
f 8/8/26 5/4/22 10/10/24
s off
f 11/11/27 12/12/28 14/13/29 13/14/30
f 13/14/31 14/13/32 16/15/33 15/16/34
f 15/16/35 16/15/36 18/17/37 17/18/38
f 17/18/39 18/17/40 12/12/41 11/11/42
f 12/12/43 18/17/44 16/15/45 14/13/46
f 17/18/47 11/11/48 13/14/49 15/16/50
f 19/19/51 20/20/52 22/21/53 21/22/54
f 21/22/55 22/21/56 24/23/57 23/24/58
f 23/24/59 24/23/60 26/25/61 25/26/62
f 25/26/63 26/25/64 20/20/65 19/19/66
f 20/20/67 26/25/68 24/23/69 22/21/70
f 25/26/71 19/19/72 21/22/73 23/24/74
f 27/27/75 28/28/76 32/29/77 31/30/78
f 28/28/79 29/31/80 33/32/81 32/29/82
f 29/31/83 30/33/84 34/34/85 33/32/86
f 30/33/87 27/27/88 31/30/89 34/34/90
s 3
f 28/28/91 27/27/92 35/35/93
f 29/31/94 28/28/91 35/35/93
f 30/33/95 29/31/94 35/35/93
f 27/27/92 30/33/95 35/35/93
s 4
f 31/30/96 32/29/97 36/36/98
f 32/29/97 33/32/99 36/36/98
f 33/32/99 34/34/100 36/36/98
f 34/34/100 31/30/96 36/36/98
