# This file uses meters as units for non-parametric coordinates.

mtllib Lantarn.mtl
g default
v 459.009583 161.669861 488.790710
v 475.926788 161.669861 471.873505
v 459.009583 152.341446 488.790710
v 475.926788 152.341446 471.873505
v 526.685181 161.669861 488.790710
v 509.767975 161.669861 471.873505
v 526.685181 152.341446 488.790710
v 509.767975 152.341446 471.873505
v 459.009583 152.341446 522.631897
v 475.926788 152.341446 539.549072
v 459.009583 161.669861 522.631897
v 475.926788 161.669861 539.549072
v 509.767975 152.341446 539.549072
v 526.685181 152.341446 522.631897
v 526.685181 161.669861 522.631897
v 509.767975 161.669861 539.549072
v 478.352051 152.341446 476.723572
v 463.859650 152.341446 491.215973
v 507.342712 152.341446 476.723572
v 521.835083 152.341446 491.215973
v 521.835083 152.341446 520.206604
v 507.342712 152.341446 534.699036
v 478.352051 152.341446 534.699036
v 463.859650 152.341446 520.206604
v 478.352051 161.669861 534.699036
v 463.859650 161.669861 520.206604
v 507.342712 161.669861 534.699036
v 521.835083 161.669861 520.206604
v 521.835083 161.669861 491.215973
v 507.342712 161.669861 476.723572
v 478.352051 161.669861 476.723572
v 463.859650 161.669861 491.215973
v 459.009583 85.314781 522.631897
v 475.926788 85.314781 539.549072
v 459.009583 94.643188 522.631897
v 475.926788 94.643188 539.549072
v 526.685181 85.314781 522.631897
v 509.767975 85.314781 539.549072
v 526.685181 94.643188 522.631897
v 509.767975 94.643188 539.549072
v 459.009583 94.643188 488.790710
v 475.926788 94.643188 471.873505
v 459.009583 85.314781 488.790710
v 475.926788 85.314781 471.873505
v 509.767975 94.643188 471.873505
v 526.685181 94.643188 488.790710
v 526.685181 85.314781 488.790710
v 509.767975 85.314781 471.873505
v 478.352051 94.643188 534.699036
v 463.859650 94.643188 520.206604
v 507.342712 94.643188 534.699036
v 521.835083 94.643188 520.206604
v 521.835083 94.643188 491.215973
v 507.342712 94.643188 476.723572
v 478.352051 94.643188 476.723572
v 463.859650 94.643188 491.215973
v 478.352051 85.314781 476.723572
v 463.859650 85.314781 491.215973
v 507.342712 85.314781 476.723572
v 521.835083 85.314781 491.215973
v 521.835083 85.314781 520.206604
v 507.342712 85.314781 534.699036
v 478.352051 85.314781 534.699036
v 463.859650 85.314781 520.206604
v 502.099609 85.314781 496.459076
v 483.595154 85.314781 496.459076
v 483.595154 85.314781 514.963501
v 502.099609 85.314781 514.963501
v 483.595154 0.929852 514.963501
v 502.099609 0.929852 514.963501
v 483.595154 0.929852 496.459076
v 502.099609 0.929852 496.459076
v 483.595154 11.751118 514.963501
v 483.595154 11.751118 496.459076
v 502.099609 11.751118 496.459076
v 502.099609 11.751118 514.963501
v 508.918152 11.751118 521.782043
v 476.776611 11.751118 521.782043
v 476.776611 0.929852 521.782043
v 508.918152 0.929852 521.782043
v 476.776611 11.751118 489.640533
v 476.776611 0.929852 489.640533
v 508.918152 11.751118 489.640533
v 508.918152 0.929852 489.640533
vt 0.606549 0.333553
vt 0.606541 0.354241
vt 0.621844 0.353969
vt 0.621842 0.333313
vt 0.605717 0.379747
vt 0.605726 0.356062
vt 0.623218 0.355748
vt 0.623222 0.379391
vt 0.630027 0.338248
vt 0.630035 0.359561
vt 0.631267 0.372209
vt 0.631258 0.349410
vt 0.597491 0.349996
vt 0.597476 0.372872
vt 0.598438 0.360141
vt 0.598451 0.338760
vt 0.621868 0.353950
vt 0.620825 0.334749
vt 0.627843 0.339036
vt 0.628763 0.348601
vt 0.607597 0.355834
vt 0.607028 0.377652
vt 0.621870 0.377353
vt 0.620826 0.355596
vt 0.607604 0.334958
vt 0.607036 0.354214
vt 0.600667 0.339479
vt 0.599980 0.349097
vt 0.599967 0.371854
vt 0.628771 0.371292
vt 0.627849 0.360454
vt 0.600655 0.360956
vt 0.598533 0.207147
vt 0.606595 0.206185
vt 0.600739 0.207280
vt 0.620814 0.206406
vt 0.621827 0.206141
vt 0.628717 0.208966
vt 0.631200 0.209115
vt 0.600060 0.209058
vt 0.607086 0.210003
vt 0.605783 0.210344
vt 0.605792 0.186909
vt 0.623192 0.186892
vt 0.623195 0.210286
vt 0.606603 0.185688
vt 0.621825 0.185675
vt 0.631191 0.186549
vt 0.629970 0.185943
vt 0.629978 0.207053
vt 0.598546 0.185971
vt 0.597597 0.186580
vt 0.597582 0.209224
vt 0.621851 0.209954
vt 0.627803 0.207199
vt 0.627797 0.185986
vt 0.618671 0.186084
vt 0.620812 0.185753
vt 0.607647 0.206445
vt 0.607654 0.185764
vt 0.600751 0.186010
vt 0.628710 0.186505
vt 0.621849 0.186795
vt 0.607094 0.186809
vt 0.600073 0.186532
vt 0.609951 0.186091
vt 0.618909 0.186415
vt 0.609865 0.186424
vt 0.618906 0.057996
vt 0.609899 0.057888
vt 0.609983 0.062149
vt 0.618669 0.062249
vt 0.622362 0.082334
vt 0.606487 0.082183
vt 0.606497 0.056197
vt 0.622359 0.056389
vt 0.606841 0.088006
vt 0.606850 0.063607
vt 0.621744 0.088139
vt 0.621741 0.063777
vt 0.609977 0.086860
vt 0.609892 0.083512
vt 0.618670 0.086939
vt 0.618907 0.083597
vn 0.000000 0.000000 -1.000000
vn 0.000000 0.000000 -1.000000
vn 0.000000 0.000000 -1.000000
vn 0.000000 0.000000 -1.000000
vn 0.000000 0.000000 1.000000
vn 0.000000 0.000000 1.000000
vn 0.000000 0.000000 1.000000
vn 0.000000 0.000000 1.000000
vn 1.000000 0.000000 0.000000
vn 1.000000 0.000000 0.000000
vn 1.000000 0.000000 0.000000
vn 1.000000 0.000000 0.000000
vn -1.000000 0.000000 0.000000
vn -1.000000 0.000000 0.000000
vn -1.000000 0.000000 0.000000
vn -1.000000 0.000000 0.000000
vn 0.000000 -1.000000 0.000000
vn 0.000000 -1.000000 0.000000
vn 0.000000 -1.000000 0.000000
vn 0.000000 -1.000000 0.000000
vn 0.000000 1.000000 0.000000
vn 0.000000 1.000000 0.000000
vn 0.000000 1.000000 0.000000
vn 0.000000 1.000000 0.000000
vn -0.707107 0.000000 -0.707107
vn -0.707107 0.000000 -0.707107
vn -0.707107 0.000000 -0.707107
vn -0.707107 0.000000 -0.707107
vn 0.707107 0.000000 -0.707107
vn 0.707107 0.000000 -0.707107
vn 0.707107 0.000000 -0.707107
vn 0.707107 0.000000 -0.707107
vn -0.707106 0.000000 0.707107
vn -0.707106 0.000000 0.707107
vn -0.707107 0.000000 0.707107
vn -0.707107 0.000000 0.707107
vn 0.707106 0.000000 0.707107
vn 0.707106 0.000000 0.707107
vn 0.707107 0.000000 0.707107
vn 0.707107 0.000000 0.707107
vn 0.000000 -1.000000 -0.000002
vn 0.000000 -1.000000 -0.000002
vn 0.000000 -1.000000 -0.000002
vn 0.000000 -1.000000 -0.000002
vn 0.000000 -1.000000 0.000000
vn 0.000000 -1.000000 0.000000
vn 0.000000 -1.000000 0.000000
vn 0.000000 -1.000000 0.000000
vn 0.000000 -1.000000 0.000002
vn 0.000000 -1.000000 0.000002
vn 0.000000 -1.000000 0.000002
vn 0.000000 -1.000000 0.000002
vn 0.000000 -1.000000 0.000000
vn 0.000000 -1.000000 0.000000
vn 0.000000 -1.000000 0.000000
vn 0.000000 -1.000000 0.000000
vn 0.000000 1.000000 0.000001
vn 0.000000 1.000000 0.000001
vn 0.000000 1.000000 0.000001
vn 0.000000 1.000000 0.000001
vn 0.000000 1.000000 -0.000003
vn 0.000000 1.000000 -0.000003
vn 0.000000 1.000000 -0.000003
vn 0.000000 1.000000 -0.000003
vn 0.000000 1.000000 0.000001
vn 0.000000 1.000000 0.000001
vn 0.000000 1.000000 0.000001
vn 0.000000 1.000000 0.000001
vn 0.000000 1.000000 0.000000
vn 0.000000 1.000000 0.000000
vn 0.000000 1.000000 0.000000
vn 0.000000 1.000000 0.000000
vn 0.000000 1.000000 -0.000001
vn 0.000000 1.000000 -0.000001
vn 0.000000 1.000000 -0.000001
vn 0.000000 1.000000 -0.000001
vn 0.000000 1.000000 0.000003
vn 0.000000 1.000000 0.000003
vn 0.000000 1.000000 0.000003
vn 0.000000 1.000000 0.000003
vn 0.000000 1.000000 0.000001
vn 0.000000 1.000000 0.000001
vn 0.000000 1.000000 0.000001
vn 0.000000 1.000000 0.000001
vn 0.000000 1.000000 0.000000
vn 0.000000 1.000000 0.000000
vn 0.000000 1.000000 0.000000
vn 0.000000 1.000000 0.000000
vn -0.707107 0.000000 -0.707107
vn -0.707107 0.000000 -0.707107
vn -0.447248 0.000000 0.894410
vn -0.447248 0.000000 0.894410
vn -0.447248 0.000000 0.894410
vn -0.447248 0.000000 0.894410
vn -0.894410 0.000000 -0.447248
vn -0.894410 0.000000 -0.447248
vn -0.894410 0.000000 -0.447248
vn -0.894410 0.000000 -0.447248
vn 0.447251 0.000000 -0.894409
vn 0.447251 0.000000 -0.894409
vn 0.447251 0.000000 -0.894409
vn 0.447251 0.000000 -0.894409
vn 0.707108 0.000000 -0.707106
vn 0.707108 0.000000 -0.707106
vn 0.707108 0.000000 -0.707106
vn 0.707108 0.000000 -0.707106
vn 0.894409 0.000000 0.447251
vn 0.894409 0.000000 0.447251
vn 0.894409 0.000000 0.447251
vn 0.894409 0.000000 0.447251
vn 0.000000 0.000000 1.000000
vn 0.000000 0.000000 1.000000
vn 0.000000 0.000000 1.000000
vn 0.000000 0.000000 1.000000
vn 0.000000 0.000000 -1.000000
vn 0.000000 0.000000 -1.000000
vn 0.000000 0.000000 -1.000000
vn 0.000000 0.000000 -1.000000
vn 1.000000 0.000000 0.000000
vn 1.000000 0.000000 0.000000
vn 1.000000 0.000000 0.000000
vn 1.000000 0.000000 0.000000
vn -1.000000 0.000000 0.000000
vn -1.000000 0.000000 0.000000
vn -1.000000 0.000000 0.000000
vn -1.000000 0.000000 0.000000
vn 0.000000 1.000000 0.000000
vn 0.000000 1.000000 0.000000
vn 0.000000 1.000000 0.000000
vn 0.000000 1.000000 0.000000
vn 0.000000 -1.000000 0.000000
vn 0.000000 -1.000000 -0.000000
vn 0.000000 -1.000000 -0.000000
vn -0.707106 0.000000 0.707108
vn -0.707106 0.000000 0.707108
vn -0.707106 0.000000 0.707107
vn -0.707106 0.000000 0.707107
vn 0.707106 0.000000 0.707108
vn 0.707106 0.000000 0.707108
vn 0.707106 0.000000 0.707107
vn 0.707106 0.000000 0.707107
vn -0.707107 0.000000 -0.707107
vn -0.707107 0.000000 -0.707107
vn 0.707107 0.000000 -0.707107
vn 0.707107 0.000000 -0.707107
vn 0.707107 0.000000 -0.707107
vn 0.707107 0.000000 -0.707107
vn 0.000000 1.000000 -0.000001
vn 0.000000 1.000000 -0.000001
vn 0.000000 1.000000 -0.000001
vn 0.000000 1.000000 -0.000001
vn 0.000000 1.000000 0.000000
vn 0.000000 1.000000 0.000000
vn 0.000000 1.000000 0.000000
vn 0.000000 1.000000 0.000000
vn 0.000000 1.000000 0.000001
vn 0.000000 1.000000 0.000001
vn 0.000000 1.000000 0.000001
vn 0.000000 1.000000 0.000001
vn 0.000000 1.000000 0.000000
vn 0.000000 1.000000 0.000000
vn 0.000000 1.000000 0.000000
vn 0.000000 1.000000 0.000000
vn 0.000000 -1.000000 -0.000001
vn 0.000000 -1.000000 -0.000001
vn 0.000000 -1.000000 -0.000001
vn 0.000000 -1.000000 -0.000001
vn 0.000000 -1.000000 0.000001
vn 0.000000 -1.000000 0.000001
vn 0.000000 -1.000000 0.000001
vn 0.000000 -1.000000 0.000001
vn 0.000000 -1.000000 0.000000
vn 0.000000 -1.000000 0.000000
vn 0.000000 -1.000000 0.000000
vn 0.000000 -1.000000 0.000000
vn 0.000000 -1.000000 0.000000
vn 0.000000 -1.000000 0.000000
vn 0.000000 -1.000000 0.000000
vn 0.000000 -1.000000 0.000000
vn 0.000000 -1.000000 0.000000
vn 0.000000 -1.000000 0.000000
vn 0.000000 -1.000000 0.000000
vn 0.000000 -1.000000 0.000000
vn 0.000000 -1.000000 -0.000001
vn 0.000000 -1.000000 -0.000001
vn 0.000000 -1.000000 -0.000001
vn 0.000000 -1.000000 -0.000001
vn 0.000000 -1.000000 0.000001
vn 0.000000 -1.000000 0.000001
vn 0.000000 -1.000000 0.000001
vn 0.000000 -1.000000 0.000001
vn 0.000000 -1.000000 0.000000
vn 0.000000 -1.000000 0.000000
vn 0.000000 -1.000000 0.000000
vn 0.000000 -1.000000 0.000000
vn -0.447253 0.000000 -0.894408
vn -0.447253 0.000000 -0.894408
vn -0.447253 0.000000 -0.894408
vn -0.447253 0.000000 -0.894408
vn -0.707109 0.000000 -0.707105
vn -0.707109 0.000000 -0.707105
vn -0.707109 0.000000 -0.707105
vn -0.707109 0.000000 -0.707105
vn -0.894409 0.000000 0.447251
vn -0.894409 0.000000 0.447251
vn -0.894409 0.000000 0.447251
vn -0.894409 0.000000 0.447251
vn -0.707108 0.000000 0.707106
vn -0.707108 0.000000 0.707106
vn -0.707108 0.000000 0.707106
vn -0.707108 0.000000 0.707106
vn 0.447246 0.000000 0.894411
vn 0.447246 0.000000 0.894411
vn 0.447246 0.000000 0.894411
vn 0.447246 0.000000 0.894411
vn 0.707107 0.000000 0.707106
vn 0.707107 0.000000 0.707106
vn 0.707107 0.000000 0.707106
vn 0.707107 0.000000 0.707106
vn 0.894410 0.000000 -0.447248
vn 0.894410 0.000000 -0.447248
vn 0.894410 0.000000 -0.447248
vn 0.894410 0.000000 -0.447248
vn 0.000000 1.000000 0.000000
vn 0.000000 1.000000 0.000000
vn 0.000000 1.000000 0.000000
vn 0.000000 1.000000 0.000000
vn 0.000000 -1.000000 0.000000
vn 0.000000 -1.000000 0.000000
vn 0.000000 -1.000000 0.000000
vn 0.000000 -1.000000 0.000000
vn 0.000000 -1.000000 0.000000
vn 0.000000 -1.000000 -0.000000
vn 0.000000 -1.000000 -0.000000
vn 0.000000 1.000000 0.000000
vn 0.000000 1.000000 0.000000
vn 0.000000 1.000000 0.000000
vn 0.000000 1.000000 0.000000
vn 0.000000 -1.000000 0.000000
vn 0.000000 -1.000000 0.000000
vn 0.000000 -1.000000 0.000000
vn 0.000000 -1.000000 0.000000
vn 0.000000 -1.000000 0.000000
vn 0.000000 -1.000000 0.000000
vn 0.000000 -1.000000 -0.000000
vn 0.000000 -1.000000 -0.000000
vn 0.000000 -1.000000 0.000000
vn 0.000000 -1.000000 0.000000
vn 0.000000 0.000000 1.000000
vn 0.000000 0.000000 1.000000
vn 0.000000 0.000000 1.000000
vn 0.000000 0.000000 1.000000
vn -1.000000 0.000000 0.000000
vn -1.000000 0.000000 0.000000
vn -1.000000 0.000000 0.000000
vn -1.000000 0.000000 0.000000
vn 0.000000 0.000000 -1.000000
vn 0.000000 0.000000 -1.000000
vn 0.000000 0.000000 -1.000000
vn 0.000000 0.000000 -1.000000
vn 1.000000 0.000000 0.000000
vn 1.000000 0.000000 0.000000
vn 1.000000 0.000000 0.000000
vn 1.000000 0.000000 0.000000
vn -1.000000 0.000000 0.000000
vn -1.000000 0.000000 0.000000
vn -1.000000 0.000000 0.000000
vn -1.000000 0.000000 0.000000
vn 0.000000 0.000000 -1.000000
vn 0.000000 0.000000 -1.000000
vn 0.000000 0.000000 -1.000000
vn 0.000000 0.000000 -1.000000
vn 1.000000 0.000000 0.000000
vn 1.000000 0.000000 0.000000
vn 1.000000 0.000000 0.000000
vn 1.000000 0.000000 0.000000
vn 0.000000 0.000000 1.000000
vn 0.000000 0.000000 1.000000
vn 0.000000 0.000000 1.000000
vn 0.000000 0.000000 1.000000
vn 0.000000 1.000000 -0.000000
vn 0.000000 1.000000 -0.000000
vn 0.000000 1.000000 -0.000000
vn 0.000000 1.000000 -0.000000
vn 0.000000 -1.000000 -0.000000
vn 0.000000 -1.000000 -0.000000
vn 0.000000 1.000000 0.000000
vn 0.000000 1.000000 0.000000
vn 0.000000 -1.000000 0.000000
vn 0.000000 1.000000 0.000000
vn 0.000000 1.000000 0.000000
vn 0.000000 -1.000000 0.000000
s off
g Lantarn
usemtl lambert3SG
f 4/1/1 2/2/2 6/3/3 8/4/4
f 12/5/5 10/6/6 13/7/7 16/8/8
f 7/9/9 5/10/10 15/11/11 14/12/12
f 9/13/13 11/14/14 1/15/15 3/16/16
s 1
f 22/17/17 19/18/18 20/19/19 21/20/20
s 2
f 31/21/21 25/22/22 27/23/23 30/24/24
s 3
f 1/15/25 2/2/26 4/1/27 3/16/28
s 4
f 6/3/29 5/10/30 7/9/31 8/4/32
s 5
f 9/13/33 10/6/34 12/5/35 11/14/36
s 6
f 13/7/37 14/12/38 15/11/39 16/8/40
s off
f 4/1/41 8/4/42 19/18/43 17/25/44
f 7/9/45 14/12/46 21/20/47 20/19/48
f 13/7/49 10/6/50 23/26/51 22/17/52
f 9/13/53 3/16/54 18/27/55 24/28/56
f 11/14/57 12/5/58 25/22/59 26/29/60
f 12/5/61 16/8/62 27/23/63 25/22/64
f 16/8/65 15/11/66 28/30/67 27/23/68
f 15/11/69 5/10/70 29/31/71 28/30/72
f 5/10/73 6/3/74 30/24/75 29/31/76
f 6/3/77 2/2/78 31/21/79 30/24/80
f 2/2/81 1/15/82 32/32/83 31/21/84
f 1/15/85 11/14/86 26/29/87 32/32/88
s 3
f 41/33/89 3/16/28 4/1/27 42/34/90
s off
f 56/35/91 18/27/92 3/16/93 41/33/94
f 54/36/95 19/18/96 8/4/97 45/37/98
f 52/38/99 21/20/100 14/12/101 39/39/102
f 50/40/103 24/28/104 23/26/105 49/41/106
f 49/41/107 23/26/108 10/6/109 36/42/110
f 36/42/111 34/43/112 38/44/113 40/45/114
f 44/46/115 42/34/116 45/37/117 48/47/118
f 39/39/119 37/48/120 47/49/121 46/50/122
f 41/33/123 43/51/124 33/52/125 35/53/126
s 7
f 54/36/127 51/54/128 52/38/129 53/55/130
s 8
f 60/56/131 65/57/132 59/58/133
s 5
f 33/52/134 34/43/135 36/42/136 35/53/137
s 6
f 38/44/138 37/48/139 39/39/140 40/45/141
s 3
f 41/33/89 42/34/90 44/46/142 43/51/143
s 4
f 45/37/144 46/50/145 47/49/146 48/47/147
s off
f 36/42/148 40/45/149 51/54/150 49/41/151
f 39/39/152 46/50/153 53/55/154 52/38/155
f 45/37/156 42/34/157 55/59/158 54/36/159
f 41/33/160 35/53/161 50/40/162 56/35/163
f 43/51/164 44/46/165 57/60/166 58/61/167
f 44/46/168 48/47/169 59/58/170 57/60/171
f 48/47/172 47/49/173 60/56/174 59/58/175
f 47/49/176 37/48/177 61/62/178 60/56/179
f 37/48/180 38/44/181 62/63/182 61/62/183
f 38/44/184 34/43/185 63/64/186 62/63/187
f 34/43/188 33/52/189 64/65/190 63/64/191
f 33/52/192 43/51/193 58/61/194 64/65/195
s 5
f 35/53/137 36/42/136 10/6/34 9/13/33
s off
f 50/40/196 35/53/197 9/13/198 24/28/199
f 52/38/200 51/54/201 22/17/202 21/20/203
f 51/54/204 40/45/205 13/7/206 22/17/207
f 54/36/208 53/55/209 20/19/210 19/18/211
f 53/55/212 46/50/213 7/9/214 20/19/215
f 56/35/216 55/59/217 17/25/218 18/27/219
f 55/59/220 42/34/221 4/1/222 17/25/223
s 6
f 39/39/140 14/12/38 13/7/37 40/45/141
s 4
f 45/37/144 8/4/32 7/9/31 46/50/145
s 2
f 26/29/224 25/22/22 31/21/21 32/32/225
f 30/24/24 27/23/23 28/30/226 29/31/227
s 1
f 18/27/228 17/25/229 23/26/230 24/28/231
f 23/26/230 17/25/229 19/18/18 22/17/17
s 8
f 58/61/232 57/60/233 66/66/234
f 65/57/132 66/66/234 57/60/233 59/58/133
s 7
f 50/40/235 49/41/236 55/59/237 56/35/238
f 55/59/237 49/41/236 51/54/128 54/36/127
s 8
f 62/63/239 68/67/240 61/62/241
f 63/64/242 67/68/243 68/67/240 62/63/239
f 64/65/244 67/68/243 63/64/242
f 58/61/232 66/66/234 67/68/243 64/65/244
s 10
f 70/69/245 69/70/246 71/71/247 72/72/248
s 8
f 61/62/241 68/67/240 65/57/132 60/56/131
s off
f 77/73/249 78/74/250 79/75/251 80/76/252
f 78/74/253 81/77/254 82/78/255 79/75/256
f 81/77/257 83/79/258 84/80/259 82/78/260
f 83/79/261 77/73/262 80/76/263 84/80/264
f 67/68/265 66/66/266 74/81/267 73/82/268
f 66/66/269 65/57/270 75/83/271 74/81/272
f 65/57/273 68/67/274 76/84/275 75/83/276
f 68/67/277 67/68/278 73/82/279 76/84/280
s 11
f 76/84/281 73/82/282 78/74/283 77/73/284
s 10
f 69/70/246 70/69/245 80/76/285 79/75/286
s 11
f 73/82/282 74/81/287 81/77/288 78/74/283
s 10
f 71/71/247 69/70/246 79/75/286 82/78/289
s 11
f 74/81/287 75/83/290 83/79/291 81/77/288
s 10
f 72/72/248 71/71/247 82/78/289 84/80/292
s 11
f 75/83/290 76/84/281 77/73/284 83/79/291
s 10
f 70/69/245 72/72/248 84/80/292 80/76/285
