# This file uses meters as units for non-parametric coordinates.

mtllib LantarnCandle.mtl
g default
v 504.523193 92.562546 493.856140
v 493.002563 92.562546 489.084167
v 481.481934 92.562546 493.856140
v 476.709961 92.562546 505.376801
v 481.481934 92.562546 516.897461
v 493.002563 92.562546 521.669434
v 504.523193 92.562546 516.897461
v 509.295197 92.562546 505.376801
v 502.590668 114.863701 495.788696
v 493.002563 114.863701 491.817200
v 483.414429 114.863701 495.788696
v 479.442993 114.863701 505.376801
v 483.414429 114.863701 514.964844
v 493.002563 114.863701 518.936401
v 502.590668 114.863701 514.964844
v 506.562164 114.863701 505.376801
v 493.002563 92.562546 505.376801
v 493.002563 118.552597 505.376801
vt 0.746103 0.001724
vt 0.742917 0.001776
vt 0.744787 0.108390
vt 0.747382 0.104986
vt 0.746099 0.001831
vt 0.747464 0.111906
vt 0.754212 0.001853
vt 0.754133 0.113309
vt 0.762032 0.001826
vt 0.760567 0.111623
vt 0.764581 0.001770
vt 0.762725 0.108015
vt 0.760853 0.001720
vt 0.759674 0.104737
vt 0.753377 0.001701
vt 0.753442 0.103537
vt 0.753772 0.001773
vt 0.753772 0.125704
vn 0.380250 0.112504 -0.918016
vn 0.380250 0.112504 -0.918016
vn 0.380250 0.112504 -0.918016
vn 0.380250 0.112504 -0.918016
vn -0.380249 0.112503 -0.918016
vn -0.380249 0.112503 -0.918016
vn -0.380249 0.112503 -0.918016
vn -0.380249 0.112503 -0.918016
vn -0.918016 0.112504 -0.380249
vn -0.918016 0.112504 -0.380249
vn -0.918016 0.112504 -0.380249
vn -0.918016 0.112504 -0.380249
vn -0.918015 0.112505 0.380250
vn -0.918015 0.112505 0.380250
vn -0.918015 0.112505 0.380250
vn -0.918015 0.112505 0.380250
vn -0.380256 0.112504 0.918013
vn -0.380256 0.112504 0.918013
vn -0.380256 0.112504 0.918013
vn -0.380256 0.112504 0.918013
vn 0.380256 0.112505 0.918013
vn 0.380256 0.112505 0.918013
vn 0.380256 0.112505 0.918013
vn 0.380256 0.112505 0.918013
vn 0.918014 0.112504 0.380254
vn 0.918014 0.112504 0.380254
vn 0.918014 0.112504 0.380254
vn 0.918014 0.112504 0.380254
vn 0.918015 0.112503 -0.380252
vn 0.918015 0.112503 -0.380252
vn 0.918015 0.112503 -0.380252
vn 0.918015 0.112503 -0.380252
vn 0.000000 -1.000000 0.000000
vn 0.000000 -1.000000 0.000001
vn 0.000000 -1.000000 0.000000
vn 0.000000 -1.000000 0.000000
vn 0.000000 -1.000000 0.000000
vn 0.000000 -1.000000 0.000000
vn 0.000000 -1.000000 0.000000
vn 0.000000 -1.000000 -0.000001
vn 0.000000 -1.000000 0.000000
vn 0.185623 0.964929 -0.185621
vn -0.000000 0.964929 -0.262510
vn 0.000000 1.000000 0.000000
vn -0.185623 0.964929 -0.185621
vn -0.262510 0.964929 -0.000000
vn -0.185623 0.964929 0.185622
vn -0.000000 0.964929 0.262510
vn 0.185623 0.964929 0.185622
vn 0.262510 0.964929 -0.000000
s off
g pCylinder20 LantarnCandle
usemtl lambert3SG
f 1/1/1 2/2/2 10/3/3 9/4/4
f 2/2/5 3/5/6 11/6/7 10/3/8
f 3/5/9 4/7/10 12/8/11 11/6/12
f 4/7/13 5/9/14 13/10/15 12/8/16
f 5/9/17 6/11/18 14/12/19 13/10/20
f 6/11/21 7/13/22 15/14/23 14/12/24
f 7/13/25 8/15/26 16/16/27 15/14/28
f 8/15/29 1/1/30 9/4/31 16/16/32
s 1
f 2/2/33 1/1/34 17/17/35
f 3/5/36 2/2/33 17/17/35
f 4/7/37 3/5/36 17/17/35
f 5/9/38 4/7/37 17/17/35
f 6/11/39 5/9/38 17/17/35
f 7/13/40 6/11/39 17/17/35
f 8/15/41 7/13/40 17/17/35
f 1/1/34 8/15/41 17/17/35
s 2
f 9/4/42 10/3/43 18/18/44
f 10/3/43 11/6/45 18/18/44
f 11/6/45 12/8/46 18/18/44
f 12/8/46 13/10/47 18/18/44
f 13/10/47 14/12/48 18/18/44
f 14/12/48 15/14/49 18/18/44
f 15/14/49 16/16/50 18/18/44
f 16/16/50 9/4/42 18/18/44
g default
v 459.009583 161.669861 488.790710
v 475.926788 161.669861 471.873505
v 459.009583 152.341446 488.790710
v 475.926788 152.341446 471.873505
v 526.685181 161.669861 488.790710
v 509.767975 161.669861 471.873505
v 526.685181 152.341446 488.790710
v 509.767975 152.341446 471.873505
v 459.009583 152.341446 522.631897
v 475.926788 152.341446 539.549072
v 459.009583 161.669861 522.631897
v 475.926788 161.669861 539.549072
v 509.767975 152.341446 539.549072
v 526.685181 152.341446 522.631897
v 526.685181 161.669861 522.631897
v 509.767975 161.669861 539.549072
v 478.352051 152.341446 476.723572
v 463.859650 152.341446 491.215973
v 507.342712 152.341446 476.723572
v 521.835083 152.341446 491.215973
v 521.835083 152.341446 520.206604
v 507.342712 152.341446 534.699036
v 478.352051 152.341446 534.699036
v 463.859650 152.341446 520.206604
v 478.352051 161.669861 534.699036
v 463.859650 161.669861 520.206604
v 507.342712 161.669861 534.699036
v 521.835083 161.669861 520.206604
v 521.835083 161.669861 491.215973
v 507.342712 161.669861 476.723572
v 478.352051 161.669861 476.723572
v 463.859650 161.669861 491.215973
v 459.009583 85.314781 522.631897
v 475.926788 85.314781 539.549072
v 459.009583 94.643188 522.631897
v 475.926788 94.643188 539.549072
v 526.685181 85.314781 522.631897
v 509.767975 85.314781 539.549072
v 526.685181 94.643188 522.631897
v 509.767975 94.643188 539.549072
v 459.009583 94.643188 488.790710
v 475.926788 94.643188 471.873505
v 459.009583 85.314781 488.790710
v 475.926788 85.314781 471.873505
v 509.767975 94.643188 471.873505
v 526.685181 94.643188 488.790710
v 526.685181 85.314781 488.790710
v 509.767975 85.314781 471.873505
v 478.352051 94.643188 534.699036
v 463.859650 94.643188 520.206604
v 507.342712 94.643188 534.699036
v 521.835083 94.643188 520.206604
v 521.835083 94.643188 491.215973
v 507.342712 94.643188 476.723572
v 478.352051 94.643188 476.723572
v 463.859650 94.643188 491.215973
v 478.352051 85.314781 476.723572
v 463.859650 85.314781 491.215973
v 507.342712 85.314781 476.723572
v 521.835083 85.314781 491.215973
v 521.835083 85.314781 520.206604
v 507.342712 85.314781 534.699036
v 478.352051 85.314781 534.699036
v 463.859650 85.314781 520.206604
v 502.099609 85.314781 496.459076
v 483.595154 85.314781 496.459076
v 483.595154 85.314781 514.963501
v 502.099609 85.314781 514.963501
v 483.595154 0.929852 514.963501
v 502.099609 0.929852 514.963501
v 483.595154 0.929852 496.459076
v 502.099609 0.929852 496.459076
v 483.595154 11.751118 514.963501
v 483.595154 11.751118 496.459076
v 502.099609 11.751118 496.459076
v 502.099609 11.751118 514.963501
v 508.918152 11.751118 521.782043
v 476.776611 11.751118 521.782043
v 476.776611 0.929852 521.782043
v 508.918152 0.929852 521.782043
v 476.776611 11.751118 489.640533
v 476.776611 0.929852 489.640533
v 508.918152 11.751118 489.640533
v 508.918152 0.929852 489.640533
vt 0.606549 0.333553
vt 0.606541 0.354241
vt 0.621844 0.353969
vt 0.621842 0.333313
vt 0.605717 0.379747
vt 0.605726 0.356062
vt 0.623218 0.355748
vt 0.623222 0.379391
vt 0.630027 0.338248
vt 0.630035 0.359561
vt 0.631267 0.372209
vt 0.631258 0.349410
vt 0.597491 0.349996
vt 0.597476 0.372872
vt 0.598438 0.360141
vt 0.598451 0.338760
vt 0.621868 0.353950
vt 0.620825 0.334749
vt 0.627843 0.339036
vt 0.628763 0.348601
vt 0.607597 0.355834
vt 0.607028 0.377652
vt 0.621870 0.377353
vt 0.620826 0.355596
vt 0.607604 0.334958
vt 0.607036 0.354214
vt 0.600667 0.339479
vt 0.599980 0.349097
vt 0.599967 0.371854
vt 0.628771 0.371292
vt 0.627849 0.360454
vt 0.600655 0.360956
vt 0.598533 0.207147
vt 0.606595 0.206185
vt 0.600739 0.207280
vt 0.620814 0.206406
vt 0.621827 0.206141
vt 0.628717 0.208966
vt 0.631200 0.209115
vt 0.600060 0.209058
vt 0.607086 0.210003
vt 0.605783 0.210344
vt 0.605792 0.186909
vt 0.623192 0.186892
vt 0.623195 0.210286
vt 0.606603 0.185688
vt 0.621825 0.185675
vt 0.631191 0.186549
vt 0.629970 0.185943
vt 0.629978 0.207053
vt 0.598546 0.185971
vt 0.597597 0.186580
vt 0.597582 0.209224
vt 0.621851 0.209954
vt 0.627803 0.207199
vt 0.627797 0.185986
vt 0.618671 0.186084
vt 0.620812 0.185753
vt 0.607647 0.206445
vt 0.607654 0.185764
vt 0.600751 0.186010
vt 0.628710 0.186505
vt 0.621849 0.186795
vt 0.607094 0.186809
vt 0.600073 0.186532
vt 0.609951 0.186091
vt 0.618909 0.186415
vt 0.609865 0.186424
vt 0.618906 0.057996
vt 0.609899 0.057888
vt 0.609983 0.062149
vt 0.618669 0.062249
vt 0.622362 0.082334
vt 0.606487 0.082183
vt 0.606497 0.056197
vt 0.622359 0.056389
vt 0.606841 0.088006
vt 0.606850 0.063607
vt 0.621744 0.088139
vt 0.621741 0.063777
vt 0.609977 0.086860
vt 0.609892 0.083512
vt 0.618670 0.086939
vt 0.618907 0.083597
vn 0.000000 0.000000 -1.000000
vn 0.000000 0.000000 -1.000000
vn 0.000000 0.000000 -1.000000
vn 0.000000 0.000000 -1.000000
vn 0.000000 0.000000 1.000000
vn 0.000000 0.000000 1.000000
vn 0.000000 0.000000 1.000000
vn 0.000000 0.000000 1.000000
vn 1.000000 0.000000 0.000000
vn 1.000000 0.000000 0.000000
vn 1.000000 0.000000 0.000000
vn 1.000000 0.000000 0.000000
vn -1.000000 0.000000 0.000000
vn -1.000000 0.000000 0.000000
vn -1.000000 0.000000 0.000000
vn -1.000000 0.000000 0.000000
vn 0.000000 -1.000000 0.000000
vn 0.000000 -1.000000 0.000000
vn 0.000000 -1.000000 0.000000
vn 0.000000 -1.000000 0.000000
vn 0.000000 1.000000 0.000000
vn 0.000000 1.000000 0.000000
vn 0.000000 1.000000 0.000000
vn 0.000000 1.000000 0.000000
vn -0.707107 0.000000 -0.707107
vn -0.707107 0.000000 -0.707107
vn -0.707107 0.000000 -0.707107
vn -0.707107 0.000000 -0.707107
vn 0.707107 0.000000 -0.707107
vn 0.707107 0.000000 -0.707107
vn 0.707107 0.000000 -0.707107
vn 0.707107 0.000000 -0.707107
vn -0.707106 0.000000 0.707107
vn -0.707106 0.000000 0.707107
vn -0.707107 0.000000 0.707107
vn -0.707107 0.000000 0.707107
vn 0.707106 0.000000 0.707107
vn 0.707106 0.000000 0.707107
vn 0.707107 0.000000 0.707107
vn 0.707107 0.000000 0.707107
vn 0.000000 -1.000000 -0.000002
vn 0.000000 -1.000000 -0.000002
vn 0.000000 -1.000000 -0.000002
vn 0.000000 -1.000000 -0.000002
vn 0.000000 -1.000000 0.000000
vn 0.000000 -1.000000 0.000000
vn 0.000000 -1.000000 0.000000
vn 0.000000 -1.000000 0.000000
vn 0.000000 -1.000000 0.000002
vn 0.000000 -1.000000 0.000002
vn 0.000000 -1.000000 0.000002
vn 0.000000 -1.000000 0.000002
vn 0.000000 -1.000000 0.000000
vn 0.000000 -1.000000 0.000000
vn 0.000000 -1.000000 0.000000
vn 0.000000 -1.000000 0.000000
vn 0.000000 1.000000 0.000001
vn 0.000000 1.000000 0.000001
vn 0.000000 1.000000 0.000001
vn 0.000000 1.000000 0.000001
vn 0.000000 1.000000 -0.000003
vn 0.000000 1.000000 -0.000003
vn 0.000000 1.000000 -0.000003
vn 0.000000 1.000000 -0.000003
vn 0.000000 1.000000 0.000001
vn 0.000000 1.000000 0.000001
vn 0.000000 1.000000 0.000001
vn 0.000000 1.000000 0.000001
vn 0.000000 1.000000 0.000000
vn 0.000000 1.000000 0.000000
vn 0.000000 1.000000 0.000000
vn 0.000000 1.000000 0.000000
vn 0.000000 1.000000 -0.000001
vn 0.000000 1.000000 -0.000001
vn 0.000000 1.000000 -0.000001
vn 0.000000 1.000000 -0.000001
vn 0.000000 1.000000 0.000003
vn 0.000000 1.000000 0.000003
vn 0.000000 1.000000 0.000003
vn 0.000000 1.000000 0.000003
vn 0.000000 1.000000 0.000001
vn 0.000000 1.000000 0.000001
vn 0.000000 1.000000 0.000001
vn 0.000000 1.000000 0.000001
vn 0.000000 1.000000 0.000000
vn 0.000000 1.000000 0.000000
vn 0.000000 1.000000 0.000000
vn 0.000000 1.000000 0.000000
vn -0.707107 0.000000 -0.707107
vn -0.707107 0.000000 -0.707107
vn -0.447248 0.000000 0.894410
vn -0.447248 0.000000 0.894410
vn -0.447248 0.000000 0.894410
vn -0.447248 0.000000 0.894410
vn -0.894410 0.000000 -0.447248
vn -0.894410 0.000000 -0.447248
vn -0.894410 0.000000 -0.447248
vn -0.894410 0.000000 -0.447248
vn 0.447251 0.000000 -0.894409
vn 0.447251 0.000000 -0.894409
vn 0.447251 0.000000 -0.894409
vn 0.447251 0.000000 -0.894409
vn 0.707108 0.000000 -0.707106
vn 0.707108 0.000000 -0.707106
vn 0.707108 0.000000 -0.707106
vn 0.707108 0.000000 -0.707106
vn 0.894409 0.000000 0.447251
vn 0.894409 0.000000 0.447251
vn 0.894409 0.000000 0.447251
vn 0.894409 0.000000 0.447251
vn 0.000000 0.000000 1.000000
vn 0.000000 0.000000 1.000000
vn 0.000000 0.000000 1.000000
vn 0.000000 0.000000 1.000000
vn 0.000000 0.000000 -1.000000
vn 0.000000 0.000000 -1.000000
vn 0.000000 0.000000 -1.000000
vn 0.000000 0.000000 -1.000000
vn 1.000000 0.000000 0.000000
vn 1.000000 0.000000 0.000000
vn 1.000000 0.000000 0.000000
vn 1.000000 0.000000 0.000000
vn -1.000000 0.000000 0.000000
vn -1.000000 0.000000 0.000000
vn -1.000000 0.000000 0.000000
vn -1.000000 0.000000 0.000000
vn 0.000000 1.000000 0.000000
vn 0.000000 1.000000 0.000000
vn 0.000000 1.000000 0.000000
vn 0.000000 1.000000 0.000000
vn 0.000000 -1.000000 0.000000
vn 0.000000 -1.000000 -0.000000
vn 0.000000 -1.000000 -0.000000
vn -0.707106 0.000000 0.707108
vn -0.707106 0.000000 0.707108
vn -0.707106 0.000000 0.707107
vn -0.707106 0.000000 0.707107
vn 0.707106 0.000000 0.707108
vn 0.707106 0.000000 0.707108
vn 0.707106 0.000000 0.707107
vn 0.707106 0.000000 0.707107
vn -0.707107 0.000000 -0.707107
vn -0.707107 0.000000 -0.707107
vn 0.707107 0.000000 -0.707107
vn 0.707107 0.000000 -0.707107
vn 0.707107 0.000000 -0.707107
vn 0.707107 0.000000 -0.707107
vn 0.000000 1.000000 -0.000001
vn 0.000000 1.000000 -0.000001
vn 0.000000 1.000000 -0.000001
vn 0.000000 1.000000 -0.000001
vn 0.000000 1.000000 0.000000
vn 0.000000 1.000000 0.000000
vn 0.000000 1.000000 0.000000
vn 0.000000 1.000000 0.000000
vn 0.000000 1.000000 0.000001
vn 0.000000 1.000000 0.000001
vn 0.000000 1.000000 0.000001
vn 0.000000 1.000000 0.000001
vn 0.000000 1.000000 0.000000
vn 0.000000 1.000000 0.000000
vn 0.000000 1.000000 0.000000
vn 0.000000 1.000000 0.000000
vn 0.000000 -1.000000 -0.000001
vn 0.000000 -1.000000 -0.000001
vn 0.000000 -1.000000 -0.000001
vn 0.000000 -1.000000 -0.000001
vn 0.000000 -1.000000 0.000001
vn 0.000000 -1.000000 0.000001
vn 0.000000 -1.000000 0.000001
vn 0.000000 -1.000000 0.000001
vn 0.000000 -1.000000 0.000000
vn 0.000000 -1.000000 0.000000
vn 0.000000 -1.000000 0.000000
vn 0.000000 -1.000000 0.000000
vn 0.000000 -1.000000 0.000000
vn 0.000000 -1.000000 0.000000
vn 0.000000 -1.000000 0.000000
vn 0.000000 -1.000000 0.000000
vn 0.000000 -1.000000 0.000000
vn 0.000000 -1.000000 0.000000
vn 0.000000 -1.000000 0.000000
vn 0.000000 -1.000000 0.000000
vn 0.000000 -1.000000 -0.000001
vn 0.000000 -1.000000 -0.000001
vn 0.000000 -1.000000 -0.000001
vn 0.000000 -1.000000 -0.000001
vn 0.000000 -1.000000 0.000001
vn 0.000000 -1.000000 0.000001
vn 0.000000 -1.000000 0.000001
vn 0.000000 -1.000000 0.000001
vn 0.000000 -1.000000 0.000000
vn 0.000000 -1.000000 0.000000
vn 0.000000 -1.000000 0.000000
vn 0.000000 -1.000000 0.000000
vn -0.447253 0.000000 -0.894408
vn -0.447253 0.000000 -0.894408
vn -0.447253 0.000000 -0.894408
vn -0.447253 0.000000 -0.894408
vn -0.707109 0.000000 -0.707105
vn -0.707109 0.000000 -0.707105
vn -0.707109 0.000000 -0.707105
vn -0.707109 0.000000 -0.707105
vn -0.894409 0.000000 0.447251
vn -0.894409 0.000000 0.447251
vn -0.894409 0.000000 0.447251
vn -0.894409 0.000000 0.447251
vn -0.707108 0.000000 0.707106
vn -0.707108 0.000000 0.707106
vn -0.707108 0.000000 0.707106
vn -0.707108 0.000000 0.707106
vn 0.447246 0.000000 0.894411
vn 0.447246 0.000000 0.894411
vn 0.447246 0.000000 0.894411
vn 0.447246 0.000000 0.894411
vn 0.707107 0.000000 0.707106
vn 0.707107 0.000000 0.707106
vn 0.707107 0.000000 0.707106
vn 0.707107 0.000000 0.707106
vn 0.894410 0.000000 -0.447248
vn 0.894410 0.000000 -0.447248
vn 0.894410 0.000000 -0.447248
vn 0.894410 0.000000 -0.447248
vn 0.000000 1.000000 0.000000
vn 0.000000 1.000000 0.000000
vn 0.000000 1.000000 0.000000
vn 0.000000 1.000000 0.000000
vn 0.000000 -1.000000 0.000000
vn 0.000000 -1.000000 0.000000
vn 0.000000 -1.000000 0.000000
vn 0.000000 -1.000000 0.000000
vn 0.000000 -1.000000 0.000000
vn 0.000000 -1.000000 -0.000000
vn 0.000000 -1.000000 -0.000000
vn 0.000000 1.000000 0.000000
vn 0.000000 1.000000 0.000000
vn 0.000000 1.000000 0.000000
vn 0.000000 1.000000 0.000000
vn 0.000000 -1.000000 0.000000
vn 0.000000 -1.000000 0.000000
vn 0.000000 -1.000000 0.000000
vn 0.000000 -1.000000 0.000000
vn 0.000000 -1.000000 0.000000
vn 0.000000 -1.000000 0.000000
vn 0.000000 -1.000000 -0.000000
vn 0.000000 -1.000000 -0.000000
vn 0.000000 -1.000000 0.000000
vn 0.000000 -1.000000 0.000000
vn 0.000000 0.000000 1.000000
vn 0.000000 0.000000 1.000000
vn 0.000000 0.000000 1.000000
vn 0.000000 0.000000 1.000000
vn -1.000000 0.000000 0.000000
vn -1.000000 0.000000 0.000000
vn -1.000000 0.000000 0.000000
vn -1.000000 0.000000 0.000000
vn 0.000000 0.000000 -1.000000
vn 0.000000 0.000000 -1.000000
vn 0.000000 0.000000 -1.000000
vn 0.000000 0.000000 -1.000000
vn 1.000000 0.000000 0.000000
vn 1.000000 0.000000 0.000000
vn 1.000000 0.000000 0.000000
vn 1.000000 0.000000 0.000000
vn -1.000000 0.000000 0.000000
vn -1.000000 0.000000 0.000000
vn -1.000000 0.000000 0.000000
vn -1.000000 0.000000 0.000000
vn 0.000000 0.000000 -1.000000
vn 0.000000 0.000000 -1.000000
vn 0.000000 0.000000 -1.000000
vn 0.000000 0.000000 -1.000000
vn 1.000000 0.000000 0.000000
vn 1.000000 0.000000 0.000000
vn 1.000000 0.000000 0.000000
vn 1.000000 0.000000 0.000000
vn 0.000000 0.000000 1.000000
vn 0.000000 0.000000 1.000000
vn 0.000000 0.000000 1.000000
vn 0.000000 0.000000 1.000000
vn 0.000000 1.000000 -0.000000
vn 0.000000 1.000000 -0.000000
vn 0.000000 1.000000 -0.000000
vn 0.000000 1.000000 -0.000000
vn 0.000000 -1.000000 -0.000000
vn 0.000000 -1.000000 -0.000000
vn 0.000000 1.000000 0.000000
vn 0.000000 1.000000 0.000000
vn 0.000000 -1.000000 0.000000
vn 0.000000 1.000000 0.000000
vn 0.000000 1.000000 0.000000
vn 0.000000 -1.000000 0.000000
s off
g LantarnCandle Lantarn
usemtl lambert3SG
f 22/19/51 20/20/52 24/21/53 26/22/54
f 30/23/55 28/24/56 31/25/57 34/26/58
f 25/27/59 23/28/60 33/29/61 32/30/62
f 27/31/63 29/32/64 19/33/65 21/34/66
s 1
f 40/35/67 37/36/68 38/37/69 39/38/70
s 2
f 49/39/71 43/40/72 45/41/73 48/42/74
s 3
f 19/33/75 20/20/76 22/19/77 21/34/78
s 4
f 24/21/79 23/28/80 25/27/81 26/22/82
s 5
f 27/31/83 28/24/84 30/23/85 29/32/86
s 6
f 31/25/87 32/30/88 33/29/89 34/26/90
s off
f 22/19/91 26/22/92 37/36/93 35/43/94
f 25/27/95 32/30/96 39/38/97 38/37/98
f 31/25/99 28/24/100 41/44/101 40/35/102
f 27/31/103 21/34/104 36/45/105 42/46/106
f 29/32/107 30/23/108 43/40/109 44/47/110
f 30/23/111 34/26/112 45/41/113 43/40/114
f 34/26/115 33/29/116 46/48/117 45/41/118
f 33/29/119 23/28/120 47/49/121 46/48/122
f 23/28/123 24/21/124 48/42/125 47/49/126
f 24/21/127 20/20/128 49/39/129 48/42/130
f 20/20/131 19/33/132 50/50/133 49/39/134
f 19/33/135 29/32/136 44/47/137 50/50/138
s 3
f 59/51/139 21/34/78 22/19/77 60/52/140
s off
f 74/53/141 36/45/142 21/34/143 59/51/144
f 72/54/145 37/36/146 26/22/147 63/55/148
f 70/56/149 39/38/150 32/30/151 57/57/152
f 68/58/153 42/46/154 41/44/155 67/59/156
f 67/59/157 41/44/158 28/24/159 54/60/160
f 54/60/161 52/61/162 56/62/163 58/63/164
f 62/64/165 60/52/166 63/55/167 66/65/168
f 57/57/169 55/66/170 65/67/171 64/68/172
f 59/51/173 61/69/174 51/70/175 53/71/176
s 7
f 72/54/177 69/72/178 70/56/179 71/73/180
s 8
f 78/74/181 83/75/182 77/76/183
s 5
f 51/70/184 52/61/185 54/60/186 53/71/187
s 6
f 56/62/188 55/66/189 57/57/190 58/63/191
s 3
f 59/51/139 60/52/140 62/64/192 61/69/193
s 4
f 63/55/194 64/68/195 65/67/196 66/65/197
s off
f 54/60/198 58/63/199 69/72/200 67/59/201
f 57/57/202 64/68/203 71/73/204 70/56/205
f 63/55/206 60/52/207 73/77/208 72/54/209
f 59/51/210 53/71/211 68/58/212 74/53/213
f 61/69/214 62/64/215 75/78/216 76/79/217
f 62/64/218 66/65/219 77/76/220 75/78/221
f 66/65/222 65/67/223 78/74/224 77/76/225
f 65/67/226 55/66/227 79/80/228 78/74/229
f 55/66/230 56/62/231 80/81/232 79/80/233
f 56/62/234 52/61/235 81/82/236 80/81/237
f 52/61/238 51/70/239 82/83/240 81/82/241
f 51/70/242 61/69/243 76/79/244 82/83/245
s 5
f 53/71/187 54/60/186 28/24/84 27/31/83
s off
f 68/58/246 53/71/247 27/31/248 42/46/249
f 70/56/250 69/72/251 40/35/252 39/38/253
f 69/72/254 58/63/255 31/25/256 40/35/257
f 72/54/258 71/73/259 38/37/260 37/36/261
f 71/73/262 64/68/263 25/27/264 38/37/265
f 74/53/266 73/77/267 35/43/268 36/45/269
f 73/77/270 60/52/271 22/19/272 35/43/273
s 6
f 57/57/190 32/30/88 31/25/87 58/63/191
s 4
f 63/55/194 26/22/82 25/27/81 64/68/195
s 2
f 44/47/274 43/40/72 49/39/71 50/50/275
f 48/42/74 45/41/73 46/48/276 47/49/277
s 1
f 36/45/278 35/43/279 41/44/280 42/46/281
f 41/44/280 35/43/279 37/36/68 40/35/67
s 8
f 76/79/282 75/78/283 84/84/284
f 83/75/182 84/84/284 75/78/283 77/76/183
s 7
f 68/58/285 67/59/286 73/77/287 74/53/288
f 73/77/287 67/59/286 69/72/178 72/54/177
s 8
f 80/81/289 86/85/290 79/80/291
f 81/82/292 85/86/293 86/85/290 80/81/289
f 82/83/294 85/86/293 81/82/292
f 76/79/282 84/84/284 85/86/293 82/83/294
s 10
f 88/87/295 87/88/296 89/89/297 90/90/298
s 8
f 79/80/291 86/85/290 83/75/182 78/74/181
s off
f 95/91/299 96/92/300 97/93/301 98/94/302
f 96/92/303 99/95/304 100/96/305 97/93/306
f 99/95/307 101/97/308 102/98/309 100/96/310
f 101/97/311 95/91/312 98/94/313 102/98/314
f 85/86/315 84/84/316 92/99/317 91/100/318
f 84/84/319 83/75/320 93/101/321 92/99/322
f 83/75/323 86/85/324 94/102/325 93/101/326
f 86/85/327 85/86/328 91/100/329 94/102/330
s 11
f 94/102/331 91/100/332 96/92/333 95/91/334
s 10
f 87/88/296 88/87/295 98/94/335 97/93/336
s 11
f 91/100/332 92/99/337 99/95/338 96/92/333
s 10
f 89/89/297 87/88/296 97/93/336 100/96/339
s 11
f 92/99/337 93/101/340 101/97/341 99/95/338
s 10
f 90/90/298 89/89/297 100/96/339 102/98/342
s 11
f 93/101/340 94/102/331 95/91/334 101/97/341
s 10
f 88/87/295 90/90/298 102/98/342 98/94/335
