# This file uses meters as units for non-parametric coordinates.

mtllib Vlag_1.mtl
g default
v -0.275951 111.227249 38.138134
v 0.275951 111.227249 38.138134
v -0.275951 211.227249 38.138134
v 0.275951 211.227249 38.138134
v -0.275951 211.227249 4.409653
v 0.275951 211.227249 4.409653
v -0.275951 111.227249 4.409653
v 0.275951 111.227249 4.409653
vt 0.623257 0.022207
vt 0.623206 0.022413
vt 0.623776 0.220135
vt 0.623829 0.220261
vt 0.591691 0.220324
vt 0.591690 0.220451
vt 0.591892 0.022104
vt 0.591891 0.021897
vn 0.000000 0.000000 1.000000
vn 0.000000 0.000000 1.000000
vn 0.000000 0.000000 1.000000
vn 0.000000 0.000000 1.000000
vn 0.000000 1.000000 0.000000
vn 0.000000 1.000000 0.000000
vn 0.000000 1.000000 0.000000
vn 0.000000 1.000000 0.000000
vn 0.000000 0.000000 -1.000000
vn 0.000000 0.000000 -1.000000
vn 0.000000 0.000000 -1.000000
vn 0.000000 0.000000 -1.000000
vn 0.000000 -1.000000 0.000000
vn 0.000000 -1.000000 0.000000
vn 0.000000 -1.000000 0.000000
vn 0.000000 -1.000000 0.000000
vn 1.000000 0.000000 0.000000
vn 1.000000 0.000000 0.000000
vn 1.000000 0.000000 0.000000
vn 1.000000 0.000000 0.000000
vn -1.000000 0.000000 0.000000
vn -1.000000 0.000000 0.000000
vn -1.000000 0.000000 0.000000
vn -1.000000 0.000000 0.000000
s off
g pCube45 Vlag_1
usemtl lambert3SG
f 1/1/1 2/2/2 4/3/3 3/4/4
f 3/4/5 4/3/6 6/5/7 5/6/8
f 5/6/9 6/5/10 8/7/11 7/8/12
f 7/8/13 8/7/14 2/2/15 1/1/16
f 2/2/17 8/7/18 6/5/19 4/3/20
f 7/8/21 1/1/22 3/4/23 5/6/24
g default
v 0.699581 116.279205 1.579071
v -1.831527 116.279205 2.401477
v -1.831527 116.279205 5.062841
v 0.699581 116.279205 5.885248
v 2.263891 116.279205 3.732159
v 1.182980 118.432289 0.091323
v -3.097080 118.432289 1.481999
v -3.097081 118.432289 5.982320
v 1.182979 118.432289 7.372996
v 3.828202 118.432289 3.732159
v 1.965135 117.609886 -2.315904
v -5.144790 117.609886 -0.005750
v -5.144790 117.609886 7.470068
v 1.965135 117.609886 9.780222
v 6.359309 117.609886 3.732159
v 1.965135 114.948517 -2.315904
v -5.144790 114.948517 -0.005750
v -5.144790 114.948517 7.470068
v 1.965135 114.948517 9.780222
v 6.359309 114.948517 3.732159
v 1.182980 114.126106 0.091323
v -3.097080 114.126106 1.481999
v -3.097080 114.126106 5.982319
v 1.182979 114.126106 7.372995
v 3.828201 114.126106 3.732159
v 0.699581 206.454071 1.579071
v -1.831527 206.454071 2.401477
v -1.831527 206.454071 5.062841
v 0.699581 206.454071 5.885248
v 2.263891 206.454071 3.732159
v 1.182980 208.607162 0.091323
v -3.097080 208.607162 1.481999
v -3.097081 208.607162 5.982320
v 1.182979 208.607162 7.372996
v 3.828202 208.607162 3.732159
v 1.965135 207.784775 -2.315904
v -5.144790 207.784775 -0.005750
v -5.144790 207.784775 7.470068
v 1.965135 207.784775 9.780222
v 6.359309 207.784775 3.732159
v 1.965135 205.123398 -2.315904
v -5.144790 205.123398 -0.005750
v -5.144790 205.123398 7.470068
v 1.965135 205.123398 9.780222
v 6.359309 205.123398 3.732159
v 1.182980 204.300980 0.091323
v -3.097080 204.300980 1.481999
v -3.097080 204.300980 5.982319
v 1.182979 204.300980 7.372995
v 3.828201 204.300980 3.732159
v -1.981091 -3.770287 1.439348
v -0.756709 -3.770287 2.328913
v 0.756710 -3.770287 2.328912
v 1.981092 -3.770287 1.439347
v 2.448764 -3.770287 -0.000000
v 1.981091 -3.770287 -1.439347
v 0.756709 -3.770287 -2.328912
v -0.756710 -3.770287 -2.328912
v -1.981091 -3.770287 -1.439347
v -2.448764 -3.770287 0.000000
v -1.981091 216.147949 1.439348
v -0.756709 216.147949 2.328913
v 0.756710 216.147949 2.328912
v 1.981092 216.147949 1.439347
v 2.448764 216.147949 -0.000000
v 1.981091 216.147949 -1.439347
v 0.756709 216.147949 -2.328912
v -0.756710 216.147949 -2.328912
v -1.981091 216.147949 -1.439347
v -2.448764 216.147949 0.000000
v 0.000000 -3.770287 0.000000
v 0.000000 216.147949 0.000000
vt 0.683178 0.255283
vt 0.684077 0.245211
vt 0.685224 0.195522
vt 0.683712 0.211982
vt 0.679599 0.255058
vt 0.677632 0.211615
vt 0.678330 0.244854
vt 0.675515 0.194945
vt 0.681090 0.238844
vt 0.680185 0.185209
vt 0.688666 0.210990
vt 0.686213 0.238840
vt 0.676052 0.238212
vt 0.672578 0.210020
vt 0.680313 0.193781
vt 0.689647 0.270031
vt 0.687217 0.299148
vt 0.677062 0.298486
vt 0.673569 0.269009
vt 0.681286 0.252034
vt 0.686818 0.291259
vt 0.685328 0.308948
vt 0.679255 0.308548
vt 0.677118 0.290631
vt 0.681771 0.280171
vt 0.683054 0.247722
vt 0.684216 0.253390
vt 0.685392 0.205414
vt 0.683434 0.195148
vt 0.679481 0.247908
vt 0.677364 0.195482
vt 0.678479 0.253686
vt 0.675701 0.205942
vt 0.681396 0.257030
vt 0.680633 0.211947
vt 0.688915 0.225769
vt 0.685720 0.209059
vt 0.675574 0.209610
vt 0.672858 0.226625
vt 0.681024 0.236254
vt 0.689918 0.286115
vt 0.686747 0.270758
vt 0.676607 0.271273
vt 0.673870 0.286915
vt 0.682018 0.295758
vt 0.687021 0.303275
vt 0.685087 0.294321
vt 0.679023 0.294621
vt 0.677339 0.303748
vt 0.682254 0.308980
vt 0.455234 0.864104
vt 0.453953 0.863717
vt 0.457141 0.585818
vt 0.458458 0.585530
vt 0.453744 0.863238
vt 0.456917 0.586194
vt 0.454678 0.862851
vt 0.457863 0.586514
vt 0.456395 0.862702
vt 0.459613 0.586657
vt 0.458244 0.862845
vt 0.461506 0.586570
vt 0.459529 0.863228
vt 0.462826 0.586285
vt 0.459755 0.863706
vt 0.463068 0.585909
vt 0.458829 0.864097
vt 0.462130 0.585586
vt 0.457100 0.864250
vt 0.460367 0.585441
vt 0.456746 0.863472
vt 0.459988 0.586052
vn 0.266404 0.506732 0.819909
vn 0.266404 0.506732 0.819909
vn 0.266404 0.506732 0.819909
vn 0.266404 0.506732 0.819909
vn 0.862103 0.506733 0.000002
vn 0.862103 0.506733 0.000002
vn 0.862103 0.506733 0.000002
vn 0.862103 0.506733 0.000002
vn 0.266404 0.506731 -0.819910
vn 0.266404 0.506731 -0.819910
vn 0.266404 0.506731 -0.819910
vn 0.266404 0.506731 -0.819910
vn -0.697455 0.506732 -0.506734
vn -0.697455 0.506732 -0.506734
vn -0.697455 0.506732 -0.506734
vn -0.697455 0.506732 -0.506734
vn -0.697456 0.506732 0.506732
vn -0.697456 0.506732 0.506732
vn -0.697456 0.506732 0.506732
vn -0.697456 0.506732 0.506732
vn -0.115167 0.927958 -0.354444
vn -0.115167 0.927958 -0.354444
vn -0.115167 0.927958 -0.354444
vn -0.115167 0.927958 -0.354444
vn -0.372687 0.927957 0.000000
vn -0.372687 0.927957 0.000000
vn -0.372687 0.927957 0.000000
vn -0.372687 0.927957 0.000000
vn -0.115167 0.927957 0.354448
vn -0.115167 0.927957 0.354448
vn -0.115167 0.927957 0.354448
vn -0.115167 0.927957 0.354448
vn 0.301510 0.927957 0.219061
vn 0.301510 0.927957 0.219061
vn 0.301510 0.927957 0.219061
vn 0.301510 0.927957 0.219061
vn 0.301510 0.927957 -0.219062
vn 0.301510 0.927957 -0.219062
vn 0.301510 0.927957 -0.219062
vn 0.301510 0.927957 -0.219062
vn -0.309017 0.000000 -0.951056
vn -0.309017 0.000000 -0.951056
vn -0.309017 0.000000 -0.951056
vn -0.309017 0.000000 -0.951056
vn -1.000000 0.000000 0.000000
vn -1.000000 0.000000 0.000000
vn -1.000000 0.000000 0.000000
vn -1.000000 0.000000 0.000000
vn -0.309017 0.000000 0.951056
vn -0.309017 0.000000 0.951056
vn -0.309017 0.000000 0.951056
vn -0.309017 0.000000 0.951056
vn 0.809016 0.000000 0.587786
vn 0.809016 0.000000 0.587786
vn 0.809016 0.000000 0.587786
vn 0.809016 0.000000 0.587786
vn 0.809016 0.000000 -0.587786
vn 0.809016 0.000000 -0.587786
vn 0.809016 0.000000 -0.587786
vn 0.809016 0.000000 -0.587786
vn -0.115167 -0.927954 -0.354453
vn -0.115167 -0.927954 -0.354453
vn -0.115167 -0.927954 -0.354453
vn -0.115167 -0.927954 -0.354453
vn -0.372690 -0.927956 0.000000
vn -0.372690 -0.927956 0.000000
vn -0.372690 -0.927956 0.000000
vn -0.372690 -0.927956 0.000000
vn -0.115168 -0.927956 0.354449
vn -0.115168 -0.927956 0.354449
vn -0.115168 -0.927956 0.354449
vn -0.115168 -0.927956 0.354449
vn 0.301513 -0.927956 0.219061
vn 0.301513 -0.927956 0.219061
vn 0.301513 -0.927956 0.219061
vn 0.301513 -0.927956 0.219061
vn 0.301513 -0.927956 -0.219061
vn 0.301513 -0.927956 -0.219061
vn 0.301513 -0.927956 -0.219061
vn 0.301513 -0.927956 -0.219061
vn 0.266405 -0.506730 0.819910
vn 0.266405 -0.506730 0.819910
vn 0.266405 -0.506730 0.819910
vn 0.266405 -0.506730 0.819910
vn 0.862105 -0.506730 0.000000
vn 0.862105 -0.506730 0.000000
vn 0.862105 -0.506730 0.000000
vn 0.862105 -0.506730 0.000000
vn 0.266406 -0.506731 -0.819910
vn 0.266406 -0.506731 -0.819910
vn 0.266406 -0.506731 -0.819910
vn 0.266406 -0.506731 -0.819910
vn -0.697459 -0.506731 -0.506729
vn -0.697459 -0.506731 -0.506729
vn -0.697459 -0.506731 -0.506729
vn -0.697459 -0.506731 -0.506729
vn -0.697458 -0.506730 0.506731
vn -0.697458 -0.506730 0.506731
vn -0.697458 -0.506730 0.506731
vn -0.697458 -0.506730 0.506731
vn 0.266405 0.506732 0.819909
vn 0.266405 0.506732 0.819909
vn 0.266405 0.506732 0.819909
vn 0.266405 0.506732 0.819909
vn 0.862104 0.506732 0.000000
vn 0.862104 0.506732 0.000000
vn 0.862104 0.506732 0.000000
vn 0.862104 0.506732 0.000000
vn 0.266402 0.506726 -0.819914
vn 0.266402 0.506726 -0.819914
vn 0.266402 0.506726 -0.819914
vn 0.266402 0.506726 -0.819914
vn -0.697455 0.506730 -0.506736
vn -0.697455 0.506730 -0.506736
vn -0.697455 0.506730 -0.506736
vn -0.697455 0.506730 -0.506736
vn -0.697455 0.506730 0.506735
vn -0.697455 0.506730 0.506735
vn -0.697455 0.506730 0.506735
vn -0.697455 0.506730 0.506735
vn -0.115165 0.927962 -0.354435
vn -0.115165 0.927962 -0.354435
vn -0.115165 0.927962 -0.354435
vn -0.115165 0.927962 -0.354435
vn -0.372681 0.927960 -0.000002
vn -0.372681 0.927960 -0.000002
vn -0.372681 0.927960 -0.000002
vn -0.372681 0.927960 -0.000002
vn -0.115165 0.927957 0.354448
vn -0.115165 0.927957 0.354448
vn -0.115165 0.927957 0.354448
vn -0.115165 0.927957 0.354448
vn 0.301506 0.927960 0.219055
vn 0.301506 0.927960 0.219055
vn 0.301506 0.927960 0.219055
vn 0.301506 0.927960 0.219055
vn 0.301505 0.927959 -0.219057
vn 0.301505 0.927959 -0.219057
vn 0.301505 0.927959 -0.219057
vn 0.301505 0.927960 -0.219057
vn -0.309016 0.000000 -0.951057
vn -0.309016 0.000000 -0.951057
vn -0.309016 0.000000 -0.951057
vn -0.309016 0.000000 -0.951057
vn -1.000000 0.000000 0.000000
vn -1.000000 0.000000 0.000000
vn -1.000000 0.000000 0.000000
vn -1.000000 0.000000 0.000000
vn -0.309018 0.000000 0.951056
vn -0.309018 0.000000 0.951056
vn -0.309018 0.000000 0.951056
vn -0.309018 0.000000 0.951056
vn 0.809017 0.000000 0.587786
vn 0.809017 0.000000 0.587786
vn 0.809017 0.000000 0.587786
vn 0.809017 0.000000 0.587786
vn 0.809018 0.000000 -0.587784
vn 0.809018 0.000000 -0.587784
vn 0.809018 0.000000 -0.587784
vn 0.809018 0.000000 -0.587784
vn -0.115169 -0.927956 -0.354449
vn -0.115169 -0.927956 -0.354449
vn -0.115169 -0.927956 -0.354449
vn -0.115169 -0.927956 -0.354449
vn -0.372693 -0.927955 0.000000
vn -0.372693 -0.927955 0.000000
vn -0.372693 -0.927955 0.000000
vn -0.372693 -0.927955 0.000000
vn -0.115168 -0.927955 0.354452
vn -0.115168 -0.927955 0.354452
vn -0.115168 -0.927955 0.354452
vn -0.115168 -0.927955 0.354452
vn 0.301515 -0.927956 0.219058
vn 0.301515 -0.927956 0.219058
vn 0.301515 -0.927956 0.219058
vn 0.301515 -0.927956 0.219058
vn 0.301515 -0.927954 -0.219065
vn 0.301515 -0.927954 -0.219065
vn 0.301515 -0.927954 -0.219065
vn 0.301515 -0.927954 -0.219065
vn 0.266404 -0.506730 0.819910
vn 0.266404 -0.506731 0.819910
vn 0.266404 -0.506731 0.819910
vn 0.266404 -0.506731 0.819910
vn 0.862104 -0.506731 0.000000
vn 0.862104 -0.506731 0.000000
vn 0.862104 -0.506731 0.000000
vn 0.862104 -0.506731 0.000000
vn 0.266404 -0.506730 -0.819911
vn 0.266404 -0.506730 -0.819911
vn 0.266404 -0.506730 -0.819911
vn 0.266404 -0.506730 -0.819911
vn -0.697460 -0.506733 -0.506726
vn -0.697460 -0.506733 -0.506726
vn -0.697460 -0.506734 -0.506726
vn -0.697460 -0.506733 -0.506726
vn -0.697456 -0.506731 0.506733
vn -0.697456 -0.506731 0.506733
vn -0.697456 -0.506731 0.506733
vn -0.697456 -0.506731 0.506733
vn -0.587785 0.000000 0.809017
vn -0.587785 0.000000 0.809017
vn -0.587785 0.000000 0.809017
vn -0.587785 0.000000 0.809017
vn 0.000000 0.000000 1.000000
vn 0.000000 0.000000 1.000000
vn 0.000000 0.000000 1.000000
vn 0.000000 0.000000 1.000000
vn 0.587785 0.000000 0.809017
vn 0.587785 0.000000 0.809017
vn 0.587785 0.000000 0.809017
vn 0.587785 0.000000 0.809017
vn 0.951057 0.000000 0.309017
vn 0.951057 0.000000 0.309017
vn 0.951057 0.000000 0.309017
vn 0.951057 0.000000 0.309017
vn 0.951057 0.000000 -0.309017
vn 0.951057 0.000000 -0.309017
vn 0.951057 0.000000 -0.309017
vn 0.951057 0.000000 -0.309017
vn 0.587785 0.000000 -0.809017
vn 0.587785 0.000000 -0.809017
vn 0.587785 0.000000 -0.809017
vn 0.587785 0.000000 -0.809017
vn -0.000000 0.000000 -1.000000
vn -0.000000 0.000000 -1.000000
vn -0.000000 0.000000 -1.000000
vn -0.000000 0.000000 -1.000000
vn -0.587785 0.000000 -0.809017
vn -0.587785 0.000000 -0.809017
vn -0.587785 0.000000 -0.809017
vn -0.587785 0.000000 -0.809017
vn -0.951057 0.000000 -0.309017
vn -0.951057 0.000000 -0.309017
vn -0.951057 0.000000 -0.309017
vn -0.951057 0.000000 -0.309017
vn -0.951057 0.000000 0.309017
vn -0.951057 0.000000 0.309017
vn -0.951057 0.000000 0.309017
vn -0.951057 0.000000 0.309017
vn 0.000000 -1.000000 0.000000
vn 0.000000 -1.000000 -0.000000
vn 0.000000 -1.000000 0.000000
vn 0.000000 -1.000000 0.000000
vn 0.000000 -1.000000 0.000000
vn 0.000000 -1.000000 0.000000
vn 0.000000 -1.000000 0.000000
vn 0.000000 -1.000000 0.000000
vn 0.000000 -1.000000 0.000000
vn 0.000000 -1.000000 0.000000
vn 0.000000 -1.000000 -0.000000
vn 0.000000 1.000000 0.000000
vn 0.000000 1.000000 0.000000
vn 0.000000 1.000000 0.000002
vn 0.000000 1.000000 0.000004
vn 0.000000 1.000000 0.000004
vn 0.000000 1.000000 0.000000
vn 0.000000 1.000000 0.000000
vn 0.000000 1.000000 0.000000
vn 0.000000 1.000000 0.000004
vn 0.000000 1.000000 0.000004
vn 0.000000 1.000000 0.000000
s off
g Vlag_1 pTorus4
usemtl lambert3SG
f 10/9/25 9/10/26 14/11/27 15/12/28
f 11/13/29 10/9/30 15/12/31 16/14/32
f 12/15/33 11/13/34 16/14/35 17/16/36
f 13/17/37 12/15/38 17/16/39 18/18/40
f 9/10/41 13/17/42 18/18/43 14/11/44
f 15/12/45 14/11/46 19/19/47 20/20/48
f 16/14/49 15/12/50 20/20/51 21/21/52
f 17/16/53 16/14/54 21/21/55 22/22/56
f 18/18/57 17/16/58 22/22/59 23/23/60
f 14/11/61 18/18/62 23/23/63 19/19/64
f 20/20/65 19/19/66 24/24/67 25/25/68
f 21/21/69 20/20/70 25/25/71 26/26/72
f 22/22/73 21/21/74 26/26/75 27/27/76
f 23/23/77 22/22/78 27/27/79 28/28/80
f 19/19/81 23/23/82 28/28/83 24/24/84
f 25/25/85 24/24/86 29/29/87 30/30/88
f 26/26/89 25/25/90 30/30/91 31/31/92
f 27/27/93 26/26/94 31/31/95 32/32/96
f 28/28/97 27/27/98 32/32/99 33/33/100
f 24/24/101 28/28/102 33/33/103 29/29/104
f 30/30/105 29/29/106 9/10/107 10/9/108
f 31/31/109 30/30/110 10/9/111 11/13/112
f 32/32/113 31/31/114 11/13/115 12/15/116
f 33/33/117 32/32/118 12/15/119 13/17/120
f 29/29/121 33/33/122 13/17/123 9/10/124
f 35/34/125 34/35/126 39/36/127 40/37/128
f 36/38/129 35/34/130 40/37/131 41/39/132
f 37/40/133 36/38/134 41/39/135 42/41/136
f 38/42/137 37/40/138 42/41/139 43/43/140
f 34/35/141 38/42/142 43/43/143 39/36/144
f 40/37/145 39/36/146 44/44/147 45/45/148
f 41/39/149 40/37/150 45/45/151 46/46/152
f 42/41/153 41/39/154 46/46/155 47/47/156
f 43/43/157 42/41/158 47/47/159 48/48/160
f 39/36/161 43/43/162 48/48/163 44/44/164
f 45/45/165 44/44/166 49/49/167 50/50/168
f 46/46/169 45/45/170 50/50/171 51/51/172
f 47/47/173 46/46/174 51/51/175 52/52/176
f 48/48/177 47/47/178 52/52/179 53/53/180
f 44/44/181 48/48/182 53/53/183 49/49/184
f 50/50/185 49/49/186 54/54/187 55/55/188
f 51/51/189 50/50/190 55/55/191 56/56/192
f 52/52/193 51/51/194 56/56/195 57/57/196
f 53/53/197 52/52/198 57/57/199 58/58/200
f 49/49/201 53/53/202 58/58/203 54/54/204
f 55/55/205 54/54/206 34/35/207 35/34/208
f 56/56/209 55/55/210 35/34/211 36/38/212
f 57/57/213 56/56/214 36/38/215 37/40/216
f 58/58/217 57/57/218 37/40/219 38/42/220
f 54/54/221 58/58/222 38/42/223 34/35/224
f 59/59/225 60/60/226 70/61/227 69/62/228
f 60/60/229 61/63/230 71/64/231 70/61/232
f 61/63/233 62/65/234 72/66/235 71/64/236
f 62/65/237 63/67/238 73/68/239 72/66/240
f 63/67/241 64/69/242 74/70/243 73/68/244
f 64/69/245 65/71/246 75/72/247 74/70/248
f 65/71/249 66/73/250 76/74/251 75/72/252
f 66/73/253 67/75/254 77/76/255 76/74/256
f 67/75/257 68/77/258 78/78/259 77/76/260
f 68/77/261 59/59/262 69/62/263 78/78/264
s 1
f 60/60/265 59/59/266 79/79/267
f 61/63/268 60/60/265 79/79/267
f 62/65/269 61/63/268 79/79/267
f 63/67/270 62/65/269 79/79/267
f 64/69/271 63/67/270 79/79/267
f 65/71/272 64/69/271 79/79/267
f 66/73/273 65/71/272 79/79/267
f 67/75/274 66/73/273 79/79/267
f 68/77/275 67/75/274 79/79/267
f 59/59/266 68/77/275 79/79/267
s 2
f 69/62/276 70/61/277 80/80/278
f 70/61/277 71/64/279 80/80/278
f 71/64/279 72/66/280 80/80/278
f 72/66/280 73/68/281 80/80/278
f 73/68/281 74/70/282 80/80/278
f 74/70/282 75/72/283 80/80/278
f 75/72/283 76/74/284 80/80/278
f 76/74/284 77/76/285 80/80/278
f 77/76/285 78/78/286 80/80/278
f 78/78/286 69/62/276 80/80/278
