<svg width="360" height="360" viewBox="0 0 360 360" fill="none" xmlns="http://www.w3.org/2000/svg">
<circle cx="180" cy="180" r="175.5" stroke="white" stroke-width="9"/>
<circle cx="180" cy="180" r="164" stroke="white" stroke-width="4"/>
<circle cx="180" cy="180" r="111" stroke="white" stroke-width="14"/>
<circle cx="180" cy="180" r="96" stroke="white" stroke-width="4"/>
<circle cx="41.5" cy="180.5" r="12.5" fill="white"/>
<circle cx="319.5" cy="180.5" r="12.5" fill="white"/>
<path d="M31.908 147.035L34.4764 137.331C35.0591 135.129 36.1609 133.548 37.7817 132.588C39.4026 131.628 41.0853 131.379 42.83 131.841C44.6369 132.319 46.0138 133.372 46.9607 135.001C47.9103 136.619 48.0924 138.534 47.507 140.746L46.365 145.061L55.1037 147.374L53.669 152.794L31.908 147.035ZM37.3304 142.67L42.3773 144.005L43.0452 141.482C43.6416 139.228 43.0987 137.879 41.4164 137.434C40.4714 137.184 39.7374 137.312 39.2145 137.818C38.6813 138.321 38.2223 139.3 37.8375 140.754L37.3304 142.67Z" fill="white"/>
<path d="M64.9017 111.253L68.6006 113.079L61.254 127.961L41.0692 117.997L48.316 103.317L52.0148 105.143L47.2502 114.795L51.4837 116.885L56.0272 107.681L59.726 109.507L55.1825 118.711L60.0373 121.107L64.9017 111.253Z" fill="white"/>
<path d="M63.5837 81.5123L87.4101 87.7429L83.6515 92.4535L79.0195 91.1282L72.7383 99.0002L75.1694 103.084L71.4611 107.731L59.5236 86.6008L63.5837 81.5123ZM74.9111 89.9733L65.8107 87.3502L70.5897 95.3893L74.9111 89.9733Z" fill="white"/>
<path d="M104.797 64.7347L107.824 68.6064C106.526 71.5162 104.663 73.9206 102.234 75.8195C99.086 78.2808 95.8986 79.3752 92.672 79.1026C89.4472 78.8149 86.839 77.3975 84.8475 74.8502C82.8559 72.3029 82.1471 69.3732 82.7209 66.061C83.3033 62.7422 85.1812 59.8422 88.3547 57.3611C90.885 55.3827 93.433 54.2292 95.9986 53.9005L99.0852 57.8483C95.9895 58.3188 93.4811 59.3049 91.5601 60.8069C89.6729 62.2824 88.5255 63.9976 88.1178 65.9527C87.7119 67.8927 88.121 69.6455 89.3451 71.2111C90.5757 72.7851 92.1795 73.6243 94.1564 73.7286C96.1418 73.8262 98.0569 73.1539 99.9018 71.7115C100.816 70.9969 101.603 70.1903 102.264 69.2917C102.919 68.3846 103.763 66.8656 104.797 64.7347Z" fill="white"/>
<path d="M130.142 54.6082L131.931 58.3249L116.977 65.524L107.213 45.2416L121.964 38.1405L123.753 41.8572L114.055 46.5261L116.103 50.78L125.351 46.3278L127.14 50.0445L117.892 54.4967L120.241 59.3749L130.142 54.6082Z" fill="white"/>
<path d="M151.053 29.337L160.706 28.0928C163.007 27.7962 164.884 28.1174 166.338 29.0566C167.801 29.9943 168.631 31.2196 168.826 32.7325C169.076 34.6715 168.25 36.2889 166.348 37.5846C167.935 37.7917 169.199 38.3545 170.14 39.2729C171.092 40.19 171.656 41.3303 171.832 42.6941C172.082 44.6331 171.619 46.2957 170.444 47.6819C169.269 49.0682 167.387 49.9281 164.798 50.2618L153.931 51.6626L151.053 29.337ZM157.142 32.7113L157.758 37.4897L160.666 37.1148C161.561 36.9994 162.23 36.6804 162.671 36.1577C163.113 35.6351 163.289 35.0275 163.2 34.335C163.112 33.6531 162.789 33.1207 162.231 32.7378C161.672 32.3549 160.945 32.2211 160.05 32.3364L157.142 32.7113ZM158.285 41.5808L158.965 46.8546L162.097 46.4508C163.578 46.2599 164.617 45.9202 165.215 45.4316C165.812 44.9323 166.044 44.1766 165.914 43.1644C165.814 42.3867 165.426 41.8139 164.75 41.4461C164.073 41.0676 163.218 40.945 162.185 41.0782L158.285 41.5808Z" fill="white"/>
<path d="M183.832 26.6756L193.849 27.5464C196.021 27.7352 197.732 28.5202 198.982 29.9011C200.232 31.2714 200.779 32.8501 200.624 34.6373C200.409 37.1095 198.966 38.8278 196.294 39.7924C197.385 40.394 198.335 41.8623 199.146 44.1971C199.967 46.5329 200.762 48.737 201.531 50.8094L195.383 50.2749C195.083 49.5048 194.569 48.0422 193.839 45.8869C193.121 43.7326 192.461 42.3328 191.859 41.6874C191.268 41.043 190.604 40.6887 189.865 40.6245L188.26 40.485L187.469 49.5869L181.882 49.1012L183.832 26.6756ZM189.061 31.2707L188.617 36.3755L191.571 36.6322C192.513 36.7141 193.275 36.5594 193.859 36.1681C194.455 35.767 194.789 35.1544 194.86 34.3304C195.007 32.6395 194.016 31.7015 191.886 31.5163L189.061 31.2707Z" fill="white"/>
<path d="M220.127 32.3745L214.501 54.1704L209.071 52.7689L214.697 30.9731L220.127 32.3745Z" fill="white"/>
<path d="M251.919 46.6615L249.855 51.1212C247.834 48.6587 245.581 46.8521 243.095 45.7012C240.697 44.591 238.57 44.3402 236.714 44.9487C234.858 45.5572 233.496 46.7973 232.63 48.669C231.799 50.4626 231.775 52.2152 232.557 53.9268C233.339 55.6383 234.788 56.9837 236.903 57.9631C238.024 58.4821 239.263 58.7596 240.619 58.7957L241.723 56.4123L238.769 55.0448L240.502 51.3016L248.559 55.0316L244.694 63.3809C243.51 63.8154 241.97 63.9074 240.074 63.6568C238.191 63.401 236.441 62.8985 234.823 62.1494C231.265 60.5021 228.794 58.1685 227.41 55.1485C226.041 52.1233 226.058 49.0949 227.462 46.0632C228.897 42.9633 231.206 40.9666 234.39 40.073C237.588 39.1742 241.005 39.5665 244.641 41.2498C247.643 42.6399 250.069 44.4437 251.919 46.6615Z" fill="white"/>
<path d="M275.558 61.241L269.383 85.0819L264.664 81.3344L265.978 76.6993L258.091 70.4367L254.014 72.8774L249.357 69.1799L270.46 57.1928L275.558 61.241ZM267.123 72.5882L269.725 63.4817L261.697 68.2795L267.123 72.5882Z" fill="white"/>
<path d="M291.829 76.2546L297.931 84.0827C300.289 87.1072 301.321 90.1436 301.028 93.1918C300.75 96.2418 299.297 98.7906 296.671 100.838C293.918 102.984 291.056 103.778 288.087 103.219C285.133 102.662 282.368 100.731 279.792 97.4268L274.076 90.0942L291.829 76.2546ZM292.023 83.2131L280.776 91.9805L283.025 94.8653C284.485 96.7376 286.114 97.7698 287.911 97.9619C289.718 98.1474 291.464 97.5829 293.15 96.2687C294.895 94.9081 295.874 93.3341 296.088 91.5466C296.317 89.761 295.698 87.9278 294.232 86.047L292.023 83.2131Z" fill="white"/>
<path d="M302.991 128.664L299.265 130.434L292.144 115.443L312.476 105.784L319.501 120.571L315.775 122.341L311.157 112.619L306.892 114.645L311.296 123.916L307.57 125.686L303.166 116.415L298.276 118.738L302.991 128.664Z" fill="white"/>
<path d="M326.257 148.054L321.996 149.148C322.555 145.921 322.613 143.45 322.173 141.733C321.922 140.755 321.555 140.017 321.073 139.52C320.603 139.03 320.098 138.855 319.557 138.994C319.141 139.101 318.799 139.41 318.531 139.923C318.263 140.435 318.04 141.573 317.861 143.338C317.681 145.103 317.461 146.535 317.199 147.634C316.938 148.732 316.434 149.749 315.686 150.684C314.942 151.629 313.862 152.283 312.447 152.646C310.428 153.164 308.623 152.807 307.031 151.574C305.442 150.351 304.326 148.486 303.683 145.979C302.988 143.273 303.018 140.471 303.771 137.572L308.469 136.366C307.865 138.074 307.483 139.547 307.324 140.785C307.165 142.024 307.247 143.273 307.57 144.532C308.117 146.665 309.062 147.559 310.404 147.215C310.862 147.097 311.239 146.773 311.536 146.242C311.832 145.712 312.062 144.555 312.225 142.772C312.392 140.999 312.602 139.57 312.855 138.484C313.112 137.409 313.614 136.404 314.361 135.47C315.111 134.545 316.209 133.898 317.655 133.526C319.528 133.046 321.23 133.413 322.762 134.628C324.304 135.84 325.4 137.711 326.048 140.239C326.646 142.57 326.716 145.175 326.257 148.054Z" fill="white"/>
<path d="M63.5573 229.513L42.4599 237.362L40.5046 232.106L61.602 224.257L63.5573 229.513Z" fill="white"/>
<path d="M77.4003 255.991L57.941 267.307L55.5677 263.225L61.7812 245.222L49.3145 252.472L46.4956 247.624L65.9549 236.309L68.5389 240.752L62.6858 258.061L74.5815 251.143L77.4003 255.991Z" fill="white"/>
<path d="M95.0677 275.967L92.0284 278.756L86.5158 272.749L72.9698 285.179L69.1784 281.048L82.7245 268.617L77.2118 262.61L80.251 259.821L95.0677 275.967Z" fill="white"/>
<path d="M101.624 303.974L99.1709 307.291L85.8281 297.421L99.2149 279.324L112.376 289.059L109.923 292.376L101.27 285.975L98.4621 289.77L106.714 295.874L104.261 299.191L96.009 293.087L92.7893 297.439L101.624 303.974Z" fill="white"/>
<path d="M117.661 292.308L126.72 296.672C128.684 297.618 130.006 298.958 130.685 300.692C131.369 302.417 131.321 304.087 130.542 305.703C129.465 307.939 127.507 309.034 124.667 308.989C125.473 309.938 125.842 311.648 125.773 314.119C125.713 316.594 125.675 318.937 125.66 321.147L120.1 318.469C120.092 317.642 120.13 316.092 120.212 313.819C120.303 311.549 120.182 310.007 119.848 309.19C119.524 308.378 119.028 307.811 118.36 307.489L116.909 306.79L112.943 315.021L107.891 312.587L117.661 292.308ZM120.923 298.458L118.699 303.074L121.37 304.361C122.222 304.771 122.99 304.896 123.674 304.737C124.374 304.573 124.903 304.119 125.262 303.374C125.998 301.845 125.404 300.616 123.478 299.688L120.923 298.458Z" fill="white"/>
<path d="M161.813 307.803L156.535 329.686L151.946 328.579L143.234 311.643L139.853 325.663L134.402 324.348L139.68 302.465L144.676 303.67L153.136 319.866L156.362 306.489L161.813 307.803Z" fill="white"/>
<path d="M181.182 308.675L190.858 331.323L184.832 331.239L183.041 326.766L172.971 326.626L171.234 331.049L165.289 330.967L174.673 308.585L181.182 308.675ZM181.436 322.812L177.933 314.013L174.508 322.715L181.436 322.812Z" fill="white"/>
<path d="M215.195 304.175L215.994 308.222L207.995 309.801L211.556 327.839L206.054 328.925L202.494 310.887L194.495 312.466L193.696 308.419L215.195 304.175Z" fill="white"/>
<path d="M226.125 300.004L233.876 321.138L228.611 323.069L220.861 301.935L226.125 300.004Z" fill="white"/>
<path d="M243.053 291.48C246.371 289.556 249.639 289.003 252.856 289.819C256.069 290.626 258.445 292.358 259.987 295.016C261.549 297.711 261.864 300.651 260.93 303.838C259.997 307.024 257.899 309.563 254.637 311.455C251.338 313.368 248.081 313.94 244.867 313.172C241.652 312.404 239.258 310.663 237.684 307.949C236.138 305.282 235.812 302.355 236.707 299.166C237.611 295.971 239.727 293.41 243.053 291.48ZM252.293 307.413C254.133 306.346 255.3 304.942 255.794 303.203C256.282 301.455 256.012 299.693 254.982 297.918C253.948 296.134 252.553 295.024 250.798 294.589C249.043 294.154 247.246 294.47 245.406 295.537C243.557 296.609 242.38 298.018 241.877 299.762C241.383 301.502 241.654 303.263 242.688 305.047C243.718 306.822 245.112 307.932 246.873 308.377C248.637 308.806 250.444 308.485 252.293 307.413Z" fill="white"/>
<path d="M274.843 266.43L290.33 282.767L286.903 286.015L267.954 284.107L277.876 294.573L273.806 298.431L258.32 282.094L262.05 278.558L280.241 280.275L270.774 270.288L274.843 266.43Z" fill="white"/>
<path d="M286.115 250.655L310.381 254.862L307.031 259.872L302.304 258.94L296.707 267.312L299.472 271.177L296.167 276.12L282.497 256.067L286.115 250.655ZM298.113 258.135L288.825 256.285L294.262 263.895L298.113 258.135Z" fill="white"/>
<path d="M316.827 229.468L320.641 231.04L314.101 246.905L293.29 238.327L295.427 233.142L312.424 240.149L316.827 229.468Z" fill="white"/>
</svg>
