<svg width="1394" height="795" viewBox="0 0 1394 795" fill="none" xmlns="http://www.w3.org/2000/svg">
<path d="M0 10.2398C302.5 48.2394 1013 -48.7603 1393.5 35.7395C1364.08 333.956 1389.75 441.951 1384 794.74H13C36.3447 489.882 31.3 318.024 0 10.2398Z" fill="#F6F6F6"/>
<mask id="mask0_40_27" style="mask-type:alpha" maskUnits="userSpaceOnUse" x="0" y="0" width="1394" height="795">
<path d="M0 10.2398C302.5 48.2394 1013 -48.7603 1393.5 35.7395C1364.08 333.956 1389.75 441.951 1384 794.74H13C36.3447 489.882 31.3 318.024 0 10.2398Z" fill="#F6F6F6" fill-opacity="0.51"/>
</mask>
<g mask="url(#mask0_40_27)">
<path d="M963 951.738C394 884.238 1299.87 884.79 1417 979.297C1417 979.297 1406.69 130.862 1710.97 122.905C2015.25 114.948 1470.81 -237.99 1373 110.737C1275.19 459.465 1532 1019.24 963 951.738Z" fill="#D8D8D8"/>
</g>
</svg>
