<svg width="137" height="137" viewBox="0 0 137 137" fill="none" xmlns="http://www.w3.org/2000/svg">
<path d="M95.1303 4.3667L41.6031 4.3667L4.3667 41.7731L4.3667 94.9603L41.6031 132.367H95.1303L132.367 94.9603V41.7731L95.1303 4.3667Z" stroke="#EA433D" stroke-width="7.5"/>
<path d="M91.7849 12.3667L44.9485 12.3667L12.3667 45.0973L12.3667 91.6361L44.9485 124.367H91.7849L124.367 91.6361V45.0973L91.7849 12.3667Z" stroke="#EA433D" stroke-width="2.5"/>
<path d="M82.014 68.3667L102.483 47.8978C104.995 45.386 104.995 41.3135 102.483 38.7997L97.9337 34.2506C95.4219 31.7387 91.3494 31.7387 88.8356 34.2506L68.3667 54.7194L47.8978 34.2506C45.386 31.7387 41.3135 31.7387 38.7997 34.2506L34.2506 38.7997C31.7387 41.3115 31.7387 45.384 34.2506 47.8978L54.7194 68.3667L34.2506 88.8356C31.7387 91.3474 31.7387 95.4199 34.2506 97.9337L38.7997 102.483C41.3115 104.995 45.386 104.995 47.8978 102.483L68.3667 82.014L88.8356 102.483C91.3474 104.995 95.4219 104.995 97.9337 102.483L102.483 97.9337C104.995 95.4219 104.995 91.3494 102.483 88.8356L82.014 68.3667Z" fill="#EA433D"/>
</svg>
