<svg width="137" height="137" viewBox="0 0 137 137" fill="none" xmlns="http://www.w3.org/2000/svg">
<path d="M108.32 78.701L100.963 74.4357C101.705 70.4131 101.705 66.2865 100.963 62.264L108.32 57.9987C109.166 57.5132 109.546 56.5076 109.269 55.5713C107.352 49.3987 104.089 43.8157 99.8229 39.1689C99.1666 38.458 98.0959 38.2846 97.267 38.7701L89.9101 43.0354C86.8188 40.3653 83.2613 38.302 79.4101 36.9496V28.4363C79.4101 27.4653 78.7366 26.6157 77.7868 26.4077C71.4488 24.9859 64.9554 25.0553 58.9283 26.4077C57.9785 26.6157 57.305 27.4653 57.305 28.4363V36.9669C53.4711 38.3367 49.9136 40.4 46.805 43.0528L39.4654 38.7875C38.6192 38.302 37.5657 38.458 36.9095 39.1862C32.6439 43.8157 29.3799 49.3987 27.463 55.5886C27.1694 56.5249 27.5666 57.5305 28.4128 58.016L35.7697 62.2813C35.0271 66.3039 35.0271 70.4305 35.7697 74.4531L28.4128 78.7184C27.5666 79.2038 27.1867 80.2095 27.463 81.1458C29.3799 87.3183 32.6439 92.9014 36.9095 97.5481C37.5657 98.259 38.6365 98.4324 39.4654 97.9469L46.8223 93.6816C49.9136 96.3518 53.4711 98.4151 57.3222 99.7675V108.298C57.3222 109.269 57.9958 110.119 58.9456 110.327C65.2836 111.748 71.777 111.679 77.8041 110.327C78.7539 110.119 79.4274 109.269 79.4274 108.298V99.7675C83.2613 98.3977 86.8188 96.3344 89.9274 93.6816L97.2843 97.9469C98.1305 98.4324 99.1839 98.2763 99.8402 97.5481C104.106 92.9187 107.37 87.3357 109.287 81.1458C109.546 80.1921 109.166 79.1865 108.32 78.701V78.701ZM68.3576 82.2208C60.7416 82.2208 54.5418 75.9962 54.5418 68.3498C54.5418 60.7035 60.7416 54.4789 68.3576 54.4789C75.9735 54.4789 82.1733 60.7035 82.1733 68.3498C82.1733 75.9962 75.9735 82.2208 68.3576 82.2208Z" fill="#ABABAB"/>
<path d="M95.1306 4.36719H41.6033L4.36694 41.7736V94.9608L41.6033 132.367H95.1306L132.367 94.9608V41.7736L95.1306 4.36719Z" stroke="#ABABAB" stroke-width="7.5"/>
<path d="M91.7851 12.3672H44.9488L12.3669 45.0978V91.6366L44.9488 124.367H91.7851L124.367 91.6366V45.0978L91.7851 12.3672Z" stroke="#ABABAB" stroke-width="2.5"/>
</svg>
