<svg width="159" height="159" viewBox="0 0 159 159" fill="none" xmlns="http://www.w3.org/2000/svg">
<g filter="url(#filter0_f_44_749)">
<path d="M120.649 79.0249L112.439 76.809C112.115 72.7313 111.047 68.7453 109.289 65.052L115.291 59.028C115.983 58.34 116.09 57.2703 115.58 56.4374C112.131 50.9713 107.534 46.4233 102.211 43.0389C101.393 42.5221 100.314 42.6317 99.6386 43.3152L93.6363 49.3393C89.9593 47.5602 85.9889 46.488 81.919 46.1784L79.7156 37.9552C79.4643 37.0173 78.5938 36.371 77.6225 36.4159C71.1325 36.6829 64.8783 38.4305 59.4066 41.2968C58.543 41.7436 58.1123 42.7386 58.3636 43.6764L60.5715 51.9164C57.2228 54.2317 54.3205 57.1455 52.0045 60.5125L43.811 58.2921C42.868 58.0422 41.8908 58.4656 41.4454 59.3388C38.5233 64.9145 36.8156 71.1521 36.566 77.6272C36.5248 78.6076 37.1687 79.4762 38.1117 79.7261L46.3219 81.942C46.6457 86.0197 47.7137 90.0057 49.4722 93.699L43.4699 99.723C42.7782 100.411 42.6715 101.481 43.1807 102.314C46.6299 107.78 51.2276 112.328 56.5506 115.712C57.3684 116.229 58.4476 116.119 59.1226 115.436L65.1249 109.412C68.8019 111.191 72.7722 112.263 76.8422 112.573L79.0501 120.813C79.3014 121.75 80.1718 122.397 81.1431 122.352C87.6331 122.085 93.8873 120.337 99.359 117.471C100.223 117.024 100.653 116.029 100.402 115.091L98.1941 106.851C101.543 104.536 104.445 101.622 106.761 98.2553L114.971 100.471C115.914 100.721 116.892 100.298 117.337 99.4244C120.259 93.8487 121.967 87.6111 122.216 81.136C122.22 80.1479 121.592 79.2748 120.649 79.0249V79.0249ZM82.96 92.7676C75.6036 94.7388 68.004 90.3309 66.025 82.9451C64.046 75.5593 68.4235 67.9422 75.7799 65.9711C83.1364 63.9999 90.7359 68.4078 92.715 75.7936C94.694 83.1794 90.3165 90.7965 82.96 92.7676Z" fill="black" fill-opacity="0.6"/>
<path d="M88.6709 10.6375L36.9676 24.4914L10.6815 70.2607L24.4474 121.636L70.0964 148.13L121.8 134.276L148.086 88.5068L134.32 37.1319L88.6709 10.6375Z" stroke="black" stroke-opacity="0.6" stroke-width="7.5"/>
<path d="M87.5099 19.2307L42.2695 31.3528L19.2692 71.401L31.3143 116.354L71.2572 139.537L116.498 127.414L139.498 87.3663L127.453 42.4132L87.5099 19.2307Z" stroke="black" stroke-opacity="0.6" stroke-width="2.5"/>
</g>
<path d="M120.649 79.0249L112.439 76.809C112.115 72.7313 111.047 68.7453 109.289 65.052L115.291 59.028C115.983 58.34 116.09 57.2703 115.58 56.4374C112.131 50.9713 107.534 46.4233 102.211 43.0389C101.393 42.5221 100.314 42.6317 99.6386 43.3152L93.6363 49.3393C89.9593 47.5602 85.9889 46.488 81.919 46.1784L79.7156 37.9552C79.4643 37.0173 78.5938 36.371 77.6225 36.4159C71.1325 36.6829 64.8783 38.4305 59.4066 41.2968C58.543 41.7436 58.1123 42.7386 58.3636 43.6764L60.5715 51.9164C57.2228 54.2317 54.3205 57.1455 52.0045 60.5125L43.811 58.2921C42.868 58.0422 41.8908 58.4656 41.4454 59.3388C38.5233 64.9145 36.8156 71.1521 36.566 77.6272C36.5248 78.6076 37.1687 79.4762 38.1117 79.7261L46.3219 81.942C46.6457 86.0197 47.7137 90.0057 49.4722 93.699L43.4699 99.723C42.7782 100.411 42.6715 101.481 43.1807 102.314C46.6299 107.78 51.2276 112.328 56.5506 115.712C57.3684 116.229 58.4476 116.119 59.1226 115.436L65.1249 109.412C68.8019 111.191 72.7722 112.263 76.8422 112.573L79.0501 120.813C79.3014 121.75 80.1718 122.397 81.1431 122.352C87.6331 122.085 93.8873 120.337 99.359 117.471C100.223 117.024 100.653 116.029 100.402 115.091L98.1941 106.851C101.543 104.536 104.445 101.622 106.761 98.2553L114.971 100.471C115.914 100.721 116.892 100.298 117.337 99.4244C120.259 93.8487 121.967 87.6111 122.216 81.136C122.22 80.1479 121.592 79.2748 120.649 79.0249V79.0249ZM82.96 92.7676C75.6036 94.7388 68.004 90.3309 66.025 82.9451C64.046 75.5593 68.4235 67.9422 75.7799 65.9711C83.1364 63.9999 90.7359 68.4078 92.715 75.7936C94.694 83.1794 90.3165 90.7965 82.96 92.7676Z" fill="white"/>
<path d="M88.6709 10.6375L36.9676 24.4914L10.6815 70.2607L24.4474 121.636L70.0964 148.13L121.8 134.276L148.086 88.5068L134.32 37.1319L88.6709 10.6375Z" stroke="white" stroke-width="7.5"/>
<path d="M87.5099 19.2307L42.2695 31.3528L19.2692 71.401L31.3143 116.354L71.2572 139.537L116.498 127.414L139.498 87.3663L127.453 42.4132L87.5099 19.2307Z" stroke="white" stroke-width="2.5"/>
<defs>
<filter id="filter0_f_44_749" x="0.658691" y="0.612061" width="157.45" height="157.543" filterUnits="userSpaceOnUse" color-interpolation-filters="sRGB">
<feFlood flood-opacity="0" result="BackgroundImageFix"/>
<feBlend mode="normal" in="SourceGraphic" in2="BackgroundImageFix" result="shape"/>
<feGaussianBlur stdDeviation="3" result="effect1_foregroundBlur_44_749"/>
</filter>
</defs>
</svg>
