# This file uses meters as units for non-parametric coordinates.

mtllib Grass_1.mtl
g default
v 1042.187500 47.854771 -549.256104
v 1033.715820 54.161697 -549.838135
v 1024.633057 58.566582 -551.173462
v 1018.344116 55.419418 -552.059143
v 1012.343567 51.955620 -552.381348
v 1042.054810 49.486523 -549.252625
v 1033.583008 55.793423 -549.834656
v 1024.390259 60.218891 -551.165955
v 1017.924438 57.027832 -552.054993
v 1011.923828 53.564037 -552.377197
v 1033.892578 55.267548 -548.554810
v 1005.946533 49.944614 -552.325928
v 1025.119141 57.190605 -547.065857
v 1000.780151 40.904430 -552.040283
v 1018.287720 54.595802 -546.219482
v 994.454407 23.999935 -550.965149
v 1012.326050 50.871613 -545.916931
v 1006.341125 47.303055 -545.987793
v 1000.916382 39.070892 -546.364441
v 995.730103 23.970188 -547.504272
v 1012.745789 49.263184 -545.921082
v 1006.760803 45.694618 -545.991943
v 1001.549927 37.730316 -546.366760
v 996.483093 23.119078 -547.511658
v 1018.707397 52.987347 -546.223633
v 995.207397 23.148769 -550.972534
v 1025.362061 55.538322 -547.073425
v 1001.413696 39.563850 -552.042603
v 1034.025391 53.635822 -548.558350
v 1006.366272 48.336197 -552.330139
v 995.207397 5.312426 -549.335022
v 995.236694 5.412901 -549.119995
v 995.979980 5.279895 -549.124451
v 995.950745 5.179420 -549.339478
vt 0.109833 0.885615
vt 0.109851 0.891689
vt 0.112495 0.912075
vt 0.112464 0.906095
vt 0.104182 0.852265
vt 0.104175 0.857780
vt 0.100342 0.802571
vt 0.100283 0.806579
vt 0.098547 0.756940
vt 0.098616 0.753223
vt 0.114473 0.891046
vt 0.119320 0.848784
vt 0.121869 0.798091
vt 0.122422 0.747999
vt 0.121608 0.698548
vt 0.121544 0.695203
vt 0.122353 0.744367
vt 0.119520 0.636490
vt 0.119500 0.635752
vt 0.114633 0.556556
vt 0.114641 0.558447
vt 0.108882 0.504090
vt 0.108840 0.500184
vt 0.121803 0.794163
vt 0.114431 0.884989
vt 0.102465 0.549514
vt 0.102519 0.551436
vt 0.108170 0.503677
vt 0.108128 0.499770
vt 0.099034 0.642040
vt 0.098947 0.642815
vt 0.098276 0.703452
vt 0.098205 0.706874
vt 0.119243 0.843378
vn 0.101292 0.012469 -0.994779
vn 0.132888 0.017528 -0.990976
vn 0.074593 0.008197 -0.997180
vn 0.074593 0.008197 -0.997180
vn 0.141690 0.024147 -0.989617
vn 0.138784 0.024884 -0.990010
vn 0.079489 0.020634 -0.996622
vn 0.091309 0.022787 -0.995562
vn 0.045319 0.014405 -0.998869
vn 0.045319 0.014405 -0.998869
vn 0.366678 0.828640 0.422969
vn 0.578438 0.794144 0.186402
vn 0.328626 0.826280 0.457457
vn -0.089648 0.855913 0.509290
vn -0.143294 0.850319 0.506384
vn -0.428920 0.803626 0.412570
vn -0.418905 0.804126 0.421782
vn -0.480419 0.798523 0.362711
vn -0.480420 0.798523 0.362711
vn -0.020377 -0.009147 0.999751
vn -0.031869 -0.013397 0.999402
vn -0.008910 -0.004906 0.999948
vn -0.008910 -0.004906 0.999948
vn -0.053470 -0.028615 0.998159
vn -0.066380 -0.042888 0.996872
vn -0.067957 -0.059703 0.995900
vn -0.057597 -0.074845 0.995530
vn -0.049318 -0.086908 0.994995
vn -0.049318 -0.086908 0.994995
vn 0.431102 -0.802970 -0.411570
vn 0.480412 -0.798528 -0.362709
vn 0.480413 -0.798528 -0.362709
vn 0.421295 -0.803383 -0.420818
vn -0.578425 -0.794152 -0.186404
vn -0.368361 -0.828378 -0.422019
vn -0.330221 -0.826034 -0.456752
vn -0.067972 -0.048923 -0.996487
vn -0.067915 -0.071315 -0.995139
vn -0.067835 -0.091219 -0.993518
vn -0.067835 -0.091219 -0.993518
vn -0.061453 -0.032766 -0.997572
vn -0.048204 -0.020929 -0.998618
vn -0.027748 -0.007292 -0.999588
vn -0.017631 -0.003242 -0.999839
vn -0.008749 0.000313 -0.999962
vn -0.008749 0.000313 -0.999962
vn 0.077830 0.014206 0.996866
vn 0.087302 0.015661 0.996059
vn 0.044963 0.009158 0.998947
vn 0.044963 0.009158 0.998947
vn 0.147759 0.018032 0.988859
vn 0.145242 0.018215 0.989228
vn 0.120954 0.009438 0.992613
vn 0.147270 0.013000 0.989011
vn 0.088717 0.005081 0.996044
vn 0.088717 0.005081 0.996044
vn 0.089513 -0.855867 -0.509391
vn 0.143584 -0.850200 -0.506501
vn -0.718703 0.634233 0.284981
vn -0.668662 0.677901 0.305519
vn 0.717836 -0.634943 -0.285585
vn 0.666889 -0.679263 -0.306368
vn 0.890869 -0.399337 -0.216526
vn 0.937986 -0.242295 -0.247942
vn 0.939317 -0.233314 -0.251491
vn 0.876610 -0.428430 -0.219095
vn 0.942790 0.002797 -0.333374
vn 0.943151 0.000146 -0.332364
vn -0.938789 0.239120 0.247984
vn -0.890919 0.399075 0.216798
vn -0.876062 0.429271 0.219642
vn -0.940062 0.230278 0.251509
vn -0.941529 -0.011898 0.336722
vn -0.941834 -0.009818 0.335936
s 1
g Blaadje_71 Grass_1
usemtl lambert3SG
f 2/1/1 7/2/2 6/3/3 1/4/4
f 3/5/5 8/6/6 7/2/2 2/1/1
f 4/7/7 9/8/8 8/6/6 3/5/5
f 10/9/9 9/8/8 4/7/7 5/10/10
s 2
usemtl initialShadingGroup
f 11/11/11 6/3/12 7/2/13
usemtl lambert3SG
f 13/12/14 11/11/11 7/2/13 8/6/15
f 15/13/16 13/12/14 8/6/15 9/8/17
f 17/14/18 15/13/16 9/8/17 10/9/19
s 3
f 18/15/20 22/16/21 21/17/22 17/14/23
f 19/18/24 23/19/25 22/16/21 18/15/20
f 20/20/26 24/21/27 23/19/25 19/18/24
f 33/22/28 24/21/27 20/20/26 32/23/29
s 2
f 25/24/30 21/17/31 5/10/32 4/7/33
f 1/4/34 29/25/35 2/1/36
s 6
f 16/26/37 26/27/38 34/28/39 31/29/40
f 28/30/41 26/27/38 16/26/37 14/31/42
f 30/32/43 28/30/41 14/31/42 12/33/44
f 10/9/45 5/10/46 30/32/43 12/33/44
s 7
f 25/24/47 15/13/48 17/14/49 21/17/50
f 27/34/51 13/12/52 15/13/48 25/24/47
f 29/25/53 11/11/54 13/12/52 27/34/51
f 1/4/55 6/3/56 11/11/54 29/25/53
s 2
f 27/34/57 25/24/30 4/7/33 3/5/58
f 18/15/59 17/14/18 10/9/19 12/33/60
f 5/10/32 21/17/31 22/16/61 30/32/62
f 23/19/63 24/21/64 26/27/65 28/30/66
f 26/27/65 24/21/64 33/22/67 34/28/68
f 20/20/69 19/18/70 14/31/71 16/26/72
f 19/18/70 18/15/59 12/33/60 14/31/71
f 31/29/73 32/23/74 20/20/69 16/26/72
f 31/29/73 34/28/68 33/22/67 32/23/74
f 22/16/61 23/19/63 28/30/66 30/32/62
f 29/25/35 27/34/57 3/5/58 2/1/36
g default
v 977.984070 27.582794 -532.312988
v 981.049744 30.816652 -535.119324
v 984.679260 33.075249 -537.816223
v 987.173584 31.461546 -539.700623
v 989.301575 29.685493 -541.727783
v 978.026123 28.419472 -532.362488
v 981.091736 31.653315 -535.168762
v 984.755432 33.922462 -537.907227
v 987.309570 32.286263 -539.854126
v 989.437561 30.510204 -541.881287
v 980.373474 31.383673 -535.617859
v 991.378052 28.654354 -544.063721
v 982.540466 32.369720 -539.440979
v 992.938965 24.019026 -546.055908
v 984.378662 31.039238 -542.280640
v 994.500732 15.351293 -548.813110
v 986.192932 29.129671 -544.567566
v 988.194763 27.299902 -546.699280
v 990.159668 23.078884 -548.494507
v 992.413940 15.336040 -549.869080
v 986.056946 28.304953 -544.414124
v 988.058716 26.475182 -546.545776
v 989.952515 22.391506 -548.264587
v 992.169922 14.899636 -549.593689
v 984.242737 30.214508 -542.127136
v 994.256714 14.914860 -548.537720
v 982.464294 31.522516 -539.349915
v 992.731812 23.331648 -545.825989
v 980.331421 30.547012 -535.568359
v 991.242065 27.829645 -543.910217
v 993.467712 5.769323 -549.255493
v 993.354553 5.820843 -549.339172
v 993.112305 5.752644 -549.068604
v 993.225525 5.701126 -548.984924
vt 0.108775 0.847152
vt 0.108870 0.851696
vt 0.110950 0.871983
vt 0.110851 0.867460
vt 0.103385 0.817204
vt 0.103484 0.821259
vt 0.099505 0.776563
vt 0.099577 0.779500
vt 0.098045 0.739175
vt 0.097978 0.736351
vt 0.114140 0.851439
vt 0.120492 0.814997
vt 0.123905 0.773401
vt 0.124955 0.732605
vt 0.124456 0.692264
vt 0.124316 0.689584
vt 0.124814 0.729811
vt 0.122348 0.641344
vt 0.122240 0.640648
vt 0.116721 0.573655
vt 0.116637 0.575049
vt 0.109215 0.525590
vt 0.109238 0.522343
vt 0.123766 0.770492
vt 0.114032 0.846900
vt 0.102647 0.567647
vt 0.102588 0.569054
vt 0.108360 0.525202
vt 0.108383 0.521956
vt 0.098858 0.645552
vt 0.098908 0.646262
vt 0.098009 0.695824
vt 0.098077 0.698533
vt 0.120347 0.810979
vn 0.642733 0.015632 0.765931
vn 0.609139 0.022130 0.792755
vn 0.669263 0.010305 0.742954
vn 0.669263 0.010305 0.742954
vn 0.600191 0.030417 0.799278
vn 0.603076 0.031308 0.797069
vn 0.664906 0.025961 0.746476
vn 0.651454 0.029023 0.758133
vn 0.697580 0.018273 0.716274
vn 0.697580 0.018273 0.716274
vn -0.519154 0.853022 0.053232
vn -0.511905 0.785978 0.346688
vn -0.516747 0.855988 0.016052
vn -0.235181 0.899656 -0.367844
vn -0.201853 0.893684 -0.400730
vn 0.064890 0.822668 -0.564807
vn 0.053951 0.824546 -0.563218
vn 0.129850 0.809350 -0.572793
vn 0.129851 0.809349 -0.572794
vn -0.721504 -0.011406 -0.692316
vn -0.710099 -0.017159 -0.703893
vn -0.731595 -0.006220 -0.681711
vn -0.731595 -0.006220 -0.681711
vn -0.689856 -0.035764 -0.723063
vn -0.675939 -0.054787 -0.734919
vn -0.673492 -0.075244 -0.735355
vn -0.682850 -0.095265 -0.724321
vn -0.689509 -0.110050 -0.715867
vn -0.689509 -0.110050 -0.715867
vn -0.067061 -0.821782 0.565842
vn -0.129854 -0.809352 0.572789
vn -0.129854 -0.809353 0.572788
vn -0.056232 -0.823576 0.564412
vn 0.511766 -0.786062 -0.346702
vn 0.519664 -0.852595 -0.055060
vn 0.517349 -0.855591 -0.017728
vn 0.796059 -0.061540 0.602082
vn 0.794313 -0.090982 0.600657
vn 0.792335 -0.115398 0.599074
vn 0.792335 -0.115398 0.599074
vn 0.791796 -0.041884 0.609348
vn 0.780759 -0.026118 0.624287
vn 0.764260 -0.009400 0.644840
vn 0.754995 -0.003919 0.655719
vn 0.747504 0.000438 0.664257
vn 0.747504 0.000438 0.664257
vn -0.804752 0.017837 -0.593344
vn -0.813214 0.019930 -0.581623
vn -0.778616 0.011602 -0.627394
vn -0.778616 0.011602 -0.627394
vn -0.856591 0.022741 -0.515495
vn -0.855120 0.022937 -0.517923
vn -0.837857 0.012083 -0.545756
vn -0.856736 0.016573 -0.515489
vn -0.813929 0.006709 -0.580926
vn -0.813929 0.006709 -0.580926
vn 0.235143 -0.899592 0.368023
vn 0.201563 -0.893541 0.401194
vn 0.334349 0.631548 -0.699541
vn 0.296788 0.670724 -0.679740
vn -0.333338 -0.632427 0.699230
vn -0.295153 -0.672189 0.679005
vn -0.486805 -0.390843 0.781193
vn -0.501914 -0.235497 0.832240
vn -0.501191 -0.229134 0.834449
vn -0.478336 -0.413944 0.774497
vn -0.460872 0.002600 0.887463
vn -0.461434 0.000669 0.887174
vn 0.502407 0.232366 -0.832823
vn 0.486653 0.390700 -0.781359
vn 0.477753 0.414695 -0.774455
vn 0.501666 0.226112 -0.834988
vn 0.458403 -0.011274 -0.888673
vn 0.458880 -0.009657 -0.888446
s 1
g Grass_1 Blaadje_73
usemtl lambert3SG
f 36/35/75 41/36/76 40/37/77 35/38/78
f 37/39/79 42/40/80 41/36/76 36/35/75
f 38/41/81 43/42/82 42/40/80 37/39/79
f 44/43/83 43/42/82 38/41/81 39/44/84
s 2
f 45/45/85 40/37/86 41/36/87
f 47/46/88 45/45/85 41/36/87 42/40/89
f 49/47/90 47/46/88 42/40/89 43/42/91
f 51/48/92 49/47/90 43/42/91 44/43/93
s 3
f 52/49/94 56/50/95 55/51/96 51/48/97
f 53/52/98 57/53/99 56/50/95 52/49/94
f 54/54/100 58/55/101 57/53/99 53/52/98
f 67/56/102 58/55/101 54/54/100 66/57/103
s 2
f 59/58/104 55/51/105 39/44/106 38/41/107
f 35/38/108 63/59/109 36/35/110
s 6
f 50/60/111 60/61/112 68/62/113 65/63/114
f 62/64/115 60/61/112 50/60/111 48/65/116
f 64/66/117 62/64/115 48/65/116 46/67/118
f 44/43/119 39/44/120 64/66/117 46/67/118
s 7
f 59/58/121 49/47/122 51/48/123 55/51/124
f 61/68/125 47/46/126 49/47/122 59/58/121
f 63/59/127 45/45/128 47/46/126 61/68/125
f 35/38/129 40/37/130 45/45/128 63/59/127
s 2
f 61/68/131 59/58/104 38/41/107 37/39/132
f 52/49/133 51/48/92 44/43/93 46/67/134
f 39/44/106 55/51/105 56/50/135 64/66/136
f 57/53/137 58/55/138 60/61/139 62/64/140
f 60/61/139 58/55/138 67/56/141 68/62/142
f 54/54/143 53/52/144 48/65/145 50/60/146
f 53/52/144 52/49/133 46/67/134 48/65/145
f 65/63/147 66/57/148 54/54/143 50/60/146
f 65/63/147 68/62/142 67/56/141 66/57/148
f 56/50/135 57/53/137 62/64/140 64/66/136
f 63/59/109 61/68/131 37/39/132 36/35/110
g default
v 1015.945007 40.803886 -583.341431
v 1011.341309 45.993347 -577.615173
v 1005.782776 49.617767 -571.751831
v 1001.968140 47.028221 -567.676819
v 998.786194 44.178143 -563.585938
v 1015.883911 42.146523 -583.246887
v 1011.280212 47.335957 -577.520569
v 1005.671997 50.977318 -571.578247
v 1001.768921 48.351658 -567.380371
v 998.586975 45.501579 -563.289490
v 1012.550171 46.903259 -577.241760
v 995.743164 42.523449 -559.070129
v 1009.613770 48.485588 -570.500244
v 993.496460 35.085014 -555.329590
v 1007.053284 46.350533 -565.372437
v 991.380615 21.175684 -550.468262
v 1004.437073 43.286201 -561.066589
v 1001.482727 40.349926 -556.889221
v 998.531372 33.576347 -553.223999
v 995.027100 21.151207 -550.022339
v 1004.636292 41.962753 -561.363037
v 1001.681885 39.026474 -557.185669
v 998.835510 32.473297 -553.670044
v 995.384460 20.450895 -550.554321
v 1007.252441 45.027065 -565.668884
v 991.738037 20.475328 -551.000244
v 1009.724548 47.126060 -570.673767
v 993.800598 33.981964 -555.775574
v 1012.611267 45.560642 -577.336304
v 995.942383 41.200016 -559.366638
v 993.171692 5.799251 -550.365173
v 993.374084 5.881924 -550.302307
v 993.729370 5.772484 -550.826294
v 993.527039 5.689810 -550.889160
vt 0.106916 0.828468
vt 0.106816 0.832917
vt 0.109997 0.853857
vt 0.110080 0.849439
vt 0.101060 0.796699
vt 0.100931 0.800637
vt 0.097504 0.754985
vt 0.097328 0.757708
vt 0.095752 0.716793
vt 0.095935 0.714266
vt 0.111156 0.833853
vt 0.115174 0.798456
vt 0.117456 0.757438
vt 0.118016 0.716864
vt 0.117301 0.676384
vt 0.117382 0.674070
vt 0.118094 0.714359
vt 0.115781 0.626271
vt 0.115885 0.626000
vt 0.112114 0.561442
vt 0.112204 0.563196
vt 0.107902 0.518883
vt 0.107833 0.515559
vt 0.117536 0.754738
vt 0.111237 0.829409
vt 0.100712 0.551985
vt 0.100838 0.553773
vt 0.107237 0.518337
vt 0.107166 0.515014
vt 0.096766 0.624945
vt 0.096579 0.625214
vt 0.095660 0.673621
vt 0.095476 0.675953
vt 0.115236 0.794567
vn -0.756500 0.014001 -0.653844
vn -0.734991 0.019353 -0.677800
vn -0.775248 0.009151 -0.631591
vn -0.775248 0.009151 -0.631591
vn -0.728115 0.026759 -0.684933
vn -0.730218 0.027609 -0.682656
vn -0.771194 0.023325 -0.636173
vn -0.764125 0.025377 -0.644569
vn -0.794689 0.016271 -0.606799
vn -0.794689 0.016271 -0.606799
vn 0.471651 0.871354 -0.135235
vn 0.374597 0.816712 -0.438929
vn 0.486461 0.871186 -0.066268
vn 0.350281 0.880239 0.320128
vn 0.298550 0.860191 0.413449
vn 0.133174 0.800682 0.584100
vn 0.128399 0.800175 0.585861
vn 0.069694 0.792273 0.606174
vn 0.069694 0.792273 0.606174
vn 0.810726 -0.010553 0.585330
vn 0.803708 -0.015098 0.594832
vn 0.818287 -0.005557 0.574783
vn 0.818287 -0.005557 0.574783
vn 0.788738 -0.032925 0.613848
vn 0.780118 -0.047996 0.623788
vn 0.778129 -0.067805 0.624435
vn 0.783646 -0.084004 0.615502
vn 0.788276 -0.098285 0.607422
vn 0.788275 -0.098285 0.607422
vn -0.131464 -0.799842 -0.585637
vn -0.069696 -0.792272 -0.606175
vn -0.069695 -0.792272 -0.606175
vn -0.126855 -0.799393 -0.587263
vn -0.374644 -0.816684 0.438941
vn -0.471610 -0.871050 0.137317
vn -0.486616 -0.870955 0.068140
vn -0.863296 -0.056760 -0.501495
vn -0.861770 -0.082405 -0.500562
vn -0.859893 -0.105609 -0.499430
vn -0.859893 -0.105609 -0.499430
vn -0.860206 -0.037773 -0.508545
vn -0.853036 -0.024387 -0.521283
vn -0.840833 -0.008331 -0.541230
vn -0.834945 -0.003858 -0.550320
vn -0.829351 0.000313 -0.558728
vn -0.829351 0.000313 -0.558728
vn 0.870279 0.016556 0.492282
vn 0.875139 0.018162 0.483530
vn 0.851219 0.010505 0.524706
vn 0.851219 0.010505 0.524706
vn 0.907140 0.021251 0.420292
vn 0.905788 0.021474 0.423186
vn 0.893610 0.011130 0.448706
vn 0.906904 0.015324 0.421059
vn 0.876289 0.006014 0.481748
vn 0.876289 0.006014 0.481748
vn -0.350439 -0.880239 -0.319955
vn -0.298299 -0.859941 -0.414149
vn -0.067883 0.640758 0.764736
vn -0.057711 0.653629 0.754612
vn 0.066946 -0.641686 -0.764040
vn 0.056506 -0.654891 -0.753608
vn 0.194458 -0.401897 -0.894799
vn 0.192477 -0.242105 -0.950967
vn 0.189520 -0.229272 -0.954734
vn 0.190335 -0.417724 -0.888414
vn 0.131961 0.003030 -0.991250
vn 0.132985 -0.000054 -0.991118
vn -0.192747 0.238915 0.951719
vn -0.194178 0.401867 0.894873
vn -0.189811 0.418297 0.888256
vn -0.189774 0.226252 0.955404
vn -0.129435 -0.010784 0.991529
vn -0.129683 -0.010037 0.991505
s 1
g Grass_1 Blaadje_72
usemtl lambert3SG
f 70/69/149 75/70/150 74/71/151 69/72/152
f 71/73/153 76/74/154 75/70/150 70/69/149
f 72/75/155 77/76/156 76/74/154 71/73/153
f 78/77/157 77/76/156 72/75/155 73/78/158
s 2
f 79/79/159 74/71/160 75/70/161
f 81/80/162 79/79/159 75/70/161 76/74/163
f 83/81/164 81/80/162 76/74/163 77/76/165
f 85/82/166 83/81/164 77/76/165 78/77/167
s 3
f 86/83/168 90/84/169 89/85/170 85/82/171
f 87/86/172 91/87/173 90/84/169 86/83/168
f 88/88/174 92/89/175 91/87/173 87/86/172
f 101/90/176 92/89/175 88/88/174 100/91/177
s 2
f 93/92/178 89/85/179 73/78/180 72/75/181
f 69/72/182 97/93/183 70/69/184
s 6
f 84/94/185 94/95/186 102/96/187 99/97/188
f 96/98/189 94/95/186 84/94/185 82/99/190
f 98/100/191 96/98/189 82/99/190 80/101/192
f 78/77/193 73/78/194 98/100/191 80/101/192
s 7
f 93/92/195 83/81/196 85/82/197 89/85/198
f 95/102/199 81/80/200 83/81/196 93/92/195
f 97/93/201 79/79/202 81/80/200 95/102/199
f 69/72/203 74/71/204 79/79/202 97/93/201
s 2
f 95/102/205 93/92/178 72/75/181 71/73/206
f 86/83/207 85/82/166 78/77/167 80/101/208
f 73/78/180 89/85/179 90/84/209 98/100/210
f 91/87/211 92/89/212 94/95/213 96/98/214
f 94/95/213 92/89/212 101/90/215 102/96/216
f 88/88/217 87/86/218 82/99/219 84/94/220
f 87/86/218 86/83/207 80/101/208 82/99/219
f 99/97/221 100/91/222 88/88/217 84/94/220
f 99/97/221 102/96/216 101/90/215 100/91/222
f 90/84/209 91/87/211 96/98/214 98/100/210
f 97/93/183 95/102/205 71/73/206 70/69/184
