# This file uses meters as units for non-parametric coordinates.

mtllib Ground_1.mtl
g default
v -107.917564 -0.293770 827.051392
v -107.917564 -0.293770 751.219604
v -107.917564 8.718302 751.219604
v -107.917564 8.718302 827.051392
v -35.972523 -0.293770 845.512207
v -35.972523 -0.293770 731.312439
v -35.972523 8.718302 731.312439
v -35.972523 8.718302 845.512207
v 35.972446 -0.293770 827.051392
v 35.972469 -0.293800 751.219604
v 35.972469 8.718273 751.219604
v 35.972446 8.718302 827.051392
v 107.917526 -0.293770 839.135498
v 107.917542 -0.293800 752.008911
v 107.917542 8.718273 752.008911
v 107.917526 8.718302 839.135498
v -179.862610 8.718302 789.135498
v -107.917564 23.100990 789.135498
v -35.972523 23.100990 795.512207
v 35.972446 18.861115 789.135498
v 107.917526 23.100990 789.135498
v 179.862610 8.718302 781.674561
v 179.862610 -0.293770 781.674561
v -179.862610 -0.293770 789.135498
v -179.862610 -0.293770 819.137512
v -160.140869 -0.293770 835.822998
v -179.862610 5.727412 819.137512
v -160.140869 5.727412 835.822998
v 179.862610 -0.293770 813.407776
v 161.595779 -0.293770 831.674561
v 161.595779 5.727412 831.674561
v 179.862610 8.718302 813.407776
v -179.862610 5.727412 759.133484
v -160.140869 5.727412 742.447998
v -179.862610 -0.293770 759.133484
v -160.140869 -0.293770 742.447998
v 179.862610 8.718302 749.941345
v 161.595779 5.727412 731.674561
v 161.595779 -0.293770 731.674561
v 179.862610 -0.293770 749.941345
vt 0.403829 0.731243
vt 0.403823 0.730585
vt 0.404469 0.730579
vt 0.404472 0.731006
vt 0.397430 0.731244
vt 0.400168 0.732294
vt 0.401333 0.731210
vt 0.399090 0.731210
vt 0.397337 0.731006
vt 0.397424 0.730585
vt 0.397333 0.730579
vt 0.401328 0.730577
vt 0.399085 0.730577
vt 0.389136 0.731150
vt 0.389131 0.730628
vt 0.391750 0.730628
vt 0.391759 0.731409
vt 0.388400 0.730624
vt 0.388406 0.731140
vt 0.390978 0.731362
vt 0.390970 0.730616
vt 0.394152 0.732553
vt 0.396451 0.731139
vt 0.396446 0.730624
vt 0.397292 0.730616
vt 0.397299 0.731362
vt 0.391702 0.731320
vt 0.391695 0.730605
vt 0.396837 0.732459
vt 0.400805 0.730605
vt 0.400812 0.731319
vt 0.395416 0.731280
vt 0.395409 0.730595
vt 0.398324 0.732051
vt 0.401209 0.730595
vt 0.401215 0.731279
vt 0.403575 0.731210
vt 0.403570 0.730577
vt 0.394368 0.730628
vt 0.394374 0.731149
vn -0.052727 0.000000 0.998609
vn -0.050155 0.000000 0.998741
vn 0.137670 0.000000 0.990478
vn 0.137670 0.000000 0.990478
vn 0.026902 0.969499 -0.243614
vn 0.020182 0.967468 -0.252187
vn 0.065268 0.978825 -0.194015
vn 0.065268 0.978825 -0.194015
vn 0.065268 0.978825 -0.194015
vn -0.137237 0.000000 -0.990538
vn -0.134228 0.000000 -0.990950
vn -0.354252 0.000000 -0.935150
vn -0.354252 0.000000 -0.935150
vn 1.000000 0.000000 0.000000
vn 1.000000 0.000000 0.000000
vn 1.000000 0.000000 0.000000
vn 1.000000 0.000000 0.000000
vn -1.000000 0.000000 0.000000
vn -1.000000 0.000000 0.000000
vn -1.000000 0.000000 0.000000
vn -1.000000 0.000000 0.000000
vn 0.165642 0.000000 -0.986186
vn 0.165642 0.000000 -0.986186
vn -0.112104 0.000000 -0.993697
vn -0.108370 0.000000 -0.994111
vn -0.115892 0.969920 -0.214064
vn -0.063637 0.966819 -0.247407
vn -0.064829 0.966931 -0.246660
vn -0.115892 0.969920 -0.214064
vn -0.115892 0.969920 -0.214064
vn 0.165644 0.000000 0.986186
vn 0.165644 0.000000 0.986186
vn -0.096043 0.000000 0.995377
vn -0.099622 0.000000 0.995025
vn -0.000000 0.000000 -1.000000
vn -0.000000 0.000000 -1.000000
vn 0.012202 0.967509 -0.252542
vn 0.012366 0.967528 -0.252461
vn 0.000000 0.000000 1.000000
vn 0.000000 0.000000 1.000000
vn 0.142370 0.000000 -0.989814
vn 0.142370 0.000000 -0.989814
vn 0.018598 0.963848 -0.265805
vn 0.020594 0.964361 -0.263787
vn 0.044273 0.000000 0.999020
vn 0.044273 0.000000 0.999020
vn 0.009796 0.956934 0.290141
vn -0.083684 0.960718 0.264609
vn -0.083031 0.960496 0.265619
vn 0.010116 0.956963 0.290035
vn 0.010172 0.963172 0.268692
vn 0.013357 0.963136 0.268682
vn 0.044150 0.973579 0.224043
vn 0.043795 0.973556 0.224213
vn 0.130943 0.974695 0.181174
vn 0.130943 0.974695 0.181174
vn 0.130943 0.974695 0.181174
vn 1.000000 0.000000 0.000000
vn 1.000000 0.000000 0.000000
vn 1.000000 0.000000 0.000000
vn 1.000000 0.000000 0.000000
vn -1.000000 0.000000 0.000000
vn -1.000000 0.000000 0.000000
vn -1.000000 0.000000 0.000000
vn -1.000000 0.000000 0.000000
vn -0.115892 0.969920 0.214064
vn -0.115892 0.969920 0.214064
vn -0.115892 0.969920 0.214064
vn -0.645894 0.000000 0.763427
vn -0.645894 0.000000 0.763427
vn -0.645894 0.000000 0.763427
vn -0.645894 0.000000 0.763427
vn 0.707106 0.000000 0.707107
vn 0.707106 0.000000 0.707107
vn 0.707106 0.000000 0.707107
vn 0.707106 0.000000 0.707107
vn -0.645894 0.000000 -0.763427
vn -0.645894 0.000000 -0.763427
vn -0.645894 0.000000 -0.763427
vn -0.645894 0.000000 -0.763427
vn 0.707105 0.000000 -0.707109
vn 0.707105 0.000000 -0.707109
vn 0.707105 0.000000 -0.707109
vn 0.707105 0.000000 -0.707109
s 1
g pCube37 Grond
usemtl lambert3SG
f 16/1/1 13/2/2 30/3/3 31/4/4
s 2
f 15/5/5 21/6/6 22/7/7 37/8/8 38/9/9
s 3
f 14/10/10 15/5/11 38/9/12 39/11/13
s off
f 22/7/14 23/12/15 40/13/16 37/8/17
f 33/14/18 35/15/19 24/16/20 17/17/21
s 3
f 36/18/22 34/19/23 3/20/24 2/21/25
s 2
f 17/17/26 18/22/27 3/20/28 34/19/29 33/14/30
s 1
f 28/23/31 26/24/32 1/25/33 4/26/34
s 3
f 2/21/25 3/20/24 7/27/35 6/28/36
s 2
f 3/20/28 18/22/27 19/29/37 7/27/38
s 1
f 4/26/34 1/25/33 5/30/39 8/31/40
s 3
f 6/28/36 7/27/35 11/32/41 10/33/42
s 2
f 7/27/38 19/29/37 20/34/43 11/32/44
s 1
f 8/31/40 5/30/39 9/35/45 12/36/46
s 3
f 10/33/42 11/32/41 15/5/11 14/10/10
s 2
f 11/32/44 20/34/43 21/6/6 15/5/5
s 1
f 12/36/46 9/35/45 13/2/2 16/1/1
s 7
f 19/29/47 18/22/48 4/26/49 8/31/50
f 20/34/51 19/29/47 8/31/50 12/36/52
f 21/6/53 20/34/51 12/36/52 16/1/54
f 22/7/55 21/6/53 16/1/54 31/4/56 32/37/57
s off
f 32/37/58 29/38/59 23/12/60 22/7/61
f 17/17/62 24/16/63 25/39/64 27/40/65
s 7
f 27/40/66 28/23/67 4/26/49 18/22/48 17/17/68
s off
f 25/39/69 26/24/70 28/23/71 27/40/72
f 30/3/73 29/38/74 32/37/75 31/4/76
f 33/14/77 34/19/78 36/18/79 35/15/80
f 38/9/81 37/8/82 40/13/83 39/11/84
g default
v -107.917564 -0.293770 1123.400635
v -107.917564 -0.293770 1047.568848
v -107.917564 8.718302 1047.568848
v -107.917564 8.718302 1123.400635
v -35.972523 -0.293770 1135.484741
v -35.972523 -0.293770 1035.484741
v -35.972523 8.718302 1035.484741
v -35.972523 8.718302 1135.484741
v 35.972446 -0.293770 1135.289063
v 35.972446 -0.293770 1059.457275
v 35.972446 8.718302 1059.457275
v 35.972446 8.718302 1135.289063
v 107.917526 -0.293770 1145.740723
v 107.917526 -0.293770 1035.484741
v 107.917526 8.718302 1035.484741
v 107.917526 8.718302 1145.740723
v -179.862610 8.718302 1085.484741
v -107.917564 23.100990 1085.484741
v -35.972523 23.100990 1085.484741
v 35.972446 18.861115 1097.373169
v 107.917526 23.100990 1085.484741
v 179.862610 5.727412 1085.484741
v 179.862610 -0.293770 1085.484741
v -179.862610 -0.293770 1085.484741
v -179.862610 -0.293770 1115.486694
v -160.140869 -0.293770 1132.172241
v -179.862610 8.718302 1115.486694
v -160.140869 8.718302 1132.172241
v 179.862610 -0.293770 1117.217896
v 161.595779 -0.293770 1135.484741
v 161.595779 8.718302 1135.484741
v 179.862610 8.718302 1117.217896
v -179.862610 5.727412 1046.688965
v -160.140869 5.727412 1030.003418
v -179.862610 -0.293770 1046.688965
v -160.140869 -0.293770 1030.003418
v 179.862610 5.727412 1053.751587
v 161.595779 5.727412 1035.484741
v 161.595779 -0.293770 1035.484741
v 179.862610 -0.293770 1053.751587
vt 0.404472 0.731390
vt 0.404469 0.730587
vt 0.404235 0.730579
vt 0.404238 0.731359
vt 0.394620 0.731391
vt 0.399097 0.732672
vt 0.400163 0.731093
vt 0.397434 0.731093
vt 0.395555 0.731101
vt 0.394616 0.730587
vt 0.395552 0.730580
vt 0.400161 0.730577
vt 0.397431 0.730577
vt 0.389676 0.731276
vt 0.389672 0.730639
vt 0.393790 0.730639
vt 0.393795 0.731591
vt 0.388400 0.730635
vt 0.388404 0.731264
vt 0.391452 0.731535
vt 0.391446 0.730624
vt 0.395304 0.732987
vt 0.399108 0.731575
vt 0.399103 0.730634
vt 0.399132 0.730624
vt 0.399137 0.731534
vt 0.391816 0.731483
vt 0.391810 0.730611
vt 0.396676 0.732873
vt 0.401513 0.730611
vt 0.401517 0.731482
vt 0.395507 0.731435
vt 0.395502 0.730599
vt 0.399040 0.732375
vt 0.402556 0.730598
vt 0.402560 0.731434
vt 0.402892 0.731349
vt 0.402889 0.730577
vt 0.396972 0.730639
vt 0.396977 0.731591
vn -0.001557 0.000000 0.999999
vn -0.001557 0.000000 0.999999
vn 0.187669 0.000000 0.982232
vn 0.187669 0.000000 0.982232
vn 0.042752 0.977829 -0.204992
vn 0.021301 0.976365 -0.215074
vn 0.145025 0.977186 -0.155163
vn 0.145025 0.977186 -0.155163
vn 0.145025 0.977186 -0.155163
vn -0.201192 0.000000 -0.979552
vn -0.203850 0.000000 -0.979002
vn 0.000001 0.000000 -1.000000
vn 0.000001 0.000000 -1.000000
vn 1.000000 0.000000 0.000000
vn 1.000000 0.000000 0.000000
vn 1.000000 0.000000 0.000000
vn 1.000000 0.000000 0.000000
vn -1.000000 0.000000 0.000000
vn -1.000000 0.000000 0.000000
vn -1.000000 0.000000 0.000000
vn -1.000000 0.000000 0.000000
vn 0.318803 0.000000 -0.947821
vn 0.318803 0.000000 -0.947821
vn 0.018074 0.000000 -0.999837
vn 0.022215 0.000000 -0.999753
vn -0.102712 0.976451 -0.189719
vn -0.064396 0.965778 -0.251251
vn -0.067035 0.966675 -0.247074
vn -0.102712 0.976451 -0.189719
vn -0.102712 0.976451 -0.189719
vn 0.165644 0.000000 0.986186
vn 0.165644 0.000000 0.986186
vn -0.026667 0.000000 0.999644
vn -0.026667 0.000000 0.999644
vn 0.082341 0.000000 -0.996604
vn 0.082341 0.000000 -0.996604
vn 0.036802 0.956638 -0.288947
vn 0.030824 0.956200 -0.291087
vn -0.082341 0.000000 0.996604
vn -0.082341 0.000000 0.996604
vn 0.000000 0.000000 -1.000000
vn 0.000000 0.000000 -1.000000
vn -0.000000 0.963222 -0.268706
vn 0.000000 0.963222 -0.268706
vn -0.071096 0.000000 0.997470
vn -0.071096 0.000000 0.997470
vn -0.010849 0.956581 0.291266
vn -0.056063 0.967464 0.246720
vn -0.056789 0.967823 0.245141
vn -0.009033 0.957310 0.288922
vn -0.010654 0.966917 0.254870
vn -0.011331 0.967053 0.254323
vn 0.055504 0.983393 0.172793
vn 0.051180 0.982962 0.176537
vn 0.127896 0.985778 0.109012
vn 0.127896 0.985778 0.109012
vn 0.127896 0.985778 0.109012
vn 1.000000 0.000000 0.000000
vn 1.000000 0.000000 0.000000
vn 1.000000 0.000000 0.000000
vn 1.000000 0.000000 0.000000
vn -1.000000 0.000000 0.000000
vn -1.000000 0.000000 0.000000
vn -1.000000 0.000000 0.000000
vn -1.000000 0.000000 0.000000
vn -0.090213 0.981101 0.171178
vn -0.090213 0.981101 0.171178
vn -0.090213 0.981101 0.171178
vn -0.645897 0.000000 0.763425
vn -0.645897 0.000000 0.763425
vn -0.645897 0.000000 0.763425
vn -0.645897 0.000000 0.763425
vn 0.707107 0.000000 0.707107
vn 0.707107 0.000000 0.707107
vn 0.707107 0.000000 0.707107
vn 0.707107 0.000000 0.707107
vn -0.645896 0.000000 -0.763426
vn -0.645896 0.000000 -0.763426
vn -0.645896 0.000000 -0.763426
vn -0.645896 0.000000 -0.763426
vn 0.707106 0.000000 -0.707107
vn 0.707106 0.000000 -0.707107
vn 0.707106 0.000000 -0.707107
vn 0.707106 0.000000 -0.707107
s 1
g Grond pCube38
usemtl lambert3SG
f 56/41/85 53/42/86 70/43/87 71/44/88
s 2
f 55/45/89 61/46/90 62/47/91 77/48/92 78/49/93
s 3
f 54/50/94 55/45/95 78/49/96 79/51/97
s off
f 62/47/98 63/52/99 80/53/100 77/48/101
f 73/54/102 75/55/103 64/56/104 57/57/105
s 3
f 76/58/106 74/59/107 43/60/108 42/61/109
s 2
f 57/57/110 58/62/111 43/60/112 74/59/113 73/54/114
s 1
f 68/63/115 66/64/116 41/65/117 44/66/118
s 3
f 42/61/109 43/60/108 47/67/119 46/68/120
s 2
f 43/60/112 58/62/111 59/69/121 47/67/122
s 1
f 44/66/118 41/65/117 45/70/123 48/71/124
s 3
f 46/68/120 47/67/119 51/72/125 50/73/126
s 2
f 47/67/122 59/69/121 60/74/127 51/72/128
s 1
f 48/71/124 45/70/123 49/75/129 52/76/130
s 3
f 50/73/126 51/72/125 55/45/95 54/50/94
s 2
f 51/72/128 60/74/127 61/46/90 55/45/89
s 1
f 52/76/130 49/75/129 53/42/86 56/41/85
s 7
f 59/69/131 58/62/132 44/66/133 48/71/134
f 60/74/135 59/69/131 48/71/134 52/76/136
f 61/46/137 60/74/135 52/76/136 56/41/138
f 62/47/139 61/46/137 56/41/138 71/44/140 72/77/141
s off
f 72/77/142 69/78/143 63/52/144 62/47/145
f 57/57/146 64/56/147 65/79/148 67/80/149
s 7
f 67/80/150 68/63/151 44/66/133 58/62/132 57/57/152
s off
f 65/79/153 66/64/154 68/63/155 67/80/156
f 70/43/157 69/78/158 72/77/159 71/44/160
f 73/54/161 74/59/162 76/58/163 75/55/164
f 78/49/165 77/48/166 80/53/167 79/51/168
g default
v 107.917564 -0.293770 892.548950
v 107.917564 -0.293770 968.380798
v 107.917564 8.718302 968.380798
v 107.917564 8.718302 892.548950
v 35.972523 -0.293770 884.484192
v 35.972523 -0.293770 984.484131
v 35.972523 8.718302 984.484131
v 35.972523 8.718302 884.484192
v -35.972450 -0.293770 904.772827
v -35.972450 -0.293770 980.604614
v -35.972450 8.718302 980.604614
v -35.972450 8.718302 904.772827
v -107.917526 -0.293770 884.484192
v -107.917526 -0.293770 984.484131
v -107.917526 8.718302 984.484131
v -107.917526 8.718302 884.484192
v 179.862610 8.718302 934.484192
v 107.917564 23.100990 930.464905
v 35.972523 23.100990 934.484192
v -35.972450 18.861115 942.688721
v -107.917526 23.100990 934.484192
v -179.862610 8.718302 934.484192
v -179.862610 -0.293770 934.484192
v 179.862610 -0.293770 934.484192
v 179.862610 -0.293770 904.482178
v 160.140869 -0.293770 887.796753
v 179.862610 8.718302 904.482178
v 160.140869 5.727412 887.796753
v -179.862610 -0.293770 902.750977
v -161.595779 -0.293770 884.484192
v -161.595779 5.727412 884.484192
v -179.862610 5.727412 902.750977
v 179.862610 8.718302 964.486206
v 160.140869 5.727412 981.171631
v 179.862610 -0.293770 964.486206
v 160.140869 -0.293770 981.171631
v -179.862610 8.718302 966.217407
v -161.595779 8.718302 984.484131
v -161.595779 -0.293770 984.484131
v -179.862610 -0.293770 966.217407
vt 0.390049 0.731446
vt 0.390041 0.730620
vt 0.388400 0.730630
vt 0.388405 0.731201
vt 0.399259 0.731445
vt 0.394667 0.732763
vt 0.392647 0.731498
vt 0.395705 0.731497
vt 0.397936 0.731483
vt 0.399253 0.730620
vt 0.397930 0.730629
vt 0.392640 0.730633
vt 0.395699 0.730633
vt 0.403516 0.731278
vt 0.403512 0.730577
vt 0.401169 0.730577
vt 0.401174 0.731278
vt 0.404469 0.730579
vt 0.404472 0.731052
vt 0.402488 0.731315
vt 0.402483 0.730586
vt 0.399418 0.732477
vt 0.397102 0.731053
vt 0.397099 0.730579
vt 0.396325 0.730586
vt 0.396330 0.731315
vt 0.402406 0.731354
vt 0.402401 0.730596
vt 0.398190 0.732565
vt 0.393947 0.730597
vt 0.393953 0.731355
vt 0.400558 0.731398
vt 0.400552 0.730608
vt 0.397224 0.732288
vt 0.393868 0.730608
vt 0.393874 0.731399
vt 0.389583 0.731211
vt 0.389578 0.730633
vt 0.398825 0.730577
vt 0.398830 0.731278
vn 0.173550 0.000000 -0.984825
vn 0.171261 0.000000 -0.985226
vn 0.000000 0.000000 -1.000000
vn 0.000000 0.000000 -1.000000
vn -0.044452 0.977446 0.206456
vn -0.044897 0.977517 0.206021
vn -0.103093 0.983548 0.148341
vn -0.103093 0.983548 0.148341
vn -0.103093 0.983548 0.148341
vn 0.030867 0.000000 0.999524
vn 0.030867 0.000000 0.999524
vn 0.000000 0.000000 1.000000
vn 0.000000 0.000000 1.000000
vn -1.000000 0.000000 0.000000
vn -1.000000 0.000000 0.000000
vn -1.000000 0.000000 0.000000
vn -1.000000 0.000000 0.000000
vn 1.000000 0.000000 0.000000
vn 1.000000 0.000000 0.000000
vn 1.000000 0.000000 0.000000
vn 1.000000 0.000000 0.000000
vn -0.237893 0.000000 0.971291
vn -0.237893 0.000000 0.971291
vn 0.050937 0.000000 0.998702
vn 0.047003 0.000000 0.998895
vn 0.081050 0.975829 0.202951
vn 0.061182 0.963503 0.260613
vn 0.061819 0.963953 0.258791
vn 0.081050 0.975829 0.202951
vn 0.081050 0.975829 0.202951
vn -0.090623 0.000000 -0.995885
vn -0.090622 0.000000 -0.995885
vn 0.035485 0.000000 -0.999370
vn 0.037236 0.000000 -0.999307
vn 0.084648 0.000000 0.996411
vn 0.084648 0.000000 0.996411
vn 0.013664 0.956548 0.291253
vn 0.010036 0.957318 0.288862
vn -0.084648 0.000000 -0.996411
vn -0.084648 0.000000 -0.996411
vn -0.000000 0.000000 1.000000
vn -0.000000 0.000000 1.000000
vn 0.000000 0.963222 0.268706
vn 0.000000 0.963222 0.268706
vn 0.000000 0.000000 -1.000000
vn 0.000000 0.000000 -1.000000
vn -0.038182 0.956608 -0.288866
vn 0.054063 0.963073 -0.263755
vn 0.055152 0.963326 -0.262603
vn -0.033559 0.956110 -0.291080
vn 0.000000 0.963222 -0.268706
vn -0.000000 0.963222 -0.268706
vn -0.023673 0.973251 -0.228524
vn -0.038883 0.974139 -0.222581
vn -0.131068 0.973923 -0.185190
vn -0.131068 0.973923 -0.185190
vn -0.131068 0.973923 -0.185190
vn -1.000000 0.000000 0.000000
vn -1.000000 0.000000 0.000000
vn -1.000000 0.000000 0.000000
vn -1.000000 0.000000 0.000000
vn 1.000000 0.000000 0.000000
vn 1.000000 0.000000 0.000000
vn 1.000000 0.000000 0.000000
vn 1.000000 0.000000 0.000000
vn 0.106163 0.972411 -0.207719
vn 0.106163 0.972411 -0.207719
vn 0.106163 0.972411 -0.207719
vn 0.645894 0.000000 -0.763427
vn 0.645894 0.000000 -0.763427
vn 0.645894 0.000000 -0.763427
vn 0.645894 0.000000 -0.763427
vn -0.707106 0.000000 -0.707107
vn -0.707106 0.000000 -0.707107
vn -0.707106 0.000000 -0.707107
vn -0.707106 0.000000 -0.707107
vn 0.645892 0.000000 0.763429
vn 0.645892 0.000000 0.763429
vn 0.645892 0.000000 0.763429
vn 0.645892 0.000000 0.763429
vn -0.707105 0.000000 0.707109
vn -0.707105 0.000000 0.707109
vn -0.707105 0.000000 0.707109
vn -0.707105 0.000000 0.707109
s 1
g Grond pCube39
usemtl lambert3SG
f 96/81/169 93/82/170 110/83/171 111/84/172
s 2
f 95/85/173 101/86/174 102/87/175 117/88/176 118/89/177
s 3
f 94/90/178 95/85/179 118/89/180 119/91/181
s off
f 102/87/182 103/92/183 120/93/184 117/88/185
f 113/94/186 115/95/187 104/96/188 97/97/189
s 3
f 116/98/190 114/99/191 83/100/192 82/101/193
s 2
f 97/97/194 98/102/195 83/100/196 114/99/197 113/94/198
s 1
f 108/103/199 106/104/200 81/105/201 84/106/202
s 3
f 82/101/193 83/100/192 87/107/203 86/108/204
s 2
f 83/100/196 98/102/195 99/109/205 87/107/206
s 1
f 84/106/202 81/105/201 85/110/207 88/111/208
s 3
f 86/108/204 87/107/203 91/112/209 90/113/210
s 2
f 87/107/206 99/109/205 100/114/211 91/112/212
s 1
f 88/111/208 85/110/207 89/115/213 92/116/214
s 3
f 90/113/210 91/112/209 95/85/179 94/90/178
s 2
f 91/112/212 100/114/211 101/86/174 95/85/173
s 1
f 92/116/214 89/115/213 93/82/170 96/81/169
s 7
f 99/109/215 98/102/216 84/106/217 88/111/218
f 100/114/219 99/109/215 88/111/218 92/116/220
f 101/86/221 100/114/219 92/116/220 96/81/222
f 102/87/223 101/86/221 96/81/222 111/84/224 112/117/225
s off
f 112/117/226 109/118/227 103/92/228 102/87/229
f 97/97/230 104/96/231 105/119/232 107/120/233
s 7
f 107/120/234 108/103/235 84/106/217 98/102/216 97/97/236
s off
f 105/119/237 106/104/238 108/103/239 107/120/240
f 110/83/241 109/118/242 112/117/243 111/84/244
f 113/94/245 114/99/246 116/98/247 115/95/248
f 118/89/249 117/88/250 120/93/251 119/91/252
